<?xml version="1.0" encoding="UTF-8"?>
<svg id="Layer_2" data-name="Layer 2" xmlns="http://www.w3.org/2000/svg" xmlns:xlink="http://www.w3.org/1999/xlink" viewBox="0 0 548.52 341.38">
  <defs>
    <style>
      .cls-1, .cls-2, .cls-3 {
        fill: none;
      }

      .cls-4 {
        fill: #dfe8f4;
        stroke: #d3dceb;
        stroke-width: .44px;
      }

      .cls-4, .cls-2, .cls-3 {
        stroke-miterlimit: 10;
      }

      .cls-5 {
        fill: #231f20;
      }

      .cls-2 {
        stroke: #842990;
      }

      .cls-2, .cls-3 {
        stroke-width: 3.29px;
      }

      .cls-3 {
        stroke: #0da049;
      }
    </style>
  </defs>
  <g id="Layer_1-2" data-name="Layer 1">
    <rect class="cls-4" x="62.88" y="175.78" width="118.8" height="4.78" rx="2.39" ry="2.39"/>
    <line class="cls-3" x1="68.76" y1="175.04" x2="68.76" y2="108.08"/>
    <line class="cls-2" x1="78.54" y1="175.28" x2="78.54" y2="125.47"/>
    <g>
      <path class="cls-5" d="M27.54,107.25v-4.41h-1.37v-.69c.3-.01.56-.04.76-.09.21-.05.38-.14.52-.26s.26-.29.36-.5h.71v5.96h-.98Z"/>
      <path class="cls-5" d="M29.49,107.25v-.81c.64-.47,1.21-.9,1.7-1.31s.88-.79,1.16-1.16c.28-.36.42-.72.42-1.06,0-.3-.09-.53-.28-.7-.18-.17-.43-.25-.74-.25-.19,0-.38.04-.55.12-.18.08-.32.21-.44.39s-.17.44-.18.77h-.99c0-.43.09-.79.28-1.1.18-.3.44-.54.77-.7.33-.16.71-.25,1.15-.25.38,0,.72.06,1.02.19.3.13.53.31.71.55.17.24.26.54.26.89,0,.44-.13.86-.4,1.26-.27.4-.62.79-1.08,1.18s-.96.76-1.52,1.14h3.11v.85h-4.4Z"/>
      <path class="cls-5" d="M37.03,107.35c-.54,0-.99-.13-1.35-.38-.36-.25-.62-.61-.8-1.07-.18-.46-.26-1.01-.26-1.64s.09-1.18.26-1.64c.18-.46.44-.82.8-1.07.36-.25.81-.38,1.35-.38s.99.13,1.35.38c.36.25.62.61.8,1.07.18.46.26,1.01.26,1.64s-.09,1.18-.26,1.64c-.18.46-.44.82-.8,1.07-.36.25-.81.38-1.35.38ZM37.03,106.59c.42,0,.76-.19,1.01-.57.25-.38.38-.97.38-1.75s-.13-1.36-.38-1.74c-.25-.38-.59-.57-1.01-.57s-.76.19-1.01.57c-.25.38-.38.96-.38,1.74s.13,1.37.38,1.75c.25.38.59.57,1.01.57Z"/>
      <path class="cls-5" d="M41.8,107.25l-2.03-5.96h1.14l1.54,4.83,1.53-4.83h1.08l-2.02,5.96h-1.25Z"/>
      <path class="cls-5" d="M44.73,107.25l2.22-5.96h1.19l2.24,5.96h-1.13l-.43-1.2h-2.58l-.42,1.2h-1.09ZM46.56,105.17h1.96l-.99-2.79-.97,2.79Z"/>
      <path class="cls-5" d="M55.05,105.23h1.03c-.08.44-.25.82-.5,1.14s-.56.56-.93.73-.79.25-1.25.25c-.59,0-1.09-.13-1.51-.39-.42-.26-.74-.62-.97-1.08-.22-.47-.33-1.01-.33-1.63s.12-1.16.35-1.62c.24-.46.57-.82,1-1.07s.94-.38,1.52-.38c.44,0,.85.09,1.21.26.36.17.66.42.9.74.24.32.4.7.48,1.13h-1.04c-.09-.38-.27-.69-.55-.91-.28-.22-.63-.34-1.05-.34-.32,0-.62.08-.88.25-.26.17-.47.42-.62.74-.15.33-.23.73-.23,1.2s.08.87.23,1.2c.15.33.36.58.62.76.27.17.57.26.9.26.41,0,.76-.11,1.05-.32.29-.21.48-.52.57-.93Z"/>
      <path class="cls-5" d="M26.34,117.11v-.81c.64-.47,1.21-.9,1.7-1.31s.88-.79,1.16-1.16c.28-.36.42-.72.42-1.06,0-.3-.09-.53-.28-.7-.18-.17-.43-.25-.74-.25-.19,0-.38.04-.55.12-.18.08-.32.21-.44.39s-.17.44-.18.77h-.99c0-.43.09-.79.28-1.1.18-.3.44-.54.77-.7.33-.16.71-.25,1.15-.25.38,0,.72.06,1.02.19.3.13.53.31.71.55.17.24.26.54.26.89,0,.44-.13.86-.4,1.26-.27.4-.62.79-1.08,1.18s-.96.76-1.52,1.14h3.11v.85h-4.4Z"/>
      <path class="cls-5" d="M34.19,117.11v-1.39h-2.93v-.84l2.97-3.73h.95v3.67h.99v.9h-.99v1.39h-.99ZM32.33,114.83h1.86v-2.37l-1.86,2.37Z"/>
      <path class="cls-5" d="M39.2,117.22c-.54,0-.99-.13-1.35-.38-.36-.25-.62-.61-.8-1.07-.18-.46-.26-1.01-.26-1.64s.09-1.18.26-1.64c.18-.46.44-.82.8-1.07.36-.25.81-.38,1.35-.38s.99.13,1.35.38c.36.25.62.61.8,1.07.18.46.26,1.01.26,1.64s-.09,1.18-.26,1.64c-.18.46-.44.82-.8,1.07-.36.25-.81.38-1.35.38ZM39.2,116.45c.42,0,.76-.19,1.01-.57.25-.38.38-.97.38-1.75s-.13-1.36-.38-1.74c-.25-.38-.59-.57-1.01-.57s-.76.19-1.01.57c-.25.38-.38.96-.38,1.74s.13,1.37.38,1.75c.25.38.59.57,1.01.57Z"/>
      <path class="cls-5" d="M43.97,117.11l-2.03-5.96h1.14l1.54,4.83,1.53-4.83h1.08l-2.02,5.96h-1.25Z"/>
      <path class="cls-5" d="M46.9,117.11l2.22-5.96h1.19l2.24,5.96h-1.13l-.43-1.2h-2.58l-.42,1.2h-1.09ZM48.73,115.03h1.96l-.99-2.79-.97,2.79Z"/>
      <path class="cls-5" d="M57.22,115.09h1.03c-.08.44-.25.82-.5,1.14s-.56.56-.93.73-.79.25-1.25.25c-.59,0-1.09-.13-1.51-.39-.42-.26-.74-.62-.97-1.08-.22-.47-.33-1.01-.33-1.63s.12-1.16.35-1.62c.24-.46.57-.82,1-1.07s.94-.38,1.52-.38c.44,0,.85.09,1.21.26.36.17.66.42.9.74.24.32.4.7.48,1.13h-1.04c-.09-.38-.27-.69-.55-.91-.28-.22-.63-.34-1.05-.34-.32,0-.62.08-.88.25-.26.17-.47.42-.62.74-.15.33-.23.73-.23,1.2s.08.87.23,1.2c.15.33.36.58.62.76.27.17.57.26.9.26.41,0,.76-.11,1.05-.32.29-.21.48-.52.57-.93Z"/>
      <path class="cls-5" d="M26.34,126.97v-.81c.64-.47,1.21-.9,1.7-1.31s.88-.79,1.16-1.16c.28-.36.42-.72.42-1.06,0-.3-.09-.53-.28-.7-.18-.17-.43-.25-.74-.25-.19,0-.38.04-.55.12-.18.08-.32.21-.44.39s-.17.44-.18.77h-.99c0-.43.09-.79.28-1.1.18-.3.44-.54.77-.7.33-.16.71-.25,1.15-.25.38,0,.72.06,1.02.19.3.13.53.31.71.55.17.24.26.54.26.89,0,.44-.13.86-.4,1.26-.27.4-.62.79-1.08,1.18s-.96.76-1.52,1.14h3.11v.85h-4.4Z"/>
      <path class="cls-5" d="M33,126.97h-1.11c.04-1.08.29-2.05.75-2.91.46-.86,1.05-1.59,1.78-2.19h-3.17v-.85h4.25v.85c-.77.64-1.37,1.36-1.78,2.19-.42.82-.65,1.79-.71,2.92Z"/>
      <path class="cls-5" d="M37.57,126.97h-1.11c.04-1.08.29-2.05.75-2.91.46-.86,1.05-1.59,1.78-2.19h-3.17v-.85h4.25v.85c-.77.64-1.37,1.36-1.78,2.19-.42.82-.65,1.79-.71,2.92Z"/>
      <path class="cls-5" d="M42.33,126.97l-2.03-5.96h1.14l1.54,4.83,1.53-4.83h1.08l-2.02,5.96h-1.25Z"/>
      <path class="cls-5" d="M45.27,126.97l2.22-5.96h1.19l2.24,5.96h-1.13l-.43-1.2h-2.58l-.42,1.2h-1.09ZM47.09,124.89h1.96l-.99-2.79-.97,2.79Z"/>
      <path class="cls-5" d="M55.58,124.95h1.03c-.08.44-.25.82-.5,1.14s-.56.56-.93.73-.79.25-1.25.25c-.59,0-1.09-.13-1.51-.39-.42-.26-.74-.62-.97-1.08-.22-.47-.33-1.01-.33-1.63s.12-1.16.35-1.62c.24-.46.57-.82,1-1.07s.94-.38,1.52-.38c.44,0,.85.09,1.21.26.36.17.66.42.9.74.24.32.4.7.48,1.13h-1.04c-.09-.38-.27-.69-.55-.91-.28-.22-.63-.34-1.05-.34-.32,0-.62.08-.88.25-.26.17-.47.42-.62.74-.15.33-.23.73-.23,1.2s.08.87.23,1.2c.15.33.36.58.62.76.27.17.57.26.9.26.41,0,.76-.11,1.05-.32.29-.21.48-.52.57-.93Z"/>
    </g>
    <g>
      <path class="cls-5" d="M89.79,125.7c-.54,0-.99-.13-1.35-.38-.36-.25-.62-.61-.8-1.07-.18-.46-.26-1.01-.26-1.64s.09-1.18.26-1.64c.18-.46.44-.82.8-1.07.36-.25.81-.38,1.35-.38s.99.13,1.35.38c.36.25.62.61.8,1.07.18.46.26,1.01.26,1.64s-.09,1.18-.26,1.64c-.18.46-.44.82-.8,1.07-.36.25-.81.38-1.35.38ZM89.79,124.94c.42,0,.76-.19,1.01-.57.25-.38.38-.97.38-1.75s-.13-1.36-.38-1.74c-.25-.38-.59-.57-1.01-.57s-.76.19-1.01.57c-.25.38-.38.96-.38,1.74s.13,1.37.38,1.75c.25.38.59.57,1.01.57Z"/>
      <path class="cls-5" d="M93.01,123.8v-.9h2.8v.9h-2.8Z"/>
      <path class="cls-5" d="M97.33,125.6v-4.41h-1.37v-.69c.3-.01.56-.04.76-.09.21-.05.38-.14.52-.26s.26-.29.36-.5h.71v5.96h-.98Z"/>
      <path class="cls-5" d="M101.78,125.7c-.54,0-.99-.13-1.35-.38-.36-.25-.62-.61-.8-1.07-.18-.46-.26-1.01-.26-1.64s.09-1.18.26-1.64c.18-.46.44-.82.8-1.07.36-.25.81-.38,1.35-.38s.99.13,1.35.38c.36.25.62.61.8,1.07.18.46.26,1.01.26,1.64s-.09,1.18-.26,1.64c-.18.46-.44.82-.8,1.07-.36.25-.81.38-1.35.38ZM101.78,124.94c.42,0,.76-.19,1.01-.57.25-.38.38-.97.38-1.75s-.13-1.36-.38-1.74c-.25-.38-.59-.57-1.01-.57s-.76.19-1.01.57c-.25.38-.38.96-.38,1.74s.13,1.37.38,1.75c.25.38.59.57,1.01.57Z"/>
      <path class="cls-5" d="M106.54,125.6l-2.03-5.96h1.14l1.54,4.83,1.53-4.83h1.08l-2.02,5.96h-1.25Z"/>
      <path class="cls-5" d="M113.95,121.95l.74.16c.24.05.47.11.71.19s.46.18.67.3c.21.13.37.29.5.49.13.2.19.45.19.76s-.07.57-.2.8c-.13.23-.31.42-.53.58-.22.16-.47.27-.76.35-.28.08-.57.12-.88.12-.73,0-1.32-.18-1.76-.53-.44-.36-.71-.84-.81-1.46h1.04c.08.37.25.65.51.84.27.19.61.28,1.03.28.36,0,.66-.08.9-.23.24-.15.35-.36.35-.63s-.11-.47-.34-.61c-.23-.14-.52-.25-.88-.32l-.74-.15c-.29-.07-.57-.16-.83-.29s-.47-.3-.64-.52c-.16-.22-.25-.5-.25-.83,0-.3.07-.55.2-.77s.31-.4.53-.54c.22-.14.47-.24.73-.31.27-.07.53-.1.8-.1.37,0,.72.06,1.05.17.33.11.61.3.84.55.23.25.39.58.46.99h-1.04c-.09-.3-.26-.52-.52-.65s-.54-.19-.84-.19c-.16,0-.33.02-.51.07-.18.05-.32.13-.45.25-.12.12-.19.27-.19.46,0,.21.08.38.24.5.16.12.37.21.62.27Z"/>
      <path class="cls-5" d="M117.64,120.61v-.97h.98v.97h-.98ZM117.64,125.6v-4.42h.98v4.42h-.98Z"/>
      <path class="cls-5" d="M119.8,125.6v-4.42h.98v.63c.12-.19.29-.36.52-.5.23-.14.53-.21.89-.21.55,0,.93.16,1.15.48.22.32.32.75.32,1.28v2.75h-.98v-2.47c0-.22-.02-.43-.05-.62-.04-.19-.11-.34-.23-.45s-.31-.17-.58-.17c-.33,0-.59.11-.77.34s-.27.57-.27,1.02v2.35h-.98Z"/>
      <path class="cls-5" d="M124.79,125.6v-5.96h.98v3.41l1.67-1.87h1.18l-1.64,1.78,1.83,2.64h-1.17l-1.33-1.92-.54.58v1.34h-.98Z"/>
    </g>
    <circle class="cls-5" cx="68.78" cy="105.59" r="4.98"/>
    <circle class="cls-5" cx="78.57" cy="122.98" r="4.98"/>
    <g>
      <path class="cls-5" d="M325.61,135.65l2.22-5.96h1.19l2.24,5.96h-1.13l-.43-1.2h-2.58l-.42,1.2h-1.09ZM327.43,133.57h1.96l-.99-2.79-.97,2.79Z"/>
      <path class="cls-5" d="M334.84,135.65v-.64c-.14.24-.33.42-.58.55-.25.13-.53.2-.84.2-.35,0-.67-.09-.96-.28-.29-.18-.52-.45-.7-.79-.17-.35-.26-.76-.26-1.24s.09-.89.26-1.24c.17-.34.4-.61.7-.79.29-.18.61-.28.96-.28.31,0,.59.06.84.19.25.13.44.31.58.55v-2.19h.98v5.96h-.98ZM333.71,134.96c.21,0,.4-.05.58-.16s.32-.27.43-.49c.11-.22.16-.51.16-.87s-.05-.65-.16-.87c-.11-.22-.25-.38-.43-.48-.18-.1-.37-.15-.58-.15-.34,0-.62.13-.83.39-.22.26-.33.63-.33,1.11s.11.85.33,1.12c.22.26.49.39.83.39Z"/>
      <path class="cls-5" d="M340.74,135.65h-.99c-.03-.21-.05-.41-.05-.58-.3.46-.8.69-1.5.69-.27,0-.53-.05-.76-.15-.23-.1-.42-.25-.55-.44-.14-.19-.21-.42-.21-.69,0-.36.12-.64.37-.84.25-.21.6-.36,1.04-.47.45-.11.97-.19,1.56-.25v-.1c0-.35-.09-.59-.26-.73-.17-.14-.39-.21-.65-.21s-.48.07-.65.2c-.16.13-.25.32-.28.57h-.96c.03-.31.12-.57.28-.8.16-.23.38-.4.66-.53s.59-.19.95-.19c.62,0,1.08.15,1.4.44.31.29.47.76.47,1.4v.99c0,.35.01.66.03.95.02.29.05.54.09.74ZM339.7,133.8v-.21c-.4.04-.75.09-1.04.15s-.52.14-.69.25c-.16.11-.24.25-.24.44s.07.34.21.45.32.17.55.17c.21,0,.41-.04.6-.11.18-.07.33-.2.44-.38.11-.18.17-.43.17-.75Z"/>
      <path class="cls-5" d="M341.76,137.09v-5.86h.98v.66c.14-.24.33-.42.58-.55s.52-.19.83-.19c.36,0,.68.09.97.28.29.18.52.45.69.79.17.34.26.75.26,1.24s-.09.9-.26,1.24-.4.61-.69.79c-.29.18-.61.28-.97.28-.31,0-.59-.07-.83-.2s-.44-.31-.58-.55v2.08h-.98ZM343.87,134.96c.34,0,.62-.13.83-.39s.32-.64.32-1.12-.11-.85-.32-1.11-.5-.39-.83-.39c-.2,0-.39.05-.57.15-.18.1-.32.26-.43.48-.11.22-.17.51-.17.87s.06.65.17.87c.11.22.25.38.43.49.18.1.37.16.57.16Z"/>
      <path class="cls-5" d="M349.06,135.65h-.67c-.31,0-.55-.03-.73-.09-.17-.06-.29-.17-.37-.34-.07-.17-.11-.41-.11-.73v-2.52h-.7v-.74h.7v-1.15h.98v1.15h.89v.74h-.89v2.38c0,.22.03.37.09.44.06.07.2.11.42.11h.38v.76Z"/>
      <path class="cls-5" d="M356.04,133.63h1.03c-.08.44-.25.82-.5,1.14s-.56.56-.93.73c-.37.17-.79.25-1.25.25-.59,0-1.09-.13-1.51-.39-.42-.26-.74-.62-.97-1.08s-.33-1.01-.33-1.63.12-1.16.35-1.62c.24-.46.57-.82,1-1.07.43-.25.94-.38,1.52-.38.44,0,.85.09,1.21.26.36.17.66.42.9.74s.4.7.48,1.13h-1.04c-.09-.38-.27-.69-.55-.91-.28-.22-.63-.34-1.05-.34-.32,0-.62.08-.88.25-.26.17-.47.42-.62.74-.15.33-.23.73-.23,1.2s.08.87.23,1.2c.15.33.36.58.62.76.27.17.57.26.9.26.41,0,.76-.11,1.05-.32.29-.21.48-.52.57-.93Z"/>
      <path class="cls-5" d="M359.87,135.76c-.28,0-.55-.05-.81-.14s-.5-.23-.71-.42c-.21-.19-.38-.43-.51-.72-.13-.29-.19-.64-.19-1.04s.06-.75.19-1.04.29-.53.51-.72.45-.33.71-.42c.26-.09.53-.14.81-.14s.54.04.81.14c.26.09.5.23.71.42s.38.43.51.72.19.64.19,1.04-.06.75-.19,1.04c-.13.29-.29.53-.51.72-.21.19-.45.33-.71.42s-.53.14-.81.14ZM359.87,134.95c.21,0,.4-.05.58-.15s.33-.26.44-.48c.11-.22.16-.51.16-.88s-.06-.65-.17-.87-.26-.38-.44-.48c-.18-.1-.37-.15-.58-.15s-.4.05-.58.15-.33.26-.44.48-.17.51-.17.87.05.65.16.88c.11.22.26.38.44.48.18.1.38.15.59.15Z"/>
      <path class="cls-5" d="M364,135.65l-1.65-4.42h1.07l1.1,3.28,1.08-3.28h1.01l-1.64,4.42h-.98Z"/>
      <path class="cls-5" d="M370.28,134.33h.95c-.14.43-.39.78-.76,1.04s-.8.39-1.31.39c-.47,0-.88-.1-1.22-.3s-.6-.47-.78-.82c-.18-.35-.27-.75-.27-1.21s.1-.87.3-1.22.47-.61.81-.8c.34-.19.71-.28,1.12-.28.44,0,.83.1,1.15.31.32.21.57.49.74.85.17.36.26.76.26,1.21v.1s0,.07,0,.11h-3.37c.03.3.11.54.24.72.13.18.28.31.46.39.18.08.36.12.55.12.3,0,.54-.06.72-.17.18-.12.31-.27.4-.45ZM369.13,131.93c-.18,0-.35.03-.51.09-.17.06-.31.17-.44.33s-.21.38-.25.66h2.35c-.02-.32-.14-.58-.34-.79-.21-.2-.47-.3-.8-.3Z"/>
      <path class="cls-5" d="M286.58,145.52v-5.96h1.72l1.37,4.7,1.39-4.7h1.7v5.96h-1.04v-5.04l-1.53,5.04h-1.05l-1.53-5.03v5.03h-1.04Z"/>
      <path class="cls-5" d="M297.76,145.52h-.99c-.03-.21-.05-.41-.05-.58-.3.46-.8.69-1.5.69-.27,0-.53-.05-.76-.15-.23-.1-.42-.25-.55-.44s-.21-.42-.21-.69c0-.36.12-.64.37-.84.25-.21.6-.36,1.04-.47.45-.11.97-.19,1.56-.25v-.1c0-.35-.09-.59-.26-.73-.17-.14-.39-.21-.65-.21s-.48.07-.65.2c-.16.13-.25.32-.28.57h-.96c.03-.31.12-.57.28-.8.16-.23.38-.4.66-.53.28-.13.59-.19.95-.19.62,0,1.08.15,1.4.44.31.29.47.76.47,1.4v.99c0,.35.01.66.03.95.02.29.05.54.09.74ZM296.72,143.67v-.21c-.4.04-.75.09-1.04.15s-.52.14-.69.25c-.16.11-.24.25-.24.44s.07.34.21.45.32.17.55.17c.21,0,.41-.04.6-.11.18-.07.33-.2.44-.38.11-.18.17-.43.17-.75Z"/>
      <path class="cls-5" d="M298.21,145.52l1.65-2.25-1.56-2.17h1.13l1,1.4,1.02-1.4h1.06l-1.55,2.12,1.67,2.3h-1.13l-1.11-1.53-1.1,1.53h-1.08Z"/>
      <path class="cls-5" d="M303.22,140.53v-.97h.98v.97h-.98ZM303.22,145.52v-4.42h.98v4.42h-.98Z"/>
      <path class="cls-5" d="M305.38,145.52v-4.42h.98v.63c.11-.19.28-.36.5-.5.22-.14.5-.21.83-.21s.62.07.83.2.36.32.46.56c.18-.26.39-.45.65-.58.26-.13.54-.19.85-.19.54,0,.91.16,1.13.48.22.32.32.75.32,1.28v2.75h-.98v-2.47c0-.22-.02-.43-.05-.62-.04-.19-.11-.34-.23-.45-.12-.11-.31-.17-.56-.17-.3,0-.54.11-.71.34s-.25.56-.25,1.01v2.36h-.98v-2.47c0-.22-.02-.43-.05-.62-.04-.19-.11-.34-.23-.45-.12-.11-.31-.17-.56-.17-.3,0-.54.11-.71.34s-.25.56-.25,1.01v2.36h-.98Z"/>
      <path class="cls-5" d="M315.83,145.52v-.62c-.13.21-.29.39-.5.53-.21.14-.49.21-.85.21-.54,0-.92-.16-1.14-.48-.22-.32-.33-.75-.33-1.29v-2.76h.98v2.5c0,.22.02.42.05.61.04.19.11.34.23.45.12.11.3.17.56.17.66,0,.99-.44.99-1.33v-2.39h.99v4.42h-.99Z"/>
      <path class="cls-5" d="M317.99,145.52v-4.42h.98v.63c.11-.19.28-.36.5-.5.22-.14.5-.21.83-.21s.62.07.83.2.36.32.46.56c.18-.26.39-.45.65-.58.26-.13.54-.19.85-.19.54,0,.91.16,1.13.48.22.32.32.75.32,1.28v2.75h-.98v-2.47c0-.22-.02-.43-.05-.62-.04-.19-.11-.34-.23-.45-.12-.11-.31-.17-.56-.17-.3,0-.54.11-.71.34s-.25.56-.25,1.01v2.36h-.98v-2.47c0-.22-.02-.43-.05-.62-.04-.19-.11-.34-.23-.45-.12-.11-.31-.17-.56-.17-.3,0-.54.11-.71.34s-.25.56-.25,1.01v2.36h-.98Z"/>
      <path class="cls-5" d="M329.5,145.62c-.28,0-.55-.05-.81-.14s-.5-.23-.71-.42c-.21-.19-.38-.43-.51-.72-.13-.29-.19-.64-.19-1.04s.06-.75.19-1.04.29-.53.51-.72.45-.33.71-.42c.26-.09.53-.14.81-.14s.54.04.81.14c.26.09.5.23.71.42s.38.43.51.72.19.64.19,1.04-.06.75-.19,1.04c-.13.29-.29.53-.51.72-.21.19-.45.33-.71.42s-.53.14-.81.14ZM329.5,144.82c.21,0,.4-.05.58-.15s.33-.26.44-.48c.11-.22.16-.51.16-.88s-.06-.65-.17-.87-.26-.38-.44-.48c-.18-.1-.37-.15-.58-.15s-.4.05-.58.15-.33.26-.44.48-.17.51-.17.87.05.65.16.88c.11.22.26.38.44.48.18.1.38.15.59.15Z"/>
      <path class="cls-5" d="M332.8,145.52v-3.68h-.62v-.74h.62v-.3c0-.32.04-.57.12-.75.08-.18.21-.3.42-.37s.48-.11.83-.11h.5v.75h-.38c-.21,0-.35.03-.42.08-.06.05-.09.19-.09.39v.31h.89v.74h-.89v3.68h-.98Z"/>
      <path class="cls-5" d="M339.24,145.62c-.43,0-.81-.07-1.16-.21-.35-.14-.62-.35-.82-.62-.2-.27-.3-.6-.3-.98,0-.27.07-.55.2-.82.13-.27.38-.49.73-.66-.26-.15-.45-.35-.57-.58-.12-.23-.18-.48-.18-.75,0-.3.08-.56.25-.8.17-.24.41-.42.73-.55s.69-.2,1.11-.2.8.07,1.11.2.55.32.72.55c.17.24.25.5.25.8,0,.27-.06.52-.18.75-.12.23-.31.42-.57.58.36.17.6.39.73.66.13.27.2.54.2.82,0,.38-.1.71-.3.98-.2.27-.47.48-.81.62s-.73.21-1.15.21ZM339.24,144.86c.39,0,.69-.1.92-.3.22-.2.33-.46.33-.76s-.11-.57-.33-.77-.53-.3-.92-.3-.7.1-.92.3-.34.46-.34.77.11.56.34.76c.22.2.53.3.92.3ZM339.24,142.04c.34,0,.62-.09.81-.26s.3-.4.3-.67-.1-.48-.3-.64c-.2-.16-.47-.25-.81-.25s-.63.08-.83.25c-.2.16-.3.38-.3.64s.1.49.3.67c.2.18.47.26.83.26Z"/>
      <path class="cls-5" d="M344.69,145.62c-.54,0-.99-.13-1.35-.38-.36-.25-.62-.61-.8-1.07-.17-.46-.26-1.01-.26-1.64s.09-1.18.26-1.64c.18-.46.44-.82.8-1.07.36-.25.81-.38,1.35-.38s.99.13,1.35.38c.36.25.62.61.8,1.07.17.46.26,1.01.26,1.64s-.09,1.18-.26,1.64c-.18.46-.44.82-.8,1.07-.36.25-.8.38-1.35.38ZM344.69,144.86c.42,0,.76-.19,1.01-.57.25-.38.38-.97.38-1.75s-.13-1.36-.38-1.74-.59-.57-1.01-.57-.76.19-1.01.57-.38.96-.38,1.74.13,1.37.38,1.75c.25.38.59.57,1.01.57Z"/>
      <path class="cls-5" d="M347.93,141.91l.54-1.21h-.49v-1.14h1.17v1.22l-.62,1.13h-.6Z"/>
      <path class="cls-5" d="M353.56,146.95h-.87c-.17-.24-.34-.55-.52-.92-.18-.37-.33-.79-.45-1.26s-.18-.98-.18-1.52.06-1.06.18-1.53.27-.89.45-1.26c.18-.37.35-.67.52-.91h.87c-.28.45-.53.99-.72,1.63s-.3,1.33-.3,2.07.1,1.43.3,2.06.44,1.18.72,1.64Z"/>
      <path class="cls-5" d="M354.01,145.52v-.81c.64-.47,1.21-.9,1.7-1.31s.88-.79,1.16-1.16c.28-.36.42-.72.42-1.06,0-.3-.09-.53-.28-.7-.18-.17-.43-.25-.74-.25-.19,0-.38.04-.55.12-.18.08-.32.21-.44.39s-.17.44-.18.77h-.99c0-.43.09-.79.28-1.1s.44-.54.77-.7c.33-.16.71-.25,1.15-.25.38,0,.72.06,1.02.19.3.13.53.31.71.55s.26.54.26.89c0,.44-.13.86-.4,1.26-.27.4-.62.79-1.08,1.18s-.96.76-1.52,1.14h3.11v.85h-4.4Z"/>
      <path class="cls-5" d="M361.86,145.52v-1.39h-2.93v-.84l2.97-3.73h.95v3.67h.99v.9h-.99v1.39h-.99ZM360,143.23h1.86v-2.37l-1.86,2.37Z"/>
      <path class="cls-5" d="M364.72,145.52v-5.96h1.72l1.37,4.7,1.39-4.7h1.7v5.96h-1.04v-5.04l-1.53,5.04h-1.05l-1.53-5.03v5.03h-1.04Z"/>
      <path class="cls-5" d="M372.63,146.95h-.87c.29-.46.53-1,.73-1.64s.3-1.32.3-2.06-.1-1.44-.3-2.07-.44-1.18-.73-1.63h.87c.17.24.34.54.52.91.18.37.33.79.45,1.26.12.47.18.98.18,1.53s-.06,1.05-.18,1.52c-.12.47-.27.89-.45,1.26-.18.37-.35.68-.52.92Z"/>
      <path class="cls-5" d="M376.61,140.53v-.97h.98v.97h-.98ZM376.61,145.52v-4.42h.98v4.42h-.98Z"/>
      <path class="cls-5" d="M378.77,145.52v-4.42h.98v.63c.11-.19.29-.36.52-.5.23-.14.53-.21.89-.21.55,0,.93.16,1.15.48s.32.75.32,1.28v2.75h-.98v-2.47c0-.22-.02-.43-.05-.62-.04-.19-.11-.34-.23-.45-.12-.11-.31-.17-.58-.17-.33,0-.59.11-.77.34s-.27.57-.27,1.02v2.35h-.98Z"/>
      <path class="cls-5" d="M387,142.76l.7.13c.31.06.58.13.81.23s.41.24.54.41.19.39.19.67c0,.31-.08.57-.25.78-.17.21-.4.37-.69.48-.29.11-.62.16-.99.16s-.72-.07-1.01-.2c-.29-.13-.51-.32-.68-.55-.17-.23-.27-.49-.31-.79h.97c.12.52.46.77,1.04.77.27,0,.49-.05.68-.15s.28-.24.28-.41-.08-.31-.23-.4c-.15-.09-.35-.16-.6-.21l-.71-.13c-.23-.04-.45-.11-.65-.21-.2-.1-.36-.23-.49-.39-.13-.17-.19-.38-.19-.64,0-.28.08-.52.25-.72s.4-.34.68-.45.59-.16.93-.16c.49,0,.9.12,1.25.36.34.24.55.58.62,1.03h-.96c-.06-.22-.17-.38-.35-.48-.18-.09-.39-.14-.63-.14-.22,0-.42.04-.59.12-.17.08-.26.21-.26.39,0,.14.05.24.16.32.11.07.26.13.46.17Z"/>
      <path class="cls-5" d="M393.21,144.19h.95c-.14.43-.39.78-.76,1.04s-.8.39-1.31.39c-.47,0-.88-.1-1.22-.3s-.6-.47-.78-.82c-.18-.35-.27-.75-.27-1.21s.1-.87.3-1.22.47-.61.81-.8c.34-.19.71-.28,1.12-.28.44,0,.83.1,1.15.31.32.21.57.49.74.85.17.36.26.76.26,1.21v.1s0,.07,0,.11h-3.37c.03.3.11.54.24.72.13.18.28.31.46.39.18.08.36.12.55.12.3,0,.54-.06.72-.17.18-.12.31-.27.4-.45ZM392.06,141.79c-.18,0-.35.03-.51.09-.17.06-.31.17-.44.33s-.21.38-.25.66h2.35c-.02-.32-.14-.58-.34-.79-.21-.2-.47-.3-.8-.3Z"/>
      <path class="cls-5" d="M395.11,145.52v-4.42h.95v.8c.11-.26.27-.46.47-.6.21-.14.46-.22.76-.22h.1s.07,0,.11,0v.99c-.15-.02-.28-.03-.4-.03-.33,0-.59.09-.76.27-.17.18-.26.49-.26.93v2.28h-.98Z"/>
      <path class="cls-5" d="M398.28,140.53v-.97h.98v.97h-.98ZM398.28,145.52v-4.42h.98v4.42h-.98Z"/>
      <path class="cls-5" d="M403.54,144.19h.95c-.14.43-.39.78-.76,1.04s-.8.39-1.31.39c-.47,0-.88-.1-1.22-.3s-.6-.47-.78-.82c-.18-.35-.27-.75-.27-1.21s.1-.87.3-1.22.47-.61.81-.8c.34-.19.71-.28,1.12-.28.44,0,.83.1,1.15.31.32.21.57.49.74.85.17.36.26.76.26,1.21v.1s0,.07,0,.11h-3.37c.03.3.11.54.24.72.13.18.28.31.46.39.18.08.36.12.55.12.3,0,.54-.06.72-.17.18-.12.31-.27.4-.45ZM402.39,141.79c-.18,0-.35.03-.51.09-.17.06-.31.17-.44.33s-.21.38-.25.66h2.35c-.02-.32-.14-.58-.34-.79-.21-.2-.47-.3-.8-.3Z"/>
      <path class="cls-5" d="M406.8,142.76l.7.13c.31.06.58.13.81.23s.41.24.54.41.19.39.19.67c0,.31-.08.57-.25.78-.17.21-.4.37-.69.48-.29.11-.62.16-.99.16s-.72-.07-1.01-.2c-.29-.13-.51-.32-.68-.55-.17-.23-.27-.49-.31-.79h.97c.12.52.46.77,1.04.77.27,0,.49-.05.68-.15s.28-.24.28-.41-.08-.31-.23-.4c-.15-.09-.35-.16-.6-.21l-.71-.13c-.23-.04-.45-.11-.65-.21-.2-.1-.36-.23-.49-.39-.13-.17-.19-.38-.19-.64,0-.28.08-.52.25-.72s.4-.34.68-.45.59-.16.93-.16c.49,0,.9.12,1.25.36.34.24.55.58.62,1.03h-.96c-.06-.22-.17-.38-.35-.48-.18-.09-.39-.14-.63-.14-.22,0-.42.04-.59.12-.17.08-.26.21-.26.39,0,.14.05.24.16.32.11.07.26.13.46.17Z"/>
    </g>
    <rect class="cls-1" width="548.52" height="341.38" rx="11.05" ry="11.05"/>
    <image width="842" height="98" transform="translate(181.22 151.28) scale(.39)" xlink:href="../../../../../../../../Desktop/Screenshot 2025-12-10 at 4.24.40 PM.png"/>
    <g>
      <path class="cls-5" d="M73.47,192.61l2.22-5.96h1.19l2.24,5.96h-1.13l-.43-1.2h-2.58l-.42,1.2h-1.09ZM75.3,190.53h1.96l-.99-2.79-.97,2.79Z"/>
      <path class="cls-5" d="M82.7,192.61v-.64c-.14.24-.33.42-.58.55s-.53.2-.84.2c-.35,0-.67-.09-.96-.28s-.52-.45-.69-.79c-.17-.35-.26-.76-.26-1.24s.09-.89.26-1.24c.17-.34.4-.61.69-.79s.61-.28.96-.28c.31,0,.59.06.84.19s.44.31.58.55v-2.19h.98v5.96h-.98ZM81.58,191.92c.21,0,.4-.05.58-.16s.32-.27.43-.49c.11-.22.16-.51.16-.87s-.05-.65-.16-.87c-.11-.22-.25-.38-.43-.48-.18-.1-.37-.15-.58-.15-.34,0-.62.13-.83.39s-.32.63-.32,1.11.11.85.32,1.12.49.39.83.39Z"/>
      <path class="cls-5" d="M88.61,192.61h-.99c-.03-.21-.05-.41-.05-.58-.3.46-.8.69-1.5.69-.27,0-.53-.05-.76-.15-.23-.1-.42-.25-.55-.44-.14-.19-.21-.42-.21-.69,0-.36.12-.64.37-.84.25-.21.6-.36,1.04-.47.45-.11.97-.19,1.56-.25v-.1c0-.35-.09-.59-.26-.73-.17-.14-.39-.21-.65-.21s-.48.07-.65.2-.25.32-.28.57h-.96c.03-.31.12-.57.28-.8s.38-.4.66-.53.59-.19.95-.19c.62,0,1.08.15,1.4.44.31.29.47.76.47,1.4v.99c0,.35.01.66.03.95.02.29.05.54.09.74ZM87.57,190.76v-.21c-.4.04-.75.09-1.04.15s-.52.14-.69.25-.24.25-.24.44.07.34.21.45c.14.11.32.17.56.17.21,0,.41-.04.6-.11.18-.07.33-.2.44-.38.11-.18.17-.43.17-.75Z"/>
      <path class="cls-5" d="M89.63,194.05v-5.86h.98v.66c.14-.24.34-.42.58-.55.24-.13.52-.19.83-.19.36,0,.68.09.97.28.29.18.52.45.69.79.17.34.26.75.26,1.24s-.09.9-.26,1.24c-.17.35-.4.61-.69.79-.29.18-.61.28-.97.28-.31,0-.59-.07-.83-.2-.24-.13-.44-.31-.58-.55v2.08h-.98ZM91.74,191.92c.34,0,.62-.13.83-.39.22-.26.32-.64.32-1.12s-.11-.85-.32-1.11c-.22-.26-.49-.39-.83-.39-.2,0-.39.05-.57.15-.18.1-.32.26-.43.48-.11.22-.16.51-.16.87s.05.65.16.87c.11.22.25.38.43.49.18.1.37.16.57.16Z"/>
      <path class="cls-5" d="M96.93,192.61h-.67c-.31,0-.55-.03-.73-.09-.17-.06-.29-.17-.37-.34-.07-.17-.11-.41-.11-.73v-2.52h-.7v-.74h.7v-1.15h.98v1.15h.89v.74h-.89v2.38c0,.22.03.37.09.44.06.07.2.11.42.11h.38v.76Z"/>
      <path class="cls-5" d="M103.91,190.59h1.03c-.08.44-.25.82-.5,1.14s-.56.56-.93.73-.79.25-1.25.25c-.59,0-1.09-.13-1.51-.39-.42-.26-.74-.62-.97-1.08-.22-.47-.33-1.01-.33-1.63s.12-1.16.35-1.62c.24-.46.57-.82,1-1.07s.94-.38,1.52-.38c.44,0,.85.09,1.21.26.36.17.66.42.9.74.24.32.4.7.48,1.13h-1.04c-.09-.38-.27-.69-.55-.91-.28-.22-.63-.34-1.05-.34-.32,0-.62.08-.88.25-.26.17-.47.42-.62.74-.15.33-.23.73-.23,1.2s.08.87.23,1.2c.15.33.36.58.62.76.27.17.57.26.9.26.41,0,.76-.11,1.05-.32.29-.21.48-.52.57-.93Z"/>
      <path class="cls-5" d="M107.74,192.72c-.28,0-.55-.05-.81-.14s-.5-.23-.71-.42c-.21-.19-.38-.43-.51-.72-.13-.29-.19-.64-.19-1.04s.06-.75.19-1.04.29-.53.51-.72.45-.33.71-.42c.26-.09.53-.14.81-.14s.54.04.81.14c.26.09.5.23.71.42s.38.43.51.72c.13.29.19.64.19,1.04s-.06.75-.19,1.04c-.13.29-.29.53-.51.72-.21.19-.45.33-.71.42-.26.09-.53.14-.81.14ZM107.74,191.91c.21,0,.4-.05.58-.15.18-.1.33-.26.44-.48.11-.22.16-.51.16-.88s-.06-.65-.17-.87c-.11-.22-.26-.38-.44-.48-.18-.1-.37-.15-.58-.15s-.4.05-.58.15c-.18.1-.33.26-.44.48s-.17.51-.17.87.05.65.16.88c.11.22.26.38.44.48s.38.15.59.15Z"/>
      <path class="cls-5" d="M111.87,192.61l-1.65-4.42h1.07l1.1,3.28,1.08-3.28h1.01l-1.64,4.42h-.98Z"/>
      <path class="cls-5" d="M118.15,191.29h.95c-.14.43-.39.78-.76,1.04s-.8.39-1.31.39c-.47,0-.88-.1-1.22-.3s-.6-.47-.78-.82c-.18-.35-.27-.75-.27-1.21s.1-.87.3-1.22.47-.61.81-.8c.34-.19.71-.28,1.12-.28.44,0,.83.1,1.15.31.32.21.57.49.74.85.18.36.26.76.26,1.21v.1s0,.07,0,.11h-3.37c.03.3.11.54.24.72.13.18.28.31.46.39.18.08.36.12.55.12.3,0,.54-.06.72-.17.18-.12.31-.27.4-.45ZM116.99,188.89c-.18,0-.35.03-.51.09-.17.06-.31.17-.44.33s-.21.38-.25.66h2.35c-.02-.32-.14-.58-.34-.79s-.47-.3-.8-.3Z"/>
      <path class="cls-5" d="M121.99,192.61v-5.96h4.07v.92h-3.02v1.51h2.84v.92h-2.84v2.61h-1.05Z"/>
      <path class="cls-5" d="M129.91,191.29h.95c-.14.43-.39.78-.76,1.04s-.8.39-1.31.39c-.47,0-.88-.1-1.22-.3s-.6-.47-.78-.82c-.18-.35-.27-.75-.27-1.21s.1-.87.3-1.22.47-.61.81-.8c.34-.19.71-.28,1.12-.28.44,0,.83.1,1.15.31.32.21.57.49.74.85.18.36.26.76.26,1.21v.1s0,.07,0,.11h-3.37c.03.3.11.54.24.72.13.18.28.31.46.39.18.08.36.12.55.12.3,0,.54-.06.72-.17.18-.12.31-.27.4-.45ZM128.76,188.89c-.18,0-.35.03-.51.09-.17.06-.31.17-.44.33s-.21.38-.25.66h2.35c-.02-.32-.14-.58-.34-.79s-.47-.3-.8-.3Z"/>
      <path class="cls-5" d="M134.9,191.29h.95c-.14.43-.39.78-.76,1.04s-.8.39-1.31.39c-.47,0-.88-.1-1.22-.3s-.6-.47-.78-.82c-.18-.35-.27-.75-.27-1.21s.1-.87.3-1.22.47-.61.81-.8c.34-.19.71-.28,1.12-.28.44,0,.83.1,1.15.31.32.21.57.49.74.85.18.36.26.76.26,1.21v.1s0,.07,0,.11h-3.37c.03.3.11.54.24.72.13.18.28.31.46.39.18.08.36.12.55.12.3,0,.54-.06.72-.17.18-.12.31-.27.4-.45ZM133.75,188.89c-.18,0-.35.03-.51.09-.17.06-.31.17-.44.33s-.21.38-.25.66h2.35c-.02-.32-.14-.58-.34-.79s-.47-.3-.8-.3Z"/>
      <path class="cls-5" d="M139.86,192.61v-.64c-.14.24-.33.42-.58.55s-.53.2-.84.2c-.35,0-.67-.09-.96-.28s-.52-.45-.69-.79c-.17-.35-.26-.76-.26-1.24s.09-.89.26-1.24c.17-.34.4-.61.69-.79s.61-.28.96-.28c.31,0,.59.06.84.19s.44.31.58.55v-2.19h.98v5.96h-.98ZM138.74,191.92c.21,0,.4-.05.58-.16s.32-.27.43-.49c.11-.22.16-.51.16-.87s-.05-.65-.16-.87c-.11-.22-.25-.38-.43-.48-.18-.1-.37-.15-.58-.15-.34,0-.62.13-.83.39s-.32.63-.32,1.11.11.85.32,1.12.49.39.83.39Z"/>
      <path class="cls-5" d="M148.13,190.59h1.03c-.08.44-.25.82-.5,1.14s-.56.56-.93.73-.79.25-1.25.25c-.59,0-1.09-.13-1.51-.39-.42-.26-.74-.62-.97-1.08-.22-.47-.33-1.01-.33-1.63s.12-1.16.35-1.62c.24-.46.57-.82,1-1.07s.94-.38,1.52-.38c.44,0,.85.09,1.21.26.36.17.66.42.9.74.24.32.4.7.48,1.13h-1.04c-.09-.38-.27-.69-.55-.91-.28-.22-.63-.34-1.05-.34-.32,0-.62.08-.88.25-.26.17-.47.42-.62.74-.15.33-.23.73-.23,1.2s.08.87.23,1.2c.15.33.36.58.62.76.27.17.57.26.9.26.41,0,.76-.11,1.05-.32.29-.21.48-.52.57-.93Z"/>
      <path class="cls-5" d="M153.77,192.61h-.99c-.03-.21-.05-.41-.05-.58-.3.46-.8.69-1.5.69-.27,0-.53-.05-.76-.15-.23-.1-.42-.25-.55-.44-.14-.19-.21-.42-.21-.69,0-.36.12-.64.37-.84.25-.21.6-.36,1.04-.47.45-.11.97-.19,1.56-.25v-.1c0-.35-.09-.59-.26-.73-.17-.14-.39-.21-.65-.21s-.48.07-.65.2-.25.32-.28.57h-.96c.03-.31.12-.57.28-.8s.38-.4.66-.53.59-.19.95-.19c.62,0,1.08.15,1.4.44.31.29.47.76.47,1.4v.99c0,.35.01.66.03.95.02.29.05.54.09.74ZM152.72,190.76v-.21c-.4.04-.75.09-1.04.15s-.52.14-.69.25-.24.25-.24.44.07.34.21.45c.14.11.32.17.56.17.21,0,.41-.04.6-.11.18-.07.33-.2.44-.38.11-.18.17-.43.17-.75Z"/>
      <path class="cls-5" d="M154.79,192.61v-5.96h.98v2.19c.14-.24.34-.42.58-.55.24-.13.52-.19.83-.19.36,0,.68.09.97.28.29.18.52.45.69.79.17.34.26.75.26,1.24s-.09.9-.26,1.24c-.17.35-.4.61-.69.79-.29.18-.61.28-.97.28-.31,0-.59-.07-.83-.2-.24-.13-.44-.31-.58-.55v.64h-.98ZM156.89,191.92c.34,0,.62-.13.83-.39.22-.26.32-.64.32-1.12s-.11-.85-.32-1.11c-.22-.26-.49-.39-.83-.39-.2,0-.39.05-.57.15-.18.1-.32.26-.43.48-.11.22-.16.51-.16.87s.05.65.16.87c.11.22.25.38.43.49.18.1.37.16.57.16Z"/>
      <path class="cls-5" d="M160.01,192.61v-5.96h.98v5.96h-.98Z"/>
      <path class="cls-5" d="M165.27,191.29h.95c-.14.43-.39.78-.76,1.04s-.8.39-1.31.39c-.47,0-.88-.1-1.22-.3s-.6-.47-.78-.82c-.18-.35-.27-.75-.27-1.21s.1-.87.3-1.22.47-.61.81-.8c.34-.19.71-.28,1.12-.28.44,0,.83.1,1.15.31.32.21.57.49.74.85.18.36.26.76.26,1.21v.1s0,.07,0,.11h-3.37c.03.3.11.54.24.72.13.18.28.31.46.39.18.08.36.12.55.12.3,0,.54-.06.72-.17.18-.12.31-.27.4-.45ZM164.12,188.89c-.18,0-.35.03-.51.09-.17.06-.31.17-.44.33s-.21.38-.25.66h2.35c-.02-.32-.14-.58-.34-.79s-.47-.3-.8-.3Z"/>
    </g>
  </g>
</svg>