<?xml version="1.0" encoding="UTF-8"?>
<svg id="Layer_2" data-name="Layer 2" xmlns="http://www.w3.org/2000/svg" viewBox="0 0 548.52 341.38">
  <defs>
    <style>
      .cls-1, .cls-2, .cls-3 {
        fill: none;
      }

      .cls-4 {
        font-size: 10px;
      }

      .cls-4, .cls-5, .cls-6, .cls-7 {
        fill: #231f20;
      }

      .cls-4, .cls-5, .cls-7 {
        font-family: SuisseIntl-Medium, 'Suisse Intl';
        font-weight: 500;
      }

      .cls-8 {
        font-size: 8px;
      }

      .cls-9 {
        fill: #dfe8f4;
      }

      .cls-9, .cls-10 {
        stroke: #d3dceb;
      }

      .cls-9, .cls-10, .cls-2, .cls-3 {
        stroke-miterlimit: 10;
      }

      .cls-7, .cls-11 {
        font-size: 12px;
      }

      .cls-12 {
        letter-spacing: 0em;
      }

      .cls-13 {
        letter-spacing: 0em;
      }

      .cls-14 {
        letter-spacing: 0em;
      }

      .cls-15 {
        letter-spacing: -.06em;
      }

      .cls-16 {
        letter-spacing: -.02em;
      }

      .cls-17 {
        letter-spacing: -.02em;
      }

      .cls-18 {
        letter-spacing: -.03em;
      }

      .cls-19 {
        letter-spacing: -.03em;
      }

      .cls-20 {
        letter-spacing: -.03em;
      }

      .cls-21 {
        letter-spacing: -.02em;
      }

      .cls-22 {
        letter-spacing: -.02em;
      }

      .cls-23 {
        letter-spacing: -.02em;
      }

      .cls-24 {
        letter-spacing: -.02em;
      }

      .cls-25 {
        letter-spacing: -.02em;
      }

      .cls-26 {
        letter-spacing: -.01em;
      }

      .cls-27 {
        letter-spacing: -.01em;
      }

      .cls-28 {
        letter-spacing: -.01em;
      }

      .cls-29 {
        letter-spacing: -.05em;
      }

      .cls-30 {
        letter-spacing: -.04em;
      }

      .cls-31 {
        letter-spacing: -.03em;
      }

      .cls-32 {
        letter-spacing: -.03em;
      }

      .cls-33 {
        letter-spacing: -.03em;
      }

      .cls-34 {
        letter-spacing: -.04em;
      }

      .cls-35 {
        letter-spacing: -.03em;
      }

      .cls-36 {
        letter-spacing: 0em;
      }

      .cls-37 {
        letter-spacing: 0em;
      }

      .cls-38 {
        letter-spacing: 0em;
      }

      .cls-39 {
        letter-spacing: 0em;
      }

      .cls-40 {
        letter-spacing: 0em;
      }

      .cls-10 {
        fill: #f3f5fb;
      }

      .cls-2 {
        stroke: #08ae56;
      }

      .cls-2, .cls-3 {
        stroke-width: 4px;
      }

      .cls-3 {
        stroke: #f58876;
      }
    </style>
  </defs>
  <g id="Layer_1-2" data-name="Layer 1">
    <rect class="cls-10" x="30.15" y="90.71" width="484.85" height="124.24" rx="12" ry="12"/>
    <rect class="cls-9" x="52.44" y="131" width="67.42" height="43.18" rx="12" ry="12"/>
    <rect class="cls-9" x="134.64" y="131" width="67.42" height="43.18" rx="12" ry="12"/>
    <rect class="cls-9" x="259.64" y="131" width="67.42" height="43.18" rx="12" ry="12"/>
    <rect class="cls-9" x="336.91" y="131" width="67.42" height="43.18" rx="12" ry="12"/>
    <rect class="cls-9" x="417.21" y="131" width="67.42" height="43.18" rx="12" ry="12"/>
    <line class="cls-3" x1="88.02" y1="130.38" x2="88.02" y2="69.77"/>
    <line class="cls-3" x1="168.08" y1="130.38" x2="168.08" y2="69.77"/>
    <text class="cls-7" transform="translate(308.53 58.16)"><tspan x="0" y="0">Sh</tspan><tspan class="cls-37" x="15.26" y="0">o</tspan><tspan x="22.56" y="0">wing MLE288</tspan><tspan class="cls-22" x="101.22" y="0">-</tspan><tspan class="cls-26" x="106.25" y="0">2</tspan><tspan x="113.46" y="0">4DC-UD Dri</tspan><tspan class="cls-28" x="181.86" y="0">v</tspan><tspan x="188.15" y="0">e</tspan><tspan class="cls-22" x="195.44" y="0">r</tspan></text>
    <text class="cls-4" transform="translate(58.97 50.22)"><tspan x="0" y="0">100</tspan><tspan class="cls-23" x="17.47" y="0">-</tspan><tspan x="21.66" y="0">277</tspan><tspan class="cls-15" x="38.9" y="0">V</tspan><tspan class="cls-16" x="44.99" y="0">A</tspan><tspan x="51.75" y="0">C</tspan></text>
    <text class="cls-5" transform="translate(52.64 192.72)"><tspan class="cls-11"><tspan x="0" y="0">Mains </tspan><tspan class="cls-39" x="37.62" y="0">I</tspan><tspan class="cls-14" x="41.04" y="0">nput</tspan></tspan><tspan class="cls-8"><tspan class="cls-30" x="2.06" y="9.6">(</tspan><tspan x="4.23" y="9.6">dim o</tspan><tspan class="cls-24" x="25.64" y="9.6">r</tspan><tspan x="28.55" y="9.6" xml:space="preserve"> non-di</tspan><tspan class="cls-33" x="55.73" y="9.6">m</tspan><tspan x="62.95" y="9.6">)</tspan></tspan></text>
    <text class="cls-7" transform="translate(134.31 192.89)"><tspan x="0" y="0">0</tspan><tspan class="cls-29" x="8.18" y="0">-</tspan><tspan class="cls-13" x="12.9" y="0">1</tspan><tspan class="cls-21" x="17.5" y="0">0</tspan><tspan class="cls-19" x="25.44" y="0">V</tspan><tspan x="33.16" y="0"> </tspan><tspan class="cls-39" x="35.9" y="0">I</tspan><tspan x="39.32" y="0">nput</tspan></text>
    <text class="cls-7" transform="translate(266.5 109.75)"><tspan class="cls-27" x="0" y="0">2</tspan><tspan class="cls-34" x="7.21" y="0">4</tspan><tspan class="cls-20" x="14.66" y="0">V</tspan><tspan class="cls-13" x="22.38" y="0"> </tspan><tspan class="cls-40" x="25.13" y="0">P</tspan><tspan x="33.05" y="0">WM</tspan><tspan x="0" y="14.4">Output</tspan><tspan class="cls-35" x="40.26" y="14.4"> </tspan><tspan class="cls-31" x="42.66" y="14.4">A</tspan></text>
    <circle class="cls-6" cx="88.05" cy="66.74" r="6.06"/>
    <circle class="cls-6" cx="168.11" cy="66.74" r="6.06"/>
    <text class="cls-4" transform="translate(271.28 261.6)"><tspan x="0" y="0">Fl</tspan><tspan class="cls-17" x="8.68" y="0">e</tspan><tspan class="cls-36" x="14.52" y="0">x</tspan><tspan class="cls-12" x="19.86" y="0" xml:space="preserve"> One </tspan><tspan x="-5.69" y="12">HO Ex</tspan><tspan class="cls-38" x="24.06" y="12">t</tspan><tspan x="27.62" y="12">erio</tspan><tspan class="cls-23" x="46.34" y="12">r</tspan><tspan x="-.23" y="24">16</tspan><tspan class="cls-32" x="9.94" y="24">.</tspan><tspan x="12.26" y="24">4</tspan><tspan class="cls-18" x="18.86" y="24">’</tspan><tspan x="21.06" y="24"> </tspan><tspan class="cls-25" x="23.35" y="24">(</tspan><tspan x="26.29" y="24">5M)</tspan><tspan x="-2.98" y="36">Ma</tspan><tspan class="cls-36" x="11.94" y="36">x</tspan><tspan x="17.27" y="36" xml:space="preserve"> Spool</tspan></text>
    <line class="cls-2" x1="294.09" y1="235.68" x2="294.09" y2="175.07"/>
    <circle class="cls-6" cx="294.09" cy="239.47" r="6.06"/>
    <text class="cls-7" transform="translate(343.45 109.75)"><tspan class="cls-27" x="0" y="0">2</tspan><tspan class="cls-34" x="7.21" y="0">4</tspan><tspan class="cls-20" x="14.66" y="0">V</tspan><tspan class="cls-13" x="22.38" y="0"> </tspan><tspan class="cls-40" x="25.13" y="0">P</tspan><tspan x="33.05" y="0">WM</tspan><tspan x="0" y="14.4">Output B</tspan></text>
    <text class="cls-7" transform="translate(423.93 109.09)"><tspan class="cls-27" x="0" y="0">2</tspan><tspan class="cls-34" x="7.21" y="0">4</tspan><tspan class="cls-20" x="14.66" y="0">V</tspan><tspan class="cls-13" x="22.38" y="0"> </tspan><tspan class="cls-40" x="25.13" y="0">P</tspan><tspan x="33.05" y="0">WM</tspan><tspan x="0" y="14.4">Output C</tspan></text>
    <text class="cls-4" transform="translate(348.66 260.99)"><tspan x="0" y="0">Fl</tspan><tspan class="cls-17" x="8.68" y="0">e</tspan><tspan class="cls-36" x="14.52" y="0">x</tspan><tspan class="cls-12" x="19.86" y="0" xml:space="preserve"> One </tspan><tspan x="-5.69" y="12">HO Ex</tspan><tspan class="cls-38" x="24.06" y="12">t</tspan><tspan x="27.62" y="12">erio</tspan><tspan class="cls-23" x="46.34" y="12">r</tspan><tspan x="-.23" y="24">16</tspan><tspan class="cls-32" x="9.94" y="24">.</tspan><tspan x="12.26" y="24">4</tspan><tspan class="cls-18" x="18.86" y="24">’</tspan><tspan x="21.06" y="24"> </tspan><tspan class="cls-25" x="23.35" y="24">(</tspan><tspan x="26.29" y="24">5M)</tspan><tspan x="-2.98" y="36">Ma</tspan><tspan class="cls-36" x="11.94" y="36">x</tspan><tspan x="17.27" y="36" xml:space="preserve"> Spool</tspan></text>
    <line class="cls-2" x1="371.47" y1="235.08" x2="371.47" y2="174.47"/>
    <circle class="cls-6" cx="371.47" cy="238.86" r="6.06"/>
    <text class="cls-4" transform="translate(429.41 261.23)"><tspan x="0" y="0">Fl</tspan><tspan class="cls-17" x="8.68" y="0">e</tspan><tspan class="cls-36" x="14.52" y="0">x</tspan><tspan class="cls-12" x="19.86" y="0" xml:space="preserve"> One </tspan><tspan x="-5.69" y="12">HO Ex</tspan><tspan class="cls-38" x="24.06" y="12">t</tspan><tspan x="27.62" y="12">erio</tspan><tspan class="cls-23" x="46.34" y="12">r</tspan><tspan x="-.23" y="24">16</tspan><tspan class="cls-32" x="9.94" y="24">.</tspan><tspan x="12.26" y="24">4</tspan><tspan class="cls-18" x="18.86" y="24">’</tspan><tspan x="21.06" y="24"> </tspan><tspan class="cls-25" x="23.35" y="24">(</tspan><tspan x="26.29" y="24">5M)</tspan><tspan x="-2.98" y="36">Ma</tspan><tspan class="cls-36" x="11.94" y="36">x</tspan><tspan x="17.27" y="36" xml:space="preserve"> Spool</tspan></text>
    <line class="cls-2" x1="452.22" y1="235.32" x2="452.22" y2="174.71"/>
    <circle class="cls-6" cx="452.22" cy="239.11" r="6.06"/>
    <rect class="cls-1" width="548.52" height="341.38" rx="11.05" ry="11.05"/>
  </g>
</svg>