<?xml version="1.0" encoding="UTF-8"?>
<svg id="Layer_2" data-name="Layer 2" xmlns="http://www.w3.org/2000/svg" viewBox="0 0 548.52 341.38">
  <defs>
    <style>
      .cls-1, .cls-2 {
        fill: none;
      }

      .cls-3 {
        fill: #231f20;
      }

      .cls-4, .cls-5 {
        fill: #dfe8f4;
      }

      .cls-4, .cls-5, .cls-6 {
        stroke: #d3dceb;
      }

      .cls-4, .cls-5, .cls-6, .cls-2 {
        stroke-miterlimit: 10;
      }

      .cls-5 {
        stroke-width: 1.47px;
      }

      .cls-6 {
        fill: #f3f5fb;
        stroke-width: .48px;
      }

      .cls-2 {
        stroke: #f58876;
        stroke-width: 4px;
      }
    </style>
  </defs>
  <g id="Layer_1-2" data-name="Layer 1">
    <rect class="cls-6" x="30.15" y="120.74" width="112.22" height="124.24" rx="5.77" ry="5.77"/>
    <rect class="cls-4" x="52.44" y="161.02" width="67.42" height="43.18" rx="12" ry="12"/>
    <rect class="cls-5" x="159.85" y="175.3" width="370.21" height="17.04" rx="8.52" ry="8.52"/>
    <line class="cls-2" x1="88.02" y1="160.4" x2="88.02" y2="99.79"/>
    <g>
      <path class="cls-3" d="M247.41,66.12l1.08.23c.34.07.69.16,1.04.28.35.11.68.26.98.44.3.18.54.42.73.71.18.29.28.66.28,1.11s-.1.83-.29,1.16-.45.62-.77.85c-.32.23-.69.4-1.1.52-.41.12-.84.17-1.28.17-1.06,0-1.92-.26-2.57-.78-.65-.52-1.04-1.23-1.18-2.12h1.52c.11.54.36.95.75,1.22.39.27.89.41,1.51.41.53,0,.96-.11,1.31-.34.34-.22.52-.53.52-.92s-.17-.69-.5-.89c-.33-.2-.76-.36-1.28-.46l-1.08-.22c-.42-.1-.83-.24-1.21-.42-.38-.18-.69-.44-.93-.76-.24-.32-.36-.72-.36-1.21,0-.43.1-.81.29-1.13.2-.32.46-.58.78-.79.32-.2.68-.36,1.07-.46.39-.1.78-.15,1.17-.15.54,0,1.06.08,1.54.25.48.17.89.44,1.23.8.34.37.56.85.67,1.44h-1.51c-.13-.44-.38-.75-.76-.94-.38-.19-.79-.28-1.23-.28-.24,0-.49.04-.74.11-.26.07-.47.19-.65.36-.18.17-.27.39-.27.67,0,.31.12.56.35.73s.54.31.91.4Z"/>
      <path class="cls-3" d="M252.8,71.43v-8.7h1.43v3.17c.17-.28.42-.52.76-.73s.77-.31,1.3-.31c.8,0,1.36.23,1.67.7.32.46.47,1.09.47,1.87v4.01h-1.43v-3.61c0-.33-.03-.63-.08-.9-.05-.27-.17-.49-.34-.65-.18-.16-.46-.25-.84-.25-.49,0-.86.17-1.12.5-.26.33-.39.83-.39,1.48v3.43h-1.43Z"/>
      <path class="cls-3" d="M262.91,71.59c-.41,0-.8-.07-1.19-.2-.38-.13-.73-.34-1.04-.61-.31-.28-.55-.63-.74-1.06s-.28-.93-.28-1.52.09-1.09.28-1.51c.18-.42.43-.77.74-1.05.31-.28.65-.48,1.04-.61.38-.13.78-.2,1.19-.2s.79.07,1.18.2c.38.13.73.34,1.04.61.31.28.55.63.74,1.05.18.42.28.93.28,1.51s-.09,1.09-.28,1.52-.43.78-.74,1.06c-.31.28-.65.48-1.04.61-.38.13-.78.2-1.18.2ZM262.91,70.41c.3,0,.59-.07.85-.22.26-.15.48-.38.64-.71.16-.32.24-.75.24-1.28s-.08-.95-.25-1.27c-.16-.32-.38-.55-.64-.7-.26-.14-.54-.22-.85-.22s-.59.07-.85.22c-.26.14-.48.38-.64.7-.16.32-.25.74-.25,1.27s.08.95.24,1.28.37.56.64.71c.27.15.55.22.86.22Z"/>
      <path class="cls-3" d="M268.46,71.43l-1.73-6.46h1.5l1.09,4.62,1.08-4.62h1.48l1.08,4.62,1.09-4.62h1.5l-1.72,6.46h-1.5l-1.21-5.03-1.18,5.03h-1.49Z"/>
      <path class="cls-3" d="M276.63,64.15v-1.42h1.43v1.42h-1.43ZM276.63,71.43v-6.46h1.43v6.46h-1.43Z"/>
      <path class="cls-3" d="M279.78,71.43v-6.46h1.43v.92c.17-.28.42-.52.76-.73s.77-.31,1.3-.31c.8,0,1.36.23,1.67.7s.47,1.09.47,1.87v4.01h-1.43v-3.61c0-.33-.03-.63-.08-.9-.05-.27-.17-.49-.34-.65s-.46-.25-.84-.25c-.49,0-.86.17-1.12.5s-.39.83-.39,1.48v3.43h-1.43Z"/>
      <path class="cls-3" d="M292.91,64.98v5.74c0,.7-.13,1.26-.38,1.7-.25.44-.6.76-1.05.97s-.98.31-1.58.31c-.8,0-1.45-.18-1.94-.53-.49-.36-.8-.85-.92-1.48h1.43c.09.27.24.49.46.65.22.16.54.24.97.24.49,0,.88-.12,1.16-.37s.43-.66.43-1.25v-.74c-.42.72-1.1,1.08-2.03,1.08-.5,0-.97-.12-1.39-.37-.42-.25-.76-.61-1.01-1.09-.25-.48-.38-1.06-.38-1.75s.13-1.27.38-1.75c.25-.48.59-.84,1.01-1.09s.89-.37,1.39-.37c.45,0,.85.09,1.2.28.35.19.63.45.83.8v-.96h1.42ZM289.88,70.13c.3,0,.58-.07.83-.2s.46-.36.61-.66.23-.7.23-1.2-.08-.89-.23-1.19c-.16-.3-.36-.52-.61-.65s-.53-.2-.83-.2c-.48,0-.88.17-1.19.52-.32.35-.47.85-.47,1.52s.16,1.19.47,1.54c.32.35.71.52,1.19.52Z"/>
      <path class="cls-3" d="M297.47,71.43v-8.7h5.94v1.34h-4.4v2.21h4.14v1.34h-4.14v3.8h-1.54Z"/>
      <path class="cls-3" d="M303.23,71.43l3.24-8.7h1.74l3.28,8.7h-1.66l-.62-1.75h-3.77l-.61,1.75h-1.6ZM305.9,68.4h2.86l-1.44-4.07-1.42,4.07Z"/>
      <path class="cls-3" d="M318.29,68.48h1.5c-.12.65-.36,1.2-.73,1.67s-.82.82-1.36,1.07-1.15.37-1.82.37c-.86,0-1.59-.19-2.21-.56-.62-.38-1.09-.9-1.41-1.58-.32-.68-.49-1.47-.49-2.38s.17-1.69.52-2.36c.34-.67.83-1.19,1.46-1.57.63-.37,1.37-.56,2.21-.56.65,0,1.24.13,1.76.38.53.25.97.61,1.32,1.07.35.46.58,1.02.7,1.66h-1.51c-.13-.56-.39-1-.8-1.33-.4-.33-.91-.49-1.53-.49-.47,0-.9.12-1.28.37-.38.25-.69.61-.91,1.09-.22.48-.34,1.06-.34,1.75s.11,1.27.33,1.76c.22.48.52.85.91,1.1s.83.38,1.31.38c.6,0,1.11-.15,1.54-.46.42-.31.7-.76.83-1.36Z"/>
      <path class="cls-3" d="M321.15,71.43v-8.7h5.94v1.34h-4.4v2.21h4.14v1.34h-4.14v3.8h-1.54Z"/>
      <path class="cls-3" d="M334.39,68.48h1.5c-.12.65-.36,1.2-.73,1.67s-.82.82-1.36,1.07-1.15.37-1.82.37c-.86,0-1.59-.19-2.21-.56-.62-.38-1.09-.9-1.41-1.58-.32-.68-.49-1.47-.49-2.38s.17-1.69.52-2.36c.34-.67.83-1.19,1.46-1.57.63-.37,1.37-.56,2.21-.56.65,0,1.24.13,1.76.38.53.25.97.61,1.32,1.07.35.46.58,1.02.7,1.66h-1.51c-.13-.56-.39-1-.8-1.33-.4-.33-.91-.49-1.53-.49-.47,0-.9.12-1.28.37-.38.25-.69.61-.91,1.09-.22.48-.34,1.06-.34,1.75s.11,1.27.33,1.76c.22.48.52.85.91,1.1s.83.38,1.31.38c.6,0,1.11-.15,1.54-.46.42-.31.7-.76.83-1.36Z"/>
      <path class="cls-3" d="M337.24,71.43v-8.7h3.38c.58,0,1.1.06,1.58.18.48.12.86.34,1.15.65.28.32.43.77.43,1.35,0,.41-.09.78-.26,1.11s-.41.59-.73.77c.41.16.73.4.98.73.24.33.37.76.37,1.3,0,.62-.14,1.13-.43,1.51-.28.38-.67.66-1.16.83-.49.17-1.05.26-1.69.26h-3.62ZM338.78,66.36h1.99c.45,0,.8-.1,1.06-.29.26-.19.38-.5.38-.91,0-.38-.13-.66-.39-.85-.26-.19-.61-.28-1.05-.28h-1.99v2.33ZM338.78,70.14h2.11c.54,0,.95-.12,1.23-.35.28-.23.41-.56.41-.97,0-.85-.56-1.27-1.69-1.27h-2.06v2.59Z"/>
      <path class="cls-3" d="M346.83,71.43v-6.44h-2v-1.01c.44-.02.81-.06,1.11-.14s.55-.2.76-.38c.21-.18.38-.42.53-.73h1.03v8.7h-1.43Z"/>
      <path class="cls-3" d="M353.32,71.59c-.79,0-1.45-.18-1.97-.55-.52-.37-.91-.89-1.16-1.57s-.38-1.47-.38-2.39.13-1.72.38-2.39.64-1.19,1.16-1.56c.52-.37,1.18-.55,1.97-.55s1.45.18,1.97.55c.52.37.91.89,1.16,1.56s.38,1.47.38,2.39-.13,1.72-.38,2.39-.64,1.2-1.16,1.57c-.52.37-1.18.55-1.97.55ZM353.32,70.47c.62,0,1.11-.28,1.48-.83.37-.56.55-1.41.55-2.56s-.18-1.99-.55-2.54c-.37-.55-.86-.83-1.48-.83s-1.11.28-1.48.83c-.37.55-.55,1.4-.55,2.54s.18,2.01.55,2.56c.37.56.86.83,1.48.83Z"/>
      <path class="cls-3" d="M361.12,71.43v-8.7h5.94v1.34h-4.4v2.21h4.14v1.34h-4.14v3.8h-1.54Z"/>
      <path class="cls-3" d="M372.68,69.5h1.39c-.2.63-.57,1.14-1.1,1.52s-1.17.57-1.91.57c-.69,0-1.28-.14-1.78-.43s-.88-.69-1.14-1.2c-.26-.51-.4-1.1-.4-1.76s.15-1.27.44-1.78.68-.89,1.18-1.17c.49-.28,1.04-.41,1.64-.41.65,0,1.21.15,1.67.46.47.3.83.72,1.09,1.24.26.52.38,1.11.38,1.76v.14s0,.1-.01.17h-4.92c.05.44.16.79.35,1.06.18.26.41.46.67.58.26.12.53.18.8.18.44,0,.79-.08,1.06-.25.26-.17.46-.39.59-.66ZM371,66c-.26,0-.51.05-.75.14s-.46.25-.64.49c-.18.23-.31.55-.37.96h3.43c-.03-.47-.2-.85-.5-1.15s-.69-.44-1.17-.44Z"/>
      <path class="cls-3" d="M379.97,69.5h1.39c-.2.63-.57,1.14-1.1,1.52s-1.17.57-1.91.57c-.69,0-1.28-.14-1.78-.43s-.88-.69-1.14-1.2c-.26-.51-.4-1.1-.4-1.76s.15-1.27.44-1.78.68-.89,1.18-1.17c.49-.28,1.04-.41,1.64-.41.65,0,1.21.15,1.67.46.47.3.83.72,1.09,1.24.26.52.38,1.11.38,1.76v.14s0,.1-.01.17h-4.92c.05.44.16.79.35,1.06.18.26.41.46.67.58.26.12.53.18.8.18.44,0,.79-.08,1.06-.25.26-.17.46-.39.59-.66ZM378.29,66c-.26,0-.51.05-.75.14s-.46.25-.64.49c-.18.23-.31.55-.37.96h3.43c-.03-.47-.2-.85-.5-1.15s-.69-.44-1.17-.44Z"/>
      <path class="cls-3" d="M387.21,71.43v-.94c-.2.34-.48.61-.84.8-.36.19-.77.29-1.22.29-.51,0-.98-.13-1.4-.4-.42-.27-.76-.65-1.01-1.16s-.38-1.11-.38-1.81.13-1.31.38-1.81c.25-.5.59-.88,1.01-1.15.42-.27.89-.4,1.4-.4.46,0,.86.09,1.22.28.36.19.64.45.84.8v-3.2h1.43v8.7h-1.43ZM385.56,70.43c.3,0,.58-.08.84-.23.26-.15.46-.39.62-.71.16-.32.24-.75.24-1.27s-.08-.94-.24-1.27c-.16-.32-.37-.56-.62-.71-.26-.15-.54-.22-.84-.22-.5,0-.9.19-1.22.57s-.47.92-.47,1.63.16,1.25.47,1.63.72.58,1.22.58Z"/>
      <path class="cls-3" d="M399.28,68.48h1.5c-.12.65-.36,1.2-.73,1.67s-.82.82-1.36,1.07c-.54.25-1.15.37-1.82.37-.86,0-1.59-.19-2.21-.56s-1.09-.9-1.41-1.58c-.32-.68-.49-1.47-.49-2.38s.17-1.69.52-2.36c.34-.67.83-1.19,1.46-1.57s1.37-.56,2.21-.56c.65,0,1.24.13,1.76.38.53.25.97.61,1.32,1.07.35.46.58,1.02.7,1.66h-1.51c-.13-.56-.39-1-.8-1.33s-.91-.49-1.53-.49c-.47,0-.9.12-1.28.37-.38.25-.69.61-.91,1.09-.22.48-.34,1.06-.34,1.75s.11,1.27.33,1.76c.22.48.52.85.91,1.1.39.25.83.38,1.31.38.6,0,1.11-.15,1.54-.46s.7-.76.83-1.36Z"/>
      <path class="cls-3" d="M407.51,71.43h-1.44c-.05-.31-.07-.6-.07-.85-.43.67-1.16,1.01-2.2,1.01-.4,0-.77-.07-1.11-.22-.34-.15-.61-.36-.81-.64s-.3-.62-.3-1.01c0-.52.18-.93.55-1.23s.87-.53,1.52-.69c.65-.16,1.41-.28,2.27-.36v-.14c0-.5-.13-.86-.38-1.07s-.57-.31-.95-.31-.71.1-.94.29c-.24.2-.37.47-.4.83h-1.4c.04-.45.18-.84.41-1.17s.56-.59.96-.77.87-.28,1.39-.28c.9,0,1.58.21,2.04.64s.68,1.11.68,2.05v1.45c0,.5.02.97.05,1.39s.08.78.13,1.09ZM405.99,68.73v-.31c-.58.06-1.09.13-1.52.22s-.77.21-1,.37c-.24.16-.35.37-.35.64s.1.49.31.65.47.25.81.25c.31,0,.6-.05.87-.16.27-.11.48-.29.65-.56.16-.26.25-.63.25-1.09Z"/>
      <path class="cls-3" d="M409,71.43v-8.7h1.43v3.2c.21-.34.49-.61.85-.8.36-.19.76-.28,1.22-.28.52,0,.99.13,1.41.4.42.27.76.65,1.01,1.15.25.5.38,1.1.38,1.81s-.13,1.31-.38,1.81-.59.89-1.01,1.16-.89.4-1.41.4c-.46,0-.86-.1-1.22-.29-.36-.19-.64-.46-.85-.8v.94h-1.43ZM412.07,70.43c.5,0,.9-.19,1.22-.58.32-.38.47-.93.47-1.63s-.16-1.25-.47-1.63c-.32-.38-.72-.57-1.22-.57-.3,0-.57.07-.83.22-.26.15-.47.38-.63.71-.16.32-.24.75-.24,1.27s.08.94.24,1.27.37.56.63.71c.26.15.54.23.83.23Z"/>
      <path class="cls-3" d="M416.62,71.43v-8.7h1.43v8.7h-1.43Z"/>
      <path class="cls-3" d="M424.3,69.5h1.39c-.2.63-.57,1.14-1.1,1.52s-1.17.57-1.91.57c-.69,0-1.28-.14-1.78-.43s-.88-.69-1.14-1.2c-.26-.51-.4-1.1-.4-1.76s.15-1.27.44-1.78.68-.89,1.18-1.17c.49-.28,1.04-.41,1.64-.41.65,0,1.21.15,1.67.46.47.3.83.72,1.09,1.24.26.52.38,1.11.38,1.76v.14s0,.1-.01.17h-4.92c.05.44.16.79.35,1.06.18.26.41.46.67.58.26.12.53.18.8.18.44,0,.79-.08,1.06-.25.26-.17.46-.39.59-.66ZM422.62,66c-.26,0-.51.05-.75.14s-.46.25-.64.49c-.18.23-.31.55-.37.96h3.43c-.03-.47-.2-.85-.5-1.15s-.69-.44-1.17-.44Z"/>
      <path class="cls-3" d="M432.34,70.32v-2.59h-2.65v-1.27h2.65v-2.59h1.38v2.59h2.64v1.27h-2.64v2.59h-1.38Z"/>
      <path class="cls-3" d="M445.64,62.73v5.72c0,.99-.26,1.76-.78,2.31-.52.55-1.26.82-2.21.82s-1.67-.27-2.18-.82-.78-1.3-.79-2.27h1.49c0,.64.15,1.11.43,1.4.28.3.63.44,1.06.44.26,0,.49-.05.71-.16.22-.11.4-.3.53-.58.14-.28.2-.66.2-1.16v-5.72h1.54Z"/>
      <path class="cls-3" d="M451.31,71.43v-.91c-.18.31-.43.57-.73.77-.3.2-.72.3-1.24.3-.79,0-1.35-.23-1.66-.7-.32-.46-.47-1.09-.47-1.88v-4.03h1.43v3.65c0,.32.03.62.08.89.05.27.16.49.34.65s.44.25.81.25c.97,0,1.45-.65,1.45-1.94v-3.49h1.44v6.46h-1.44Z"/>
      <path class="cls-3" d="M454.47,71.43v-6.46h1.43v.92c.17-.28.42-.52.76-.73s.77-.31,1.3-.31c.8,0,1.36.23,1.67.7.32.46.47,1.09.47,1.87v4.01h-1.43v-3.61c0-.33-.03-.63-.08-.9-.05-.27-.17-.49-.34-.65-.18-.16-.46-.25-.84-.25-.49,0-.86.17-1.12.5s-.39.83-.39,1.48v3.43h-1.43Z"/>
      <path class="cls-3" d="M466.1,69.23h1.4c-.1.5-.29.92-.59,1.27-.3.35-.66.62-1.09.81s-.88.28-1.36.28c-.65,0-1.2-.14-1.67-.43s-.82-.69-1.07-1.2c-.25-.51-.38-1.1-.38-1.76s.13-1.24.4-1.74c.26-.5.64-.9,1.12-1.19.48-.29,1.04-.43,1.68-.43.5,0,.95.1,1.35.3s.74.48,1.01.83c.27.36.45.77.53,1.24h-1.39c-.08-.38-.26-.67-.53-.88-.27-.21-.6-.31-.97-.31-.29,0-.56.08-.82.23-.26.15-.47.39-.63.7-.16.32-.24.73-.24,1.24s.08.94.24,1.27c.16.33.37.57.63.72.26.15.53.23.82.23.42,0,.77-.12,1.04-.35.27-.23.44-.51.52-.84Z"/>
      <path class="cls-3" d="M471.83,71.43h-.97c-.46,0-.81-.04-1.06-.13-.25-.09-.43-.25-.53-.5-.1-.24-.16-.6-.16-1.06v-3.68h-1.02v-1.08h1.02v-1.68h1.43v1.68h1.3v1.08h-1.3v3.47c0,.32.04.53.13.64.09.11.29.16.61.16h.55v1.1Z"/>
      <path class="cls-3" d="M473.1,64.15v-1.42h1.43v1.42h-1.43ZM473.1,71.43v-6.46h1.43v6.46h-1.43Z"/>
      <path class="cls-3" d="M479.09,71.59c-.41,0-.8-.07-1.19-.2s-.73-.34-1.04-.61c-.31-.28-.55-.63-.74-1.06-.18-.43-.28-.93-.28-1.52s.09-1.09.28-1.51c.18-.42.43-.77.74-1.05.31-.28.65-.48,1.04-.61.38-.13.78-.2,1.19-.2s.79.07,1.18.2c.38.13.73.34,1.04.61.31.28.55.63.74,1.05.18.42.28.93.28,1.51s-.09,1.09-.28,1.52c-.18.43-.43.78-.74,1.06-.31.28-.65.48-1.04.61s-.78.2-1.18.2ZM479.09,70.41c.3,0,.59-.07.85-.22.26-.15.48-.38.64-.71s.24-.75.24-1.28-.08-.95-.25-1.27-.38-.55-.64-.7c-.26-.14-.54-.22-.85-.22s-.59.07-.85.22c-.26.14-.48.38-.64.7s-.25.74-.25,1.27.08.95.24,1.28c.16.32.37.56.64.71.27.15.55.22.86.22Z"/>
      <path class="cls-3" d="M483.64,71.43v-6.46h1.43v.92c.17-.28.42-.52.76-.73s.77-.31,1.3-.31c.8,0,1.36.23,1.67.7.32.46.47,1.09.47,1.87v4.01h-1.43v-3.61c0-.33-.03-.63-.08-.9-.05-.27-.17-.49-.34-.65-.18-.16-.46-.25-.84-.25-.49,0-.86.17-1.12.5s-.39.83-.39,1.48v3.43h-1.43Z"/>
      <path class="cls-3" d="M493.77,71.43v-8.7h3.38c.58,0,1.1.06,1.58.18.48.12.86.34,1.15.65.28.32.43.77.43,1.35,0,.41-.09.78-.26,1.11s-.41.59-.73.77c.41.16.73.4.98.73.24.33.37.76.37,1.3,0,.62-.14,1.13-.43,1.51-.28.38-.67.66-1.16.83-.49.17-1.05.26-1.69.26h-3.62ZM495.3,66.36h1.99c.45,0,.8-.1,1.06-.29.26-.19.38-.5.38-.91,0-.38-.13-.66-.39-.85-.26-.19-.61-.28-1.05-.28h-1.99v2.33ZM495.3,70.14h2.11c.54,0,.95-.12,1.23-.35.28-.23.41-.56.41-.97,0-.85-.56-1.27-1.69-1.27h-2.06v2.59Z"/>
      <path class="cls-3" d="M504.86,71.59c-.41,0-.8-.07-1.19-.2s-.73-.34-1.04-.61c-.31-.28-.55-.63-.74-1.06-.18-.43-.28-.93-.28-1.52s.09-1.09.28-1.51c.18-.42.43-.77.74-1.05.31-.28.65-.48,1.04-.61.38-.13.78-.2,1.19-.2s.79.07,1.18.2c.38.13.73.34,1.04.61.31.28.55.63.74,1.05.18.42.28.93.28,1.51s-.09,1.09-.28,1.52c-.18.43-.43.78-.74,1.06-.31.28-.65.48-1.04.61s-.78.2-1.18.2ZM504.86,70.41c.3,0,.59-.07.85-.22.26-.15.48-.38.64-.71s.24-.75.24-1.28-.08-.95-.25-1.27-.38-.55-.64-.7c-.26-.14-.54-.22-.85-.22s-.59.07-.85.22c-.26.14-.48.38-.64.7s-.25.74-.25,1.27.08.95.24,1.28c.16.32.37.56.64.71.27.15.55.22.86.22Z"/>
      <path class="cls-3" d="M508.29,71.43l2.41-3.29-2.28-3.17h1.66l1.46,2.04,1.49-2.04h1.55l-2.27,3.1,2.44,3.36h-1.66l-1.62-2.23-1.61,2.23h-1.57Z"/>
    </g>
    <g>
      <path class="cls-3" d="M60.8,80.25v-5.37h-1.67v-.84c.37-.01.67-.05.92-.12s.46-.17.64-.31c.17-.15.32-.35.44-.61h.86v7.25h-1.19Z"/>
      <path class="cls-3" d="M66.21,80.38c-.66,0-1.21-.15-1.64-.46-.43-.31-.76-.74-.97-1.3s-.32-1.23-.32-2,.11-1.43.32-1.99c.21-.56.54-.99.97-1.3.43-.31.98-.46,1.64-.46s1.21.15,1.64.46c.43.31.76.74.97,1.3.21.56.32,1.22.32,1.99s-.11,1.43-.32,2-.54,1-.97,1.3c-.43.31-.98.46-1.64.46ZM66.21,79.45c.51,0,.92-.23,1.23-.7.31-.46.46-1.17.46-2.13s-.15-1.66-.46-2.12-.72-.69-1.23-.69-.92.23-1.23.69c-.31.46-.46,1.17-.46,2.12s.15,1.67.46,2.13c.31.46.72.7,1.23.7Z"/>
      <path class="cls-3" d="M73.03,80.38c-.66,0-1.21-.15-1.64-.46-.43-.31-.76-.74-.97-1.3s-.32-1.23-.32-2,.11-1.43.32-1.99c.21-.56.54-.99.97-1.3.43-.31.98-.46,1.64-.46s1.21.15,1.64.46c.43.31.76.74.97,1.3.21.56.32,1.22.32,1.99s-.11,1.43-.32,2-.54,1-.97,1.3c-.43.31-.98.46-1.64.46ZM73.03,79.45c.51,0,.92-.23,1.23-.7.31-.46.46-1.17.46-2.13s-.15-1.66-.46-2.12-.72-.69-1.23-.69-.92.23-1.23.69c-.31.46-.46,1.17-.46,2.12s.15,1.67.46,2.13c.31.46.72.7,1.23.7Z"/>
      <path class="cls-3" d="M76.94,78.06v-1.1h3.41v1.1h-3.41Z"/>
      <path class="cls-3" d="M81,80.25v-.99c.78-.57,1.47-1.1,2.07-1.59s1.07-.97,1.41-1.41c.34-.44.51-.87.51-1.29,0-.36-.11-.64-.33-.85s-.52-.31-.9-.31c-.23,0-.46.05-.67.14-.22.09-.39.25-.53.47-.14.22-.21.54-.21.94h-1.21c0-.52.11-.97.33-1.33.22-.37.54-.66.94-.86s.87-.3,1.4-.3c.47,0,.88.08,1.25.24.36.16.65.38.86.67.21.29.31.65.31,1.08,0,.53-.16,1.04-.48,1.53-.32.49-.76.97-1.31,1.43-.55.46-1.17.92-1.85,1.38h3.78v1.04h-5.35Z"/>
      <path class="cls-3" d="M89.11,80.25h-1.35c.05-1.31.36-2.49.91-3.54s1.27-1.94,2.16-2.67h-3.86v-1.04h5.17v1.04c-.94.77-1.66,1.66-2.17,2.66-.51,1-.79,2.18-.86,3.55Z"/>
      <path class="cls-3" d="M94.66,80.25h-1.35c.05-1.31.36-2.49.91-3.54s1.27-1.94,2.16-2.67h-3.86v-1.04h5.17v1.04c-.94.77-1.66,1.66-2.17,2.66-.51,1-.79,2.18-.86,3.55Z"/>
      <path class="cls-3" d="M100.46,80.25l-2.47-7.25h1.39l1.88,5.88,1.86-5.88h1.32l-2.46,7.25h-1.52Z"/>
      <path class="cls-3" d="M104.03,80.25l2.7-7.25h1.45l2.73,7.25h-1.38l-.52-1.46h-3.14l-.51,1.46h-1.33ZM106.25,77.72h2.38l-1.2-3.39-1.18,3.39Z"/>
      <path class="cls-3" d="M116.58,77.79h1.25c-.1.54-.3,1-.6,1.39s-.68.68-1.13.89c-.45.21-.96.31-1.52.31-.71,0-1.33-.16-1.84-.47-.51-.31-.9-.75-1.17-1.32s-.4-1.23-.4-1.98.14-1.41.43-1.97c.29-.56.69-1,1.22-1.3.52-.31,1.14-.46,1.84-.46.54,0,1.03.1,1.47.31s.81.51,1.1.9c.29.39.49.85.58,1.38h-1.26c-.11-.47-.33-.84-.67-1.11-.34-.27-.76-.41-1.27-.41-.39,0-.75.1-1.07.31-.32.21-.57.51-.76.91s-.28.88-.28,1.46.09,1.06.28,1.46c.18.4.44.71.76.92s.69.31,1.1.31c.5,0,.93-.13,1.28-.38s.58-.63.69-1.13Z"/>
    </g>
    <g>
      <path class="cls-3" d="M53.6,222.74v-8.7h2.51l2,6.86,2.03-6.86h2.48v8.7h-1.51v-7.36l-2.23,7.36h-1.54l-2.23-7.34v7.34h-1.51Z"/>
      <path class="cls-3" d="M69.92,222.74h-1.44c-.05-.31-.07-.6-.07-.85-.43.67-1.16,1.01-2.2,1.01-.4,0-.77-.07-1.11-.22-.34-.15-.61-.36-.81-.64-.2-.28-.3-.62-.3-1.01,0-.52.18-.93.55-1.23.36-.3.87-.53,1.52-.69.65-.16,1.41-.28,2.27-.36v-.14c0-.5-.13-.86-.38-1.07s-.57-.31-.95-.31-.71.1-.94.29c-.24.2-.37.47-.4.83h-1.4c.04-.45.18-.84.41-1.17s.56-.59.96-.77.87-.28,1.39-.28c.9,0,1.58.21,2.04.64s.68,1.11.68,2.05v1.45c0,.5.02.97.05,1.39.03.42.08.78.13,1.09ZM68.39,220.04v-.31c-.58.06-1.09.13-1.52.22s-.77.21-1,.37c-.24.16-.35.37-.35.64s.1.49.31.65c.2.16.47.25.81.25.31,0,.6-.05.87-.16.27-.11.48-.29.65-.56.16-.26.25-.63.25-1.09Z"/>
      <path class="cls-3" d="M71.4,215.46v-1.42h1.43v1.42h-1.43ZM71.4,222.74v-6.46h1.43v6.46h-1.43Z"/>
      <path class="cls-3" d="M74.56,222.74v-6.46h1.43v.92c.17-.28.42-.52.76-.73s.77-.31,1.3-.31c.8,0,1.36.23,1.67.7.32.46.47,1.09.47,1.87v4.01h-1.43v-3.61c0-.33-.03-.63-.08-.9-.05-.27-.17-.49-.34-.65-.18-.16-.46-.25-.84-.25-.49,0-.86.17-1.12.5-.26.33-.39.83-.39,1.48v3.43h-1.43Z"/>
      <path class="cls-3" d="M83.82,218.72l1.02.19c.45.08.84.19,1.18.34.34.15.6.35.79.59.19.25.28.57.28.97,0,.45-.12.83-.37,1.13-.25.31-.58.54-1.01.7-.42.16-.9.24-1.44.24s-1.05-.1-1.47-.29c-.42-.2-.75-.46-1-.8-.24-.34-.39-.72-.45-1.15h1.42c.17.75.68,1.13,1.52,1.13.39,0,.72-.07.99-.22.27-.14.4-.34.4-.6s-.11-.45-.33-.59c-.22-.14-.51-.24-.87-.3l-1.03-.19c-.34-.06-.65-.17-.94-.31-.29-.14-.53-.33-.71-.58s-.28-.55-.28-.93c0-.42.12-.77.37-1.05.25-.28.58-.5.99-.65.41-.15.87-.23,1.36-.23.71,0,1.32.17,1.82.52s.81.85.91,1.51h-1.4c-.08-.33-.25-.56-.51-.7-.26-.14-.57-.2-.92-.2-.32,0-.61.06-.86.18s-.38.31-.38.56c0,.2.08.35.23.46.16.11.38.19.68.25Z"/>
      <path class="cls-3" d="M91.22,222.74v-8.7h1.54v8.7h-1.54Z"/>
      <path class="cls-3" d="M94.54,222.74v-6.46h1.43v.92c.17-.28.42-.52.76-.73s.77-.31,1.3-.31c.8,0,1.36.23,1.67.7.32.46.47,1.09.47,1.87v4.01h-1.43v-3.61c0-.33-.03-.63-.08-.9-.05-.27-.17-.49-.34-.65-.18-.16-.46-.25-.84-.25-.49,0-.86.17-1.12.5-.26.33-.39.83-.39,1.48v3.43h-1.43Z"/>
      <path class="cls-3" d="M101.82,224.84v-8.56h1.43v.96c.21-.34.49-.61.85-.8.36-.19.76-.28,1.22-.28.52,0,.99.13,1.41.4.42.27.76.65,1.01,1.15.25.5.38,1.1.38,1.81s-.13,1.31-.38,1.81-.59.89-1.01,1.16-.89.4-1.41.4c-.46,0-.86-.1-1.22-.29-.36-.19-.64-.46-.85-.8v3.04h-1.43ZM104.9,221.73c.5,0,.9-.19,1.22-.58s.47-.93.47-1.63-.16-1.25-.47-1.63-.72-.57-1.22-.57c-.3,0-.57.07-.83.22-.26.15-.47.38-.63.71-.16.32-.24.75-.24,1.27s.08.94.24,1.27c.16.32.37.56.63.71.26.15.54.23.83.23Z"/>
      <path class="cls-3" d="M113.48,222.74v-.91c-.18.31-.43.57-.73.77-.3.2-.72.3-1.24.3-.79,0-1.35-.23-1.66-.7-.32-.46-.47-1.09-.47-1.88v-4.03h1.43v3.65c0,.32.03.62.08.89.05.27.16.49.34.65.17.16.44.25.81.25.97,0,1.45-.65,1.45-1.94v-3.49h1.44v6.46h-1.44Z"/>
      <path class="cls-3" d="M119.74,222.74h-.97c-.46,0-.81-.04-1.06-.13s-.43-.25-.53-.5-.16-.6-.16-1.06v-3.68h-1.02v-1.08h1.02v-1.68h1.43v1.68h1.3v1.08h-1.3v3.47c0,.32.04.53.13.64.09.11.29.16.61.16h.55v1.1Z"/>
      <path class="cls-3" d="M57.01,233.74h-.85c-.17-.24-.33-.53-.51-.89-.17-.36-.32-.77-.44-1.23-.12-.46-.18-.95-.18-1.48s.06-1.03.18-1.49c.12-.46.26-.87.44-1.23s.34-.65.51-.88h.85c-.28.44-.51.96-.7,1.58-.19.62-.29,1.29-.29,2.02s.1,1.39.29,2.01c.19.62.43,1.15.7,1.59Z"/>
      <path class="cls-3" d="M60.42,232.34v-.62c-.13.23-.32.41-.56.54-.24.13-.51.19-.82.19-.34,0-.65-.09-.94-.27-.28-.18-.51-.44-.68-.77-.17-.34-.25-.74-.25-1.21s.08-.87.25-1.2c.17-.33.39-.59.68-.77.28-.18.59-.27.94-.27.3,0,.58.06.82.19.24.13.43.3.56.53v-2.14h.95v5.8h-.95ZM59.32,231.67c.2,0,.39-.05.56-.15.17-.1.31-.26.42-.48.11-.22.16-.5.16-.84s-.05-.63-.16-.84c-.11-.22-.25-.37-.42-.47-.17-.1-.36-.15-.56-.15-.33,0-.6.13-.81.38-.21.25-.32.61-.32,1.08s.1.83.32,1.09c.21.26.48.38.81.38Z"/>
      <path class="cls-3" d="M62.52,227.49v-.94h.95v.94h-.95ZM62.52,232.34v-4.3h.95v4.3h-.95Z"/>
      <path class="cls-3" d="M64.63,232.34v-4.3h.95v.62c.11-.19.27-.35.49-.49s.48-.21.81-.21.6.07.81.2c.2.13.35.31.45.55.17-.25.38-.44.63-.56.25-.12.53-.18.82-.18.52,0,.89.15,1.1.46.21.31.32.73.32,1.25v2.67h-.95v-2.41c0-.22-.02-.42-.05-.6-.04-.18-.11-.33-.23-.44-.12-.11-.3-.16-.54-.16-.29,0-.52.11-.69.33-.17.22-.25.55-.25.98v2.3h-.95v-2.41c0-.22-.02-.42-.05-.6s-.11-.33-.23-.44c-.12-.11-.3-.16-.54-.16-.29,0-.52.11-.69.33-.17.22-.25.55-.25.98v2.3h-.95Z"/>
      <path class="cls-3" d="M75.82,232.45c-.27,0-.54-.04-.79-.13-.26-.09-.49-.22-.69-.41-.21-.18-.37-.42-.49-.7-.12-.29-.18-.62-.18-1.01s.06-.72.18-1.01c.12-.28.29-.52.49-.7.21-.18.44-.32.69-.41.26-.09.52-.13.79-.13s.53.04.78.13c.26.09.49.22.69.41.21.18.37.42.49.7.12.28.18.62.18,1.01s-.06.73-.18,1.01c-.12.29-.29.52-.49.7-.21.18-.44.32-.69.41s-.52.13-.78.13ZM75.82,231.66c.2,0,.39-.05.57-.15.18-.1.32-.26.42-.47.11-.22.16-.5.16-.85s-.06-.63-.16-.85c-.11-.21-.25-.37-.42-.46s-.36-.14-.56-.14-.39.05-.57.14-.32.25-.43.46-.16.5-.16.85.05.64.16.85c.11.22.25.37.43.47s.37.15.57.15Z"/>
      <path class="cls-3" d="M78.86,232.34v-4.3h.93v.78c.11-.25.26-.45.46-.58.2-.14.45-.21.74-.22h.1s.07,0,.11,0v.97c-.14-.02-.27-.03-.39-.03-.33,0-.57.09-.74.26-.17.18-.25.48-.25.9v2.22h-.95Z"/>
      <path class="cls-3" d="M83.59,232.34v-4.3h.95v.62c.11-.19.28-.35.5-.49.22-.14.51-.21.86-.21.53,0,.91.15,1.12.46.21.31.32.73.32,1.25v2.67h-.95v-2.41c0-.22-.02-.42-.05-.6-.04-.18-.11-.33-.23-.44-.12-.11-.3-.16-.56-.16-.33,0-.57.11-.75.33-.17.22-.26.55-.26.99v2.29h-.95Z"/>
      <path class="cls-3" d="M90.34,232.45c-.27,0-.54-.04-.79-.13-.26-.09-.49-.22-.69-.41-.21-.18-.37-.42-.49-.7-.12-.29-.18-.62-.18-1.01s.06-.72.18-1.01c.12-.28.29-.52.49-.7.21-.18.44-.32.69-.41.26-.09.52-.13.79-.13s.53.04.78.13c.26.09.49.22.69.41.21.18.37.42.49.7.12.28.18.62.18,1.01s-.06.73-.18,1.01c-.12.29-.29.52-.49.7-.21.18-.44.32-.69.41s-.52.13-.78.13ZM90.34,231.66c.2,0,.39-.05.57-.15.18-.1.32-.26.42-.47.11-.22.16-.5.16-.85s-.06-.63-.16-.85c-.11-.21-.25-.37-.42-.46s-.36-.14-.56-.14-.39.05-.57.14-.32.25-.43.46-.16.5-.16.85.05.64.16.85c.11.22.25.37.43.47s.37.15.57.15Z"/>
      <path class="cls-3" d="M93.37,232.34v-4.3h.95v.62c.11-.19.28-.35.5-.49.22-.14.51-.21.86-.21.53,0,.91.15,1.12.46.21.31.32.73.32,1.25v2.67h-.95v-2.41c0-.22-.02-.42-.05-.6-.04-.18-.11-.33-.23-.44-.12-.11-.3-.16-.56-.16-.33,0-.57.11-.75.33-.17.22-.26.55-.26.99v2.29h-.95Z"/>
      <path class="cls-3" d="M98.05,230.59v-.88h2.73v.88h-2.73Z"/>
      <path class="cls-3" d="M104.74,232.34v-.62c-.13.23-.32.41-.56.54-.24.13-.51.19-.82.19-.34,0-.65-.09-.94-.27-.28-.18-.51-.44-.68-.77-.17-.34-.25-.74-.25-1.21s.08-.87.25-1.2c.17-.33.39-.59.68-.77.28-.18.59-.27.94-.27.3,0,.58.06.82.19.24.13.43.3.56.53v-2.14h.95v5.8h-.95ZM103.64,231.67c.2,0,.39-.05.56-.15.17-.1.31-.26.42-.48.11-.22.16-.5.16-.84s-.05-.63-.16-.84c-.11-.22-.25-.37-.42-.47-.17-.1-.36-.15-.56-.15-.33,0-.6.13-.81.38-.21.25-.32.61-.32,1.08s.1.83.32,1.09c.21.26.48.38.81.38Z"/>
      <path class="cls-3" d="M106.84,227.49v-.94h.95v.94h-.95ZM106.84,232.34v-4.3h.95v4.3h-.95Z"/>
      <path class="cls-3" d="M108.94,232.34v-4.3h.95v.62c.11-.19.27-.35.49-.49s.48-.21.81-.21.6.07.81.2c.2.13.35.31.45.55.17-.25.38-.44.63-.56.25-.12.53-.18.82-.18.52,0,.89.15,1.1.46.21.31.32.73.32,1.25v2.67h-.95v-2.41c0-.22-.02-.42-.05-.6-.04-.18-.11-.33-.23-.44-.12-.11-.3-.16-.54-.16-.29,0-.52.11-.69.33-.17.22-.25.55-.25.98v2.3h-.95v-2.41c0-.22-.02-.42-.05-.6s-.11-.33-.23-.44c-.12-.11-.3-.16-.54-.16-.29,0-.52.11-.69.33-.17.22-.25.55-.25.98v2.3h-.95Z"/>
      <path class="cls-3" d="M116.62,233.74h-.85c.28-.44.51-.97.71-1.59.19-.62.29-1.29.29-2.01s-.1-1.4-.29-2.02c-.19-.62-.43-1.15-.71-1.58h.85c.17.23.33.52.51.88s.32.77.44,1.23c.12.46.18.96.18,1.49s-.06,1.02-.18,1.48c-.12.46-.26.87-.44,1.23-.17.36-.34.66-.51.89Z"/>
    </g>
    <circle class="cls-3" cx="88.05" cy="96.76" r="6.06"/>
    <rect class="cls-1" width="548.52" height="341.38" rx="11.05" ry="11.05"/>
    <g>
      <path class="cls-3" d="M317.37,210.45v-7.25h4.95v1.12h-3.67v1.84h3.45v1.12h-3.45v3.17h-1.28Z"/>
      <path class="cls-3" d="M323.34,210.45v-7.25h1.19v7.25h-1.19Z"/>
      <path class="cls-3" d="M329.74,208.84h1.16c-.17.53-.47.95-.92,1.27-.45.32-.98.47-1.59.47-.57,0-1.07-.12-1.48-.36-.41-.24-.73-.57-.95-1-.22-.43-.33-.92-.33-1.47s.12-1.06.37-1.48.57-.75.98-.98c.41-.23.86-.34,1.36-.34.54,0,1.01.13,1.4.38.39.25.69.6.91,1.03.21.43.32.92.32,1.47v.12s0,.09,0,.14h-4.1c.04.37.14.66.29.88.15.22.34.38.56.48s.44.15.67.15c.37,0,.66-.07.88-.21.22-.14.38-.32.49-.55ZM328.34,205.92c-.21,0-.42.04-.62.12-.2.08-.38.21-.53.41-.15.19-.26.46-.31.8h2.86c-.03-.39-.17-.71-.42-.96s-.58-.37-.98-.37Z"/>
      <path class="cls-3" d="M331.11,210.45l2.01-2.74-1.9-2.64h1.38l1.22,1.7,1.24-1.7h1.29l-1.89,2.58,2.03,2.8h-1.38l-1.35-1.86-1.34,1.86h-1.31Z"/>
      <path class="cls-3" d="M340.55,210.45v-5.37h-1.67v-.84c.37-.01.67-.05.92-.12s.46-.17.63-.31c.17-.15.32-.35.44-.61h.86v7.25h-1.19Z"/>
      <path class="cls-3" d="M342.92,210.45v-.99c.78-.57,1.47-1.1,2.07-1.59.6-.5,1.07-.97,1.41-1.41.34-.44.51-.87.51-1.29,0-.36-.11-.64-.33-.85-.22-.21-.52-.31-.9-.31-.23,0-.46.05-.67.14-.22.09-.39.25-.53.47-.14.22-.21.54-.21.94h-1.21c0-.52.11-.97.33-1.33.22-.37.54-.66.94-.86.4-.2.87-.3,1.4-.3.47,0,.88.08,1.25.24.36.16.65.38.86.67.21.29.31.65.31,1.08,0,.53-.16,1.04-.48,1.53-.32.49-.76.97-1.31,1.43-.55.46-1.17.92-1.85,1.38h3.78v1.04h-5.35Z"/>
      <path class="cls-3" d="M352.1,210.58c-.66,0-1.21-.15-1.64-.46s-.76-.74-.97-1.3c-.21-.56-.32-1.23-.32-2s.11-1.43.32-1.99c.21-.56.54-.99.97-1.3s.98-.46,1.64-.46,1.21.15,1.64.46.76.74.97,1.3c.21.56.32,1.22.32,1.99s-.11,1.43-.32,2c-.21.56-.54,1-.97,1.3s-.98.46-1.64.46ZM352.1,209.65c.51,0,.92-.23,1.23-.7.31-.46.46-1.17.46-2.13s-.15-1.66-.46-2.12-.72-.69-1.23-.69-.92.23-1.23.69-.46,1.17-.46,2.12.15,1.67.46,2.13c.31.46.72.7,1.23.7Z"/>
      <path class="cls-3" d="M360.68,206.02l.9.19c.29.06.58.14.87.23.29.09.56.22.81.37s.45.35.61.59.23.55.23.92-.08.69-.24.97c-.16.28-.38.52-.65.71-.27.19-.58.33-.92.43s-.7.14-1.06.14c-.89,0-1.6-.22-2.14-.65-.54-.43-.87-1.02-.98-1.77h1.27c.09.45.3.79.62,1.02s.74.34,1.25.34c.44,0,.8-.09,1.09-.28.29-.19.43-.44.43-.77s-.14-.57-.42-.74c-.28-.17-.63-.3-1.07-.39l-.9-.18c-.35-.08-.69-.2-1-.35-.32-.15-.58-.36-.78-.63s-.3-.6-.3-1.01c0-.36.08-.67.25-.94.16-.27.38-.49.65-.66.27-.17.57-.3.89-.38.32-.08.65-.12.97-.12.45,0,.88.07,1.28.21.4.14.74.36,1.02.67s.47.71.56,1.2h-1.26c-.11-.37-.32-.63-.63-.79s-.66-.24-1.02-.24c-.2,0-.41.03-.62.09-.21.06-.4.16-.54.3-.15.14-.23.33-.23.56,0,.26.1.46.29.61.2.15.45.26.75.33Z"/>
      <path class="cls-3" d="M368.94,208.84h1.16c-.17.53-.47.95-.92,1.27-.45.32-.98.47-1.59.47-.57,0-1.07-.12-1.48-.36-.41-.24-.73-.57-.95-1-.22-.43-.33-.92-.33-1.47s.12-1.06.37-1.48c.24-.42.57-.75.98-.98.41-.23.87-.34,1.37-.34.54,0,1,.13,1.39.38.39.25.69.6.91,1.03.21.43.32.92.32,1.47v.12s0,.09,0,.14h-4.1c.04.37.14.66.29.88.15.22.34.38.56.48.22.1.44.15.67.15.37,0,.66-.07.88-.21.22-.14.38-.32.49-.55ZM367.54,205.92c-.21,0-.42.04-.62.12-.2.08-.38.21-.54.41s-.26.46-.31.8h2.86c-.03-.39-.17-.71-.42-.96s-.57-.37-.97-.37Z"/>
      <path class="cls-3" d="M374.87,208.61h1.17c-.08.41-.24.77-.49,1.06-.25.29-.55.52-.91.67-.35.16-.73.24-1.13.24-.54,0-1-.12-1.39-.36-.39-.24-.68-.57-.89-1-.21-.43-.32-.92-.32-1.47s.11-1.03.33-1.45c.22-.42.53-.75.93-.99.4-.24.87-.36,1.4-.36.41,0,.79.08,1.12.25s.62.4.84.7.37.64.44,1.04h-1.16c-.07-.31-.21-.56-.44-.73-.23-.17-.5-.26-.81-.26-.24,0-.47.06-.68.19-.22.13-.39.32-.53.58-.13.26-.2.61-.2,1.04s.07.79.2,1.06c.13.27.31.47.53.6s.44.19.68.19c.35,0,.64-.1.87-.29s.37-.43.43-.7Z"/>
      <path class="cls-3" d="M379.65,210.45h-.81c-.38,0-.67-.04-.88-.11-.21-.07-.36-.21-.45-.42-.09-.2-.13-.5-.13-.88v-3.07h-.85v-.9h.85v-1.4h1.19v1.4h1.08v.9h-1.08v2.89c0,.27.04.45.11.54s.24.13.51.13h.46v.92Z"/>
      <path class="cls-3" d="M380.71,204.38v-1.18h1.19v1.18h-1.19ZM380.71,210.45v-5.38h1.19v5.38h-1.19Z"/>
      <path class="cls-3" d="M385.7,210.58c-.34,0-.67-.05-.99-.17-.32-.11-.61-.28-.86-.51-.26-.23-.46-.52-.62-.88s-.23-.78-.23-1.27.08-.91.23-1.26.36-.64.62-.88c.26-.23.54-.4.86-.51.32-.11.65-.17.99-.17s.66.05.98.17c.32.11.61.28.86.51.26.23.46.52.62.88s.23.77.23,1.26-.08.91-.23,1.27-.36.65-.62.88c-.26.23-.54.4-.86.51-.32.11-.65.17-.98.17ZM385.7,209.6c.25,0,.49-.06.71-.19.22-.12.4-.32.53-.59.13-.27.2-.62.2-1.07s-.07-.79-.21-1.06-.31-.46-.53-.58-.45-.18-.71-.18-.49.06-.71.18-.4.31-.54.58-.21.62-.21,1.06.07.8.2,1.07c.13.27.31.47.54.59.22.12.46.19.71.19Z"/>
      <path class="cls-3" d="M389.49,210.45v-5.38h1.19v.77c.14-.23.35-.44.63-.61.28-.17.64-.26,1.08-.26.67,0,1.13.19,1.39.58.26.39.4.91.4,1.56v3.34h-1.19v-3.01c0-.27-.02-.52-.07-.75-.04-.23-.14-.41-.28-.54-.15-.14-.38-.21-.7-.21-.41,0-.72.14-.94.42s-.32.69-.32,1.23v2.86h-1.19Z"/>
      <path class="cls-3" d="M296.03,222.45v-5.37h-1.67v-.84c.37-.01.67-.05.92-.12s.46-.17.63-.31c.17-.15.32-.35.44-.61h.86v7.25h-1.19Z"/>
      <path class="cls-3" d="M298.63,222.45v-1.39h1.42v1.39h-1.42Z"/>
      <path class="cls-3" d="M303.87,222.58c-.63,0-1.15-.14-1.56-.43s-.7-.7-.89-1.23c-.19-.53-.29-1.15-.29-1.87,0-.52.05-1.02.16-1.49.11-.48.27-.9.5-1.28.23-.37.53-.67.9-.88.37-.22.83-.33,1.36-.33s.94.09,1.27.27c.33.18.59.42.77.71s.29.61.33.95h-1.23c-.05-.33-.18-.58-.4-.75-.22-.16-.5-.25-.83-.25-.49,0-.88.22-1.16.65s-.43,1.03-.44,1.79c.17-.25.41-.45.7-.61s.65-.24,1.08-.24.85.11,1.21.32.65.5.86.88c.21.37.32.81.32,1.3,0,.47-.11.89-.33,1.27-.22.38-.53.68-.93.9s-.86.33-1.39.33ZM303.87,221.65c.42,0,.76-.14,1.02-.43.26-.29.4-.66.4-1.11s-.13-.83-.39-1.12-.6-.44-1.03-.44-.77.15-1.04.44c-.26.29-.4.67-.4,1.12s.13.82.39,1.11c.26.29.61.43,1.04.43Z"/>
      <path class="cls-3" d="M310.9,222.45v-1.69h-3.57v-1.02l3.61-4.54h1.16v4.47h1.21v1.09h-1.21v1.69h-1.2ZM308.64,219.67h2.26v-2.88l-2.26,2.88Z"/>
      <path class="cls-3" d="M314.12,218.06l.66-1.47h-.59v-1.39h1.42v1.48l-.76,1.38h-.73Z"/>
      <path class="cls-3" d="M320.97,224.2h-1.06c-.21-.29-.42-.67-.63-1.12s-.4-.96-.54-1.54c-.15-.57-.22-1.19-.22-1.85s.07-1.29.22-1.86c.15-.57.33-1.08.54-1.53.22-.45.43-.82.63-1.11h1.06c-.35.55-.64,1.21-.88,1.98-.24.77-.36,1.61-.36,2.52s.12,1.74.36,2.51c.24.77.53,1.44.88,1.99Z"/>
      <path class="cls-3" d="M324.31,222.58c-.66,0-1.21-.15-1.64-.46-.43-.31-.76-.74-.97-1.3-.21-.56-.32-1.23-.32-2s.11-1.43.32-1.99c.21-.56.54-.99.97-1.3.43-.31.98-.46,1.64-.46s1.21.15,1.64.46c.43.31.76.74.97,1.3.21.56.32,1.22.32,1.99s-.11,1.43-.32,2c-.21.56-.54,1-.97,1.3-.43.31-.98.46-1.64.46ZM324.31,221.65c.51,0,.92-.23,1.23-.7.31-.46.46-1.17.46-2.13s-.15-1.66-.46-2.12-.72-.69-1.23-.69-.92.23-1.23.69c-.31.46-.46,1.17-.46,2.12s.15,1.67.46,2.13c.31.46.72.7,1.23.7Z"/>
      <path class="cls-3" d="M328.18,222.45v-1.39h1.42v1.39h-1.42Z"/>
      <path class="cls-3" d="M332.25,216.24l-.22,1.79c.18-.16.41-.28.68-.37.27-.08.55-.12.83-.12.43,0,.83.1,1.2.29s.67.48.91.85c.23.37.34.83.34,1.38s-.13,1.02-.38,1.39-.59.66-1,.84c-.41.19-.86.29-1.35.29-.53,0-.99-.1-1.38-.29-.38-.2-.69-.47-.91-.82-.22-.35-.37-.74-.42-1.17h1.19c.14.9.65,1.35,1.52,1.35.27,0,.52-.06.75-.19.22-.12.4-.3.54-.54.14-.24.2-.52.2-.85,0-.37-.07-.67-.22-.9-.15-.23-.33-.4-.56-.51-.23-.11-.46-.17-.71-.17-.34,0-.62.08-.85.24s-.39.33-.49.54l-1.14-.09.49-3.98h4.42v1.04h-3.44Z"/>
      <path class="cls-3" d="M337.2,222.45v-7.25h2.09l1.67,5.72,1.69-5.72h2.07v7.25h-1.26v-6.13l-1.86,6.13h-1.28l-1.86-6.12v6.12h-1.26Z"/>
      <path class="cls-3" d="M346.82,224.2h-1.06c.35-.55.64-1.22.88-1.99.24-.77.37-1.61.37-2.51s-.12-1.75-.37-2.52c-.24-.77-.54-1.43-.88-1.98h1.06c.21.29.42.66.63,1.11.22.45.4.96.54,1.53.15.57.22,1.19.22,1.86s-.07,1.28-.22,1.85c-.15.57-.33,1.08-.54,1.54s-.43.82-.63,1.12Z"/>
      <path class="cls-3" d="M354.25,222.45h-.81c-.38,0-.67-.04-.88-.11-.21-.07-.36-.21-.45-.42-.09-.2-.13-.5-.13-.88v-3.07h-.85v-.9h.85v-1.4h1.19v1.4h1.08v.9h-1.08v2.89c0,.27.04.45.11.54s.24.13.51.13h.46v.92Z"/>
      <path class="cls-3" d="M357.59,222.58c-.34,0-.67-.05-.99-.17-.32-.11-.61-.28-.86-.51-.26-.23-.46-.52-.62-.88s-.23-.78-.23-1.27.08-.91.23-1.26.36-.64.62-.88c.26-.23.54-.4.86-.51.32-.11.65-.17.99-.17s.66.05.98.17c.32.11.61.28.86.51.26.23.46.52.62.88s.23.77.23,1.26-.08.91-.23,1.27-.36.65-.62.88c-.26.23-.54.4-.86.51-.32.11-.65.17-.98.17ZM357.59,221.6c.25,0,.49-.06.71-.19.22-.12.4-.32.53-.59.13-.27.2-.62.2-1.07s-.07-.79-.21-1.06-.31-.46-.53-.58-.45-.18-.71-.18-.49.06-.71.18-.4.31-.54.58-.21.62-.21,1.06.07.8.2,1.07c.13.27.31.47.54.59.22.12.46.19.71.19Z"/>
      <path class="cls-3" d="M366.17,222.58c-.63,0-1.15-.14-1.55-.43s-.7-.7-.9-1.23c-.19-.53-.29-1.15-.29-1.87,0-.52.05-1.02.16-1.49s.28-.9.5-1.28c.23-.37.53-.67.91-.88s.83-.33,1.36-.33.94.09,1.27.27c.33.18.59.42.77.71.18.29.29.61.33.95h-1.23c-.05-.33-.18-.58-.41-.75s-.5-.25-.83-.25c-.49,0-.88.22-1.16.65-.28.43-.43,1.03-.44,1.79.17-.25.41-.45.69-.61.29-.16.65-.24,1.09-.24s.85.11,1.21.32c.36.21.65.5.86.88.21.37.32.81.32,1.3,0,.47-.11.89-.33,1.27-.22.38-.53.68-.93.9-.4.22-.86.33-1.4.33ZM366.17,221.65c.42,0,.76-.14,1.03-.43.26-.29.39-.66.39-1.11s-.13-.83-.39-1.12-.6-.44-1.03-.44-.77.15-1.04.44-.39.67-.39,1.12.13.82.39,1.11c.26.29.61.43,1.04.43Z"/>
      <path class="cls-3" d="M371.34,216.24l-.22,1.79c.18-.16.41-.28.68-.37.27-.08.55-.12.83-.12.43,0,.83.1,1.2.29.37.19.67.48.9.85.23.37.35.83.35,1.38s-.13,1.02-.38,1.39c-.25.37-.59.66-1,.84-.41.19-.86.29-1.35.29-.53,0-.99-.1-1.38-.29-.38-.2-.69-.47-.91-.82-.22-.35-.36-.74-.42-1.17h1.19c.14.9.65,1.35,1.52,1.35.27,0,.52-.06.75-.19.22-.12.4-.3.54-.54.14-.24.21-.52.21-.85,0-.37-.07-.67-.22-.9-.15-.23-.33-.4-.56-.51-.23-.11-.46-.17-.71-.17-.34,0-.62.08-.85.24s-.39.33-.49.54l-1.14-.09.49-3.98h4.42v1.04h-3.44Z"/>
      <path class="cls-3" d="M376.09,222.45v-1.39h1.42v1.39h-1.42Z"/>
      <path class="cls-3" d="M381.33,222.58c-.63,0-1.15-.14-1.56-.43s-.7-.7-.89-1.23c-.19-.53-.29-1.15-.29-1.87,0-.52.05-1.02.16-1.49.11-.48.27-.9.5-1.28.23-.37.53-.67.9-.88.37-.22.83-.33,1.36-.33s.94.09,1.27.27c.33.18.59.42.77.71s.29.61.33.95h-1.23c-.05-.33-.18-.58-.4-.75-.22-.16-.5-.25-.83-.25-.49,0-.88.22-1.16.65s-.43,1.03-.44,1.79c.17-.25.41-.45.7-.61s.65-.24,1.08-.24.85.11,1.21.32.65.5.86.88c.21.37.32.81.32,1.3,0,.47-.11.89-.33,1.27-.22.38-.53.68-.93.9s-.86.33-1.39.33ZM381.33,221.65c.42,0,.76-.14,1.02-.43.26-.29.4-.66.4-1.11s-.13-.83-.39-1.12-.6-.44-1.03-.44-.77.15-1.04.44c-.26.29-.4.67-.4,1.12s.13.82.39,1.11c.26.29.61.43,1.04.43Z"/>
      <path class="cls-3" d="M384.98,218.06l.66-1.47h-.59v-1.39h1.42v1.48l-.76,1.38h-.73Z"/>
      <path class="cls-3" d="M391.83,224.2h-1.06c-.21-.29-.42-.67-.64-1.12-.22-.45-.4-.96-.54-1.54-.15-.57-.22-1.19-.22-1.85s.07-1.29.22-1.86c.15-.57.33-1.08.54-1.53.22-.45.43-.82.64-1.11h1.06c-.35.55-.64,1.21-.88,1.98s-.36,1.61-.36,2.52.12,1.74.36,2.51.53,1.44.88,1.99Z"/>
      <path class="cls-3" d="M392.37,222.45v-.99c.78-.57,1.47-1.1,2.07-1.59.6-.5,1.07-.97,1.41-1.41.34-.44.51-.87.51-1.29,0-.36-.11-.64-.33-.85-.22-.21-.52-.31-.9-.31-.23,0-.46.05-.67.14-.22.09-.39.25-.53.47-.14.22-.21.54-.21.94h-1.21c0-.52.11-.97.33-1.33.22-.37.54-.66.94-.86.4-.2.87-.3,1.4-.3.47,0,.88.08,1.25.24.36.16.65.38.86.67.21.29.31.65.31,1.08,0,.53-.16,1.04-.48,1.53-.32.49-.76.97-1.31,1.43-.55.46-1.17.92-1.85,1.38h3.78v1.04h-5.35Z"/>
      <path class="cls-3" d="M401.55,222.58c-.66,0-1.21-.15-1.64-.46s-.76-.74-.97-1.3c-.21-.56-.32-1.23-.32-2s.11-1.43.32-1.99c.21-.56.54-.99.97-1.3s.98-.46,1.64-.46,1.21.15,1.64.46.76.74.97,1.3c.21.56.32,1.22.32,1.99s-.11,1.43-.32,2c-.21.56-.54,1-.97,1.3s-.98.46-1.64.46ZM401.55,221.65c.51,0,.92-.23,1.23-.7.31-.46.46-1.17.46-2.13s-.15-1.66-.46-2.12-.72-.69-1.23-.69-.92.23-1.23.69-.46,1.17-.46,2.12.15,1.67.46,2.13c.31.46.72.7,1.23.7Z"/>
      <path class="cls-3" d="M405.76,222.45v-7.25h2.09l1.67,5.72,1.69-5.72h2.07v7.25h-1.26v-6.13l-1.86,6.13h-1.28l-1.86-6.12v6.12h-1.26Z"/>
      <path class="cls-3" d="M415.38,224.2h-1.06c.35-.55.64-1.22.88-1.99.24-.77.37-1.61.37-2.51s-.12-1.75-.37-2.52c-.24-.77-.54-1.43-.88-1.98h1.06c.21.29.42.66.63,1.11.22.45.4.96.54,1.53.15.57.22,1.19.22,1.86s-.07,1.28-.22,1.85c-.15.57-.33,1.08-.54,1.54s-.43.82-.63,1.12Z"/>
    </g>
    <line class="cls-2" x1="158.85" y1="184.09" x2="118.47" y2="184.09"/>
  </g>
</svg>