<svg width="640" height="320" viewBox="0 0 640 320" xmlns="http://www.w3.org/2000/svg">
  <defs>
    <style>
      .label { font-family: 'Space Grotesk', 'Inter', Arial, sans-serif; fill: #0f2941; font-size: 14px; }
      .note { font-family: 'Space Grotesk', 'Inter', Arial, sans-serif; fill: #6c7f94; font-size: 12px; }
      .port { fill: #0f2941; }
      .wire { stroke-width: 3; fill: none; stroke-linecap: round; }
    </style>
  </defs>
  <rect x="110" y="100" width="420" height="110" rx="14" fill="#f3f5f9" stroke="#c7d2e3" stroke-width="2"/>
  <text class="label" x="320" y="90" text-anchor="middle">3 output 24VDC Driver (MLE288-24DC-UD)</text>
  <rect x="140" y="140" width="80" height="50" rx="6" fill="#dfe7f3" stroke="#9fb4cf"/>
  <rect x="250" y="140" width="80" height="50" rx="6" fill="#dfe7f3" stroke="#9fb4cf"/>
  <rect x="360" y="140" width="80" height="50" rx="6" fill="#dfe7f3" stroke="#9fb4cf"/>
  <rect x="470" y="140" width="80" height="50" rx="6" fill="#dfe7f3" stroke="#9fb4cf"/>

  <text class="label" x="180" y="210" text-anchor="middle">Mains Input</text>
  <text class="note" x="180" y="225" text-anchor="middle">(dim or non-dim)</text>
  <text class="label" x="290" y="210" text-anchor="middle">0-10V Input</text>
  <text class="label" x="400" y="210" text-anchor="middle">24V PWM Output A</text>
  <text class="label" x="510" y="210" text-anchor="middle">24V PWM Output B</text>

  <circle cx="180" cy="80" r="6" class="port"/>
  <circle cx="290" cy="80" r="6" class="port"/>
  <circle cx="400" cy="270" r="6" class="port"/>
  <circle cx="510" cy="270" r="6" class="port"/>
  <circle cx="560" cy="270" r="6" class="port"/>

  <path class="wire" stroke="#ff7a64" d="M180 80 C180 110 180 120 180 140"/>
  <path class="wire" stroke="#8a7dff" d="M290 80 C290 110 290 120 290 140"/>
  <path class="wire" stroke="#2f8c9f" d="M430 190 C430 230 430 240 430 270"/>
  <path class="wire" stroke="#2f8c9f" d="M540 190 C540 230 540 240 540 270"/>
  <path class="wire" stroke="#2f8c9f" d="M590 190 C590 230 590 240 590 270"/>

  <text class="label" x="180" y="50" text-anchor="middle">100-277VAC</text>
  <text class="note" x="180" y="65" text-anchor="middle">50/60 Hz mains</text>
  <text class="label" x="290" y="60" text-anchor="middle">0-10V control</text>
  <text class="label" x="495" y="300" text-anchor="middle">To Flex One HO Exterior (16.4' max per spool)</text>
</svg>

