<?xml version="1.0" encoding="UTF-8"?>
<svg id="Layer_2" data-name="Layer 2" xmlns="http://www.w3.org/2000/svg" viewBox="0 0 548.52 341.38">
  <defs>
    <style>
      .cls-1, .cls-2, .cls-3 {
        fill: none;
      }

      .cls-4 {
        fill: #231f20;
      }

      .cls-5 {
        fill: #dfe8f4;
      }

      .cls-5, .cls-6 {
        stroke: #d3dceb;
      }

      .cls-5, .cls-6, .cls-2, .cls-3 {
        stroke-miterlimit: 10;
      }

      .cls-6 {
        fill: #f3f5fb;
      }

      .cls-2 {
        stroke: #08ae56;
      }

      .cls-2, .cls-3 {
        stroke-width: 4px;
      }

      .cls-3 {
        stroke: #f58876;
      }
    </style>
  </defs>
  <g id="Layer_1-2" data-name="Layer 1">
    <rect class="cls-6" x="30.15" y="90.71" width="484.85" height="124.24" rx="12" ry="12"/>
    <rect class="cls-5" x="52.44" y="131" width="67.42" height="43.18" rx="12" ry="12"/>
    <rect class="cls-5" x="134.64" y="131" width="67.42" height="43.18" rx="12" ry="12"/>
    <rect class="cls-5" x="259.64" y="131" width="67.42" height="43.18" rx="12" ry="12"/>
    <rect class="cls-5" x="336.91" y="131" width="67.42" height="43.18" rx="12" ry="12"/>
    <rect class="cls-5" x="417.21" y="131" width="67.42" height="43.18" rx="12" ry="12"/>
    <line class="cls-3" x1="88.02" y1="130.38" x2="88.02" y2="69.77"/>
    <line class="cls-3" x1="168.08" y1="130.38" x2="168.08" y2="69.77"/>
    <g>
      <path class="cls-4" d="M311.99,44.84l1.08.23c.34.07.69.16,1.04.28.35.11.68.26.98.44.3.18.54.42.73.71s.28.66.28,1.11-.1.83-.29,1.16c-.19.34-.45.62-.77.85-.32.23-.69.4-1.1.52-.41.12-.84.17-1.28.17-1.06,0-1.92-.26-2.57-.78-.65-.52-1.04-1.23-1.18-2.12h1.52c.11.54.36.95.75,1.22.39.27.89.41,1.51.41.53,0,.96-.11,1.31-.34.34-.22.52-.53.52-.92s-.17-.69-.5-.89c-.33-.2-.76-.36-1.28-.46l-1.08-.22c-.42-.1-.83-.24-1.21-.42-.38-.18-.69-.44-.93-.76s-.36-.72-.36-1.21c0-.43.1-.81.29-1.13s.46-.58.78-.79.68-.36,1.07-.46c.39-.1.78-.15,1.17-.15.54,0,1.06.08,1.54.25.48.17.89.44,1.23.8s.56.85.67,1.44h-1.51c-.13-.44-.38-.75-.76-.94-.38-.19-.79-.28-1.23-.28-.24,0-.49.04-.74.11-.26.07-.47.19-.65.36-.18.17-.27.39-.27.67,0,.31.12.56.35.73.24.18.54.31.91.4Z"/>
      <path class="cls-4" d="M317.38,50.16v-8.7h1.43v3.17c.17-.28.42-.52.76-.73s.77-.31,1.3-.31c.8,0,1.36.23,1.67.7s.47,1.09.47,1.87v4.01h-1.43v-3.61c0-.33-.03-.63-.08-.9-.05-.27-.17-.49-.34-.65s-.46-.25-.84-.25c-.49,0-.86.17-1.12.5s-.39.83-.39,1.48v3.43h-1.43Z"/>
      <path class="cls-4" d="M327.49,50.31c-.41,0-.8-.07-1.19-.2-.38-.13-.73-.34-1.04-.61-.31-.28-.55-.63-.74-1.06-.18-.43-.28-.93-.28-1.52s.09-1.09.28-1.51c.18-.42.43-.77.74-1.05.31-.28.65-.48,1.04-.61.38-.13.78-.2,1.19-.2s.79.07,1.18.2c.38.13.73.34,1.04.61s.55.63.74,1.05c.18.42.28.93.28,1.51s-.09,1.09-.28,1.52c-.18.43-.43.78-.74,1.06-.31.28-.65.48-1.04.61s-.78.2-1.18.2ZM327.49,49.14c.3,0,.59-.07.85-.22.26-.15.48-.38.64-.71.16-.32.24-.75.24-1.28s-.08-.95-.25-1.27c-.16-.32-.38-.55-.64-.7-.26-.14-.54-.22-.85-.22s-.59.07-.85.22c-.26.14-.48.38-.64.7s-.25.74-.25,1.27.08.95.24,1.28.37.56.64.71c.27.15.55.22.86.22Z"/>
      <path class="cls-4" d="M333.04,50.16l-1.73-6.46h1.5l1.09,4.62,1.08-4.62h1.48l1.08,4.62,1.09-4.62h1.5l-1.72,6.46h-1.5l-1.21-5.03-1.18,5.03h-1.49Z"/>
      <path class="cls-4" d="M341.21,42.87v-1.42h1.43v1.42h-1.43ZM341.21,50.16v-6.46h1.43v6.46h-1.43Z"/>
      <path class="cls-4" d="M344.36,50.16v-6.46h1.43v.92c.17-.28.42-.52.76-.73s.77-.31,1.3-.31c.8,0,1.36.23,1.67.7.32.46.47,1.09.47,1.87v4.01h-1.43v-3.61c0-.33-.03-.63-.08-.9-.05-.27-.17-.49-.34-.65-.18-.16-.46-.25-.84-.25-.49,0-.86.17-1.12.5-.26.33-.39.83-.39,1.48v3.43h-1.43Z"/>
      <path class="cls-4" d="M357.49,43.7v5.74c0,.7-.13,1.26-.38,1.7-.25.44-.6.76-1.05.97-.45.21-.98.31-1.58.31-.8,0-1.45-.18-1.94-.53-.49-.36-.8-.85-.92-1.48h1.43c.09.27.24.49.46.65s.54.24.97.24c.49,0,.88-.12,1.16-.37s.43-.66.43-1.25v-.74c-.42.72-1.1,1.08-2.03,1.08-.5,0-.97-.12-1.39-.37-.42-.25-.76-.61-1.01-1.09-.25-.48-.38-1.06-.38-1.75s.13-1.27.38-1.75c.25-.48.59-.84,1.01-1.09.42-.25.89-.37,1.39-.37.45,0,.85.09,1.2.28.35.19.63.45.83.8v-.96h1.42ZM354.46,48.85c.3,0,.58-.07.83-.2s.46-.36.61-.66c.16-.3.23-.7.23-1.2s-.08-.89-.23-1.19c-.16-.3-.36-.52-.61-.65s-.53-.2-.83-.2c-.48,0-.88.17-1.19.52-.32.35-.47.85-.47,1.52s.16,1.19.47,1.54c.32.35.71.52,1.19.52Z"/>
      <path class="cls-4" d="M362.05,50.16v-8.7h2.51l2,6.86,2.03-6.86h2.48v8.7h-1.51v-7.36l-2.23,7.36h-1.54l-2.23-7.34v7.34h-1.51Z"/>
      <path class="cls-4" d="M372.99,50.16v-8.7h1.54v7.36h4.44v1.34h-5.98Z"/>
      <path class="cls-4" d="M380.07,50.16v-8.7h6.19v1.34h-4.66v2.21h4.39v1.34h-4.39v2.46h4.66v1.34h-6.19Z"/>
      <path class="cls-4" d="M387.35,50.16v-1.19c.94-.68,1.76-1.32,2.48-1.91.72-.6,1.28-1.16,1.69-1.69s.61-1.05.61-1.54c0-.43-.13-.77-.4-1.02-.27-.25-.63-.37-1.07-.37-.28,0-.55.06-.81.17-.26.11-.47.3-.64.57-.16.27-.25.64-.26,1.12h-1.45c0-.62.13-1.16.4-1.6.27-.44.64-.79,1.12-1.03.48-.24,1.04-.36,1.68-.36.56,0,1.06.09,1.49.28.44.19.78.46,1.03.81.25.35.38.78.38,1.3,0,.64-.19,1.25-.58,1.84-.39.59-.91,1.16-1.57,1.72-.66.56-1.4,1.11-2.23,1.66h4.54v1.25h-6.42Z"/>
      <path class="cls-4" d="M398.15,50.31c-.62,0-1.19-.1-1.69-.31s-.9-.51-1.19-.91c-.29-.4-.44-.87-.44-1.43,0-.4.1-.8.29-1.19.19-.4.55-.72,1.07-.97-.38-.22-.65-.5-.83-.84-.18-.34-.26-.7-.26-1.09,0-.43.12-.82.37-1.16s.6-.61,1.06-.81c.46-.2,1-.29,1.63-.29s1.16.1,1.62.29c.46.2.81.47,1.06.81s.37.73.37,1.16c0,.39-.09.76-.26,1.09s-.45.62-.83.84c.52.25.88.57,1.07.97.19.4.29.79.29,1.19,0,.56-.15,1.04-.44,1.43-.29.4-.69.7-1.19.91s-1.06.31-1.69.31ZM398.15,49.2c.57,0,1.01-.15,1.34-.44s.49-.67.49-1.12-.16-.83-.49-1.13c-.32-.3-.77-.44-1.34-.44s-1.02.15-1.34.44c-.33.3-.49.67-.49,1.13s.16.82.49,1.12c.33.3.78.44,1.34.44ZM398.15,45.08c.5,0,.9-.13,1.19-.38s.43-.58.43-.97-.14-.7-.43-.94-.68-.36-1.19-.36-.91.12-1.21.36-.44.55-.44.94.15.72.44.97.69.38,1.21.38Z"/>
      <path class="cls-4" d="M405.89,50.31c-.62,0-1.19-.1-1.69-.31-.5-.21-.9-.51-1.19-.91-.29-.4-.44-.87-.44-1.43,0-.4.1-.8.29-1.19.19-.4.55-.72,1.07-.97-.38-.22-.65-.5-.83-.84s-.26-.7-.26-1.09c0-.43.12-.82.37-1.16.25-.34.6-.61,1.06-.81.46-.2,1-.29,1.63-.29s1.16.1,1.62.29c.46.2.81.47,1.06.81s.37.73.37,1.16c0,.39-.09.76-.26,1.09s-.45.62-.83.84c.52.25.88.57,1.07.97.19.4.29.79.29,1.19,0,.56-.15,1.04-.44,1.43-.29.4-.69.7-1.19.91s-1.06.31-1.69.31ZM405.89,49.2c.57,0,1.01-.15,1.34-.44s.49-.67.49-1.12-.16-.83-.49-1.13c-.32-.3-.77-.44-1.34-.44s-1.02.15-1.34.44c-.33.3-.49.67-.49,1.13s.16.82.49,1.12.78.44,1.34.44ZM405.89,45.08c.5,0,.9-.13,1.19-.38.29-.26.43-.58.43-.97s-.14-.7-.43-.94c-.29-.24-.68-.36-1.19-.36s-.91.12-1.21.36-.44.55-.44.94.15.72.44.97.69.38,1.21.38Z"/>
      <path class="cls-4" d="M410.35,47.53v-1.32h4.09v1.32h-4.09Z"/>
      <path class="cls-4" d="M415.22,50.16v-1.19c.94-.68,1.76-1.32,2.48-1.91.72-.6,1.28-1.16,1.69-1.69s.61-1.05.61-1.54c0-.43-.13-.77-.4-1.02-.27-.25-.63-.37-1.07-.37-.28,0-.55.06-.81.17-.26.11-.47.3-.64.57-.16.27-.25.64-.26,1.12h-1.45c0-.62.13-1.16.4-1.6.27-.44.64-.79,1.12-1.03.48-.24,1.04-.36,1.68-.36.56,0,1.06.09,1.49.28.44.19.78.46,1.03.81.25.35.38.78.38,1.3,0,.64-.19,1.25-.58,1.84s-.91,1.16-1.57,1.72c-.66.56-1.4,1.11-2.23,1.66h4.54v1.25h-6.42Z"/>
      <path class="cls-4" d="M426.68,50.16v-2.03h-4.28v-1.22l4.33-5.45h1.39v5.36h1.45v1.31h-1.45v2.03h-1.44ZM423.97,46.82h2.71v-3.46l-2.71,3.46Z"/>
      <path class="cls-4" d="M430.87,50.16v-8.7h2.57c.7,0,1.34.07,1.93.22.59.14,1.11.38,1.55.71.44.33.78.78,1.03,1.33.24.56.37,1.25.37,2.08s-.12,1.53-.37,2.09c-.24.56-.59,1.01-1.03,1.34-.44.33-.96.57-1.55.71-.59.14-1.24.22-1.93.22h-2.57ZM432.41,48.86h1.02c.42,0,.83-.03,1.22-.1.39-.07.74-.21,1.05-.41s.55-.51.73-.92c.18-.4.27-.95.27-1.63s-.09-1.21-.27-1.62c-.18-.41-.42-.71-.73-.92-.31-.2-.66-.34-1.05-.41-.39-.07-.8-.1-1.22-.1h-1.02v6.11Z"/>
      <path class="cls-4" d="M445.87,47.2h1.5c-.12.65-.36,1.2-.73,1.67s-.82.82-1.36,1.07c-.54.25-1.15.37-1.82.37-.86,0-1.59-.19-2.21-.56s-1.09-.9-1.41-1.58c-.32-.68-.49-1.47-.49-2.38s.17-1.69.52-2.36c.34-.67.83-1.19,1.46-1.57s1.37-.56,2.21-.56c.65,0,1.24.13,1.76.38.53.25.97.61,1.32,1.07.35.46.58,1.02.7,1.66h-1.51c-.13-.56-.39-1-.8-1.33s-.91-.49-1.53-.49c-.47,0-.9.12-1.28.37-.38.25-.69.61-.91,1.09-.22.48-.34,1.06-.34,1.75s.11,1.27.33,1.76c.22.48.52.85.91,1.1.39.25.83.38,1.31.38.6,0,1.11-.15,1.54-.46s.7-.76.83-1.36Z"/>
      <path class="cls-4" d="M448.37,47.53v-1.32h4.09v1.32h-4.09Z"/>
      <path class="cls-4" d="M461.12,41.46v5c0,1.3-.27,2.26-.82,2.9-.55.64-1.47.95-2.77.95-.82,0-1.5-.12-2.03-.37s-.92-.64-1.18-1.19c-.25-.55-.38-1.29-.38-2.21v-5.09h1.54v5.26c0,.77.15,1.34.44,1.73.3.38.83.58,1.61.58.53,0,.94-.09,1.24-.28.3-.19.51-.46.63-.83s.18-.81.18-1.33v-5.12h1.54Z"/>
      <path class="cls-4" d="M462.96,50.16v-8.7h2.57c.7,0,1.34.07,1.93.22.59.14,1.11.38,1.55.71.44.33.78.78,1.03,1.33.24.56.37,1.25.37,2.08s-.12,1.53-.37,2.09c-.24.56-.59,1.01-1.03,1.34-.44.33-.96.57-1.55.71-.59.14-1.24.22-1.93.22h-2.57ZM464.49,48.86h1.02c.42,0,.83-.03,1.22-.1.39-.07.74-.21,1.05-.41s.55-.51.73-.92c.18-.4.27-.95.27-1.63s-.09-1.21-.27-1.62c-.18-.41-.42-.71-.73-.92-.31-.2-.66-.34-1.05-.41-.39-.07-.8-.1-1.22-.1h-1.02v6.11Z"/>
      <path class="cls-4" d="M474.63,50.16v-8.7h2.57c.7,0,1.34.07,1.93.22.59.14,1.11.38,1.55.71.44.33.78.78,1.03,1.33.24.56.37,1.25.37,2.08s-.12,1.53-.37,2.09c-.24.56-.59,1.01-1.03,1.34-.44.33-.96.57-1.55.71-.59.14-1.24.22-1.93.22h-2.57ZM476.17,48.86h1.02c.42,0,.83-.03,1.22-.1.39-.07.74-.21,1.05-.41s.55-.51.73-.92c.18-.4.27-.95.27-1.63s-.09-1.21-.27-1.62c-.18-.41-.42-.71-.73-.92-.31-.2-.66-.34-1.05-.41-.39-.07-.8-.1-1.22-.1h-1.02v6.11Z"/>
      <path class="cls-4" d="M483.47,50.16v-6.46h1.39v1.16c.16-.38.39-.67.69-.88s.67-.32,1.11-.32h.15c.05,0,.11,0,.16.01v1.45c-.22-.03-.41-.05-.59-.05-.49,0-.86.13-1.11.4-.25.26-.38.72-.38,1.36v3.32h-1.43Z"/>
      <path class="cls-4" d="M488.1,42.87v-1.42h1.43v1.42h-1.43ZM488.1,50.16v-6.46h1.43v6.46h-1.43Z"/>
      <path class="cls-4" d="M492.91,50.16l-2.41-6.46h1.56l1.61,4.79,1.58-4.79h1.48l-2.39,6.46h-1.43Z"/>
      <path class="cls-4" d="M502.07,48.22h1.39c-.2.63-.57,1.14-1.1,1.52s-1.17.57-1.91.57c-.69,0-1.28-.14-1.78-.43s-.88-.69-1.14-1.2c-.26-.51-.4-1.1-.4-1.76s.15-1.27.44-1.78.68-.89,1.18-1.17c.49-.28,1.04-.41,1.64-.41.65,0,1.21.15,1.67.46.47.3.83.72,1.09,1.24.26.52.38,1.11.38,1.76v.14s0,.1-.01.17h-4.92c.05.44.16.79.35,1.06.18.26.41.46.67.58.26.12.53.18.8.18.44,0,.79-.08,1.06-.25.26-.17.46-.39.59-.66ZM500.39,44.72c-.26,0-.51.05-.75.14s-.46.25-.64.49c-.18.23-.31.55-.37.96h3.43c-.03-.47-.2-.85-.5-1.15s-.69-.44-1.17-.44Z"/>
      <path class="cls-4" d="M504.84,50.16v-6.46h1.39v1.16c.16-.38.39-.67.69-.88s.67-.32,1.11-.32h.15c.05,0,.11,0,.16.01v1.45c-.22-.03-.41-.05-.59-.05-.49,0-.86.13-1.11.4-.25.26-.38.72-.38,1.36v3.32h-1.43Z"/>
    </g>
    <g>
      <path class="cls-4" d="M60.8,50.22v-5.37h-1.67v-.84c.37-.01.67-.05.92-.12s.46-.17.64-.31c.17-.15.32-.35.44-.61h.86v7.25h-1.19Z"/>
      <path class="cls-4" d="M66.21,50.35c-.66,0-1.21-.15-1.64-.46-.43-.31-.76-.74-.97-1.3s-.32-1.23-.32-2,.11-1.43.32-1.99c.21-.56.54-.99.97-1.3.43-.31.98-.46,1.64-.46s1.21.15,1.64.46c.43.31.76.74.97,1.3.21.56.32,1.22.32,1.99s-.11,1.43-.32,2-.54,1-.97,1.3c-.43.31-.98.46-1.64.46ZM66.21,49.42c.51,0,.92-.23,1.23-.7.31-.46.46-1.17.46-2.13s-.15-1.66-.46-2.12-.72-.69-1.23-.69-.92.23-1.23.69c-.31.46-.46,1.17-.46,2.12s.15,1.67.46,2.13c.31.46.72.7,1.23.7Z"/>
      <path class="cls-4" d="M73.03,50.35c-.66,0-1.21-.15-1.64-.46-.43-.31-.76-.74-.97-1.3s-.32-1.23-.32-2,.11-1.43.32-1.99c.21-.56.54-.99.97-1.3.43-.31.98-.46,1.64-.46s1.21.15,1.64.46c.43.31.76.74.97,1.3.21.56.32,1.22.32,1.99s-.11,1.43-.32,2-.54,1-.97,1.3c-.43.31-.98.46-1.64.46ZM73.03,49.42c.51,0,.92-.23,1.23-.7.31-.46.46-1.17.46-2.13s-.15-1.66-.46-2.12-.72-.69-1.23-.69-.92.23-1.23.69c-.31.46-.46,1.17-.46,2.12s.15,1.67.46,2.13c.31.46.72.7,1.23.7Z"/>
      <path class="cls-4" d="M76.94,48.03v-1.1h3.41v1.1h-3.41Z"/>
      <path class="cls-4" d="M81,50.22v-.99c.78-.57,1.47-1.1,2.07-1.59s1.07-.97,1.41-1.41c.34-.44.51-.87.51-1.29,0-.36-.11-.64-.33-.85s-.52-.31-.9-.31c-.23,0-.46.05-.67.14-.22.09-.39.25-.53.47-.14.22-.21.54-.21.94h-1.21c0-.52.11-.97.33-1.33.22-.37.54-.66.94-.86s.87-.3,1.4-.3c.47,0,.88.08,1.25.24.36.16.65.38.86.67.21.29.31.65.31,1.08,0,.53-.16,1.04-.48,1.53-.32.49-.76.97-1.31,1.43-.55.46-1.17.92-1.85,1.38h3.78v1.04h-5.35Z"/>
      <path class="cls-4" d="M89.11,50.22h-1.35c.05-1.31.36-2.49.91-3.54s1.27-1.94,2.16-2.67h-3.86v-1.04h5.17v1.04c-.94.77-1.66,1.66-2.17,2.66-.51,1-.79,2.18-.86,3.55Z"/>
      <path class="cls-4" d="M94.66,50.22h-1.35c.05-1.31.36-2.49.91-3.54s1.27-1.94,2.16-2.67h-3.86v-1.04h5.17v1.04c-.94.77-1.66,1.66-2.17,2.66-.51,1-.79,2.18-.86,3.55Z"/>
      <path class="cls-4" d="M100.46,50.22l-2.47-7.25h1.39l1.88,5.88,1.86-5.88h1.32l-2.46,7.25h-1.52Z"/>
      <path class="cls-4" d="M104.03,50.22l2.7-7.25h1.45l2.73,7.25h-1.38l-.52-1.46h-3.14l-.51,1.46h-1.33ZM106.25,47.69h2.38l-1.2-3.39-1.18,3.39Z"/>
      <path class="cls-4" d="M116.58,47.76h1.25c-.1.54-.3,1-.6,1.39s-.68.68-1.13.89c-.45.21-.96.31-1.52.31-.71,0-1.33-.16-1.84-.47-.51-.31-.9-.75-1.17-1.32s-.4-1.23-.4-1.98.14-1.41.43-1.97c.29-.56.69-1,1.22-1.3.52-.31,1.14-.46,1.84-.46.54,0,1.03.1,1.47.31s.81.51,1.1.9c.29.39.49.85.58,1.38h-1.26c-.11-.47-.33-.84-.67-1.11-.34-.27-.76-.41-1.27-.41-.39,0-.75.1-1.07.31-.32.21-.57.51-.76.91s-.28.88-.28,1.46.09,1.06.28,1.46c.18.4.44.71.76.92s.69.31,1.1.31c.5,0,.93-.13,1.28-.38s.58-.63.69-1.13Z"/>
    </g>
    <g>
      <path class="cls-4" d="M53.6,192.72v-8.7h2.51l2,6.86,2.03-6.86h2.48v8.7h-1.51v-7.36l-2.23,7.36h-1.54l-2.23-7.34v7.34h-1.51Z"/>
      <path class="cls-4" d="M69.92,192.72h-1.44c-.05-.31-.07-.6-.07-.85-.43.67-1.16,1.01-2.2,1.01-.4,0-.77-.07-1.11-.22-.34-.15-.61-.36-.81-.64-.2-.28-.3-.62-.3-1.01,0-.52.18-.93.55-1.23.36-.3.87-.53,1.52-.69.65-.16,1.41-.28,2.27-.36v-.14c0-.5-.13-.86-.38-1.07s-.57-.31-.95-.31-.71.1-.94.29c-.24.2-.37.47-.4.83h-1.4c.04-.45.18-.84.41-1.17s.56-.59.96-.77.87-.28,1.39-.28c.9,0,1.58.21,2.04.64s.68,1.11.68,2.05v1.45c0,.5.02.97.05,1.39.03.42.08.78.13,1.09ZM68.39,190.02v-.31c-.58.06-1.09.13-1.52.22s-.77.21-1,.37c-.24.16-.35.37-.35.64s.1.49.31.65c.2.16.47.25.81.25.31,0,.6-.05.87-.16.27-.11.48-.29.65-.56.16-.26.25-.63.25-1.09Z"/>
      <path class="cls-4" d="M71.4,185.43v-1.42h1.43v1.42h-1.43ZM71.4,192.72v-6.46h1.43v6.46h-1.43Z"/>
      <path class="cls-4" d="M74.56,192.72v-6.46h1.43v.92c.17-.28.42-.52.76-.73s.77-.31,1.3-.31c.8,0,1.36.23,1.67.7.32.46.47,1.09.47,1.87v4.01h-1.43v-3.61c0-.33-.03-.63-.08-.9-.05-.27-.17-.49-.34-.65-.18-.16-.46-.25-.84-.25-.49,0-.86.17-1.12.5-.26.33-.39.83-.39,1.48v3.43h-1.43Z"/>
      <path class="cls-4" d="M83.82,188.7l1.02.19c.45.08.84.19,1.18.34.34.15.6.35.79.59.19.25.28.57.28.97,0,.45-.12.83-.37,1.13-.25.31-.58.54-1.01.7-.42.16-.9.24-1.44.24s-1.05-.1-1.47-.29c-.42-.2-.75-.46-1-.8-.24-.34-.39-.72-.45-1.15h1.42c.17.75.68,1.13,1.52,1.13.39,0,.72-.07.99-.22.27-.14.4-.34.4-.6s-.11-.45-.33-.59c-.22-.14-.51-.24-.87-.3l-1.03-.19c-.34-.06-.65-.17-.94-.31-.29-.14-.53-.33-.71-.58s-.28-.55-.28-.93c0-.42.12-.77.37-1.05.25-.28.58-.5.99-.65.41-.15.87-.23,1.36-.23.71,0,1.32.17,1.82.52s.81.85.91,1.51h-1.4c-.08-.33-.25-.56-.51-.7-.26-.14-.57-.2-.92-.2-.32,0-.61.06-.86.18s-.38.31-.38.56c0,.2.08.35.23.46.16.11.38.19.68.25Z"/>
      <path class="cls-4" d="M91.22,192.72v-8.7h1.54v8.7h-1.54Z"/>
      <path class="cls-4" d="M94.54,192.72v-6.46h1.43v.92c.17-.28.42-.52.76-.73s.77-.31,1.3-.31c.8,0,1.36.23,1.67.7.32.46.47,1.09.47,1.87v4.01h-1.43v-3.61c0-.33-.03-.63-.08-.9-.05-.27-.17-.49-.34-.65-.18-.16-.46-.25-.84-.25-.49,0-.86.17-1.12.5-.26.33-.39.83-.39,1.48v3.43h-1.43Z"/>
      <path class="cls-4" d="M101.82,194.82v-8.56h1.43v.96c.21-.34.49-.61.85-.8.36-.19.76-.28,1.22-.28.52,0,.99.13,1.41.4.42.27.76.65,1.01,1.15.25.5.38,1.1.38,1.81s-.13,1.31-.38,1.81-.59.89-1.01,1.16-.89.4-1.41.4c-.46,0-.86-.1-1.22-.29-.36-.19-.64-.46-.85-.8v3.04h-1.43ZM104.9,191.71c.5,0,.9-.19,1.22-.58s.47-.93.47-1.63-.16-1.25-.47-1.63-.72-.57-1.22-.57c-.3,0-.57.07-.83.22-.26.15-.47.38-.63.71-.16.32-.24.75-.24,1.27s.08.94.24,1.27c.16.32.37.56.63.71.26.15.54.23.83.23Z"/>
      <path class="cls-4" d="M113.48,192.72v-.91c-.18.31-.43.57-.73.77-.3.2-.72.3-1.24.3-.79,0-1.35-.23-1.66-.7-.32-.46-.47-1.09-.47-1.88v-4.03h1.43v3.65c0,.32.03.62.08.89.05.27.16.49.34.65.17.16.44.25.81.25.97,0,1.45-.65,1.45-1.94v-3.49h1.44v6.46h-1.44Z"/>
      <path class="cls-4" d="M119.74,192.72h-.97c-.46,0-.81-.04-1.06-.13s-.43-.25-.53-.5-.16-.6-.16-1.06v-3.68h-1.02v-1.08h1.02v-1.68h1.43v1.68h1.3v1.08h-1.3v3.47c0,.32.04.53.13.64.09.11.29.16.61.16h.55v1.1Z"/>
      <path class="cls-4" d="M57.01,203.72h-.85c-.17-.24-.33-.53-.51-.89-.17-.36-.32-.77-.44-1.23-.12-.46-.18-.95-.18-1.48s.06-1.03.18-1.49c.12-.46.26-.87.44-1.23s.34-.65.51-.88h.85c-.28.44-.51.96-.7,1.58-.19.62-.29,1.29-.29,2.02s.1,1.39.29,2.01c.19.62.43,1.15.7,1.59Z"/>
      <path class="cls-4" d="M60.42,202.32v-.62c-.13.23-.32.41-.56.54-.24.13-.51.19-.82.19-.34,0-.65-.09-.94-.27-.28-.18-.51-.44-.68-.77-.17-.34-.25-.74-.25-1.21s.08-.87.25-1.2c.17-.33.39-.59.68-.77.28-.18.59-.27.94-.27.3,0,.58.06.82.19.24.13.43.3.56.53v-2.14h.95v5.8h-.95ZM59.32,201.65c.2,0,.39-.05.56-.15.17-.1.31-.26.42-.48.11-.22.16-.5.16-.84s-.05-.63-.16-.84c-.11-.22-.25-.37-.42-.47-.17-.1-.36-.15-.56-.15-.33,0-.6.13-.81.38-.21.25-.32.61-.32,1.08s.1.83.32,1.09c.21.26.48.38.81.38Z"/>
      <path class="cls-4" d="M62.52,197.46v-.94h.95v.94h-.95ZM62.52,202.32v-4.3h.95v4.3h-.95Z"/>
      <path class="cls-4" d="M64.63,202.32v-4.3h.95v.62c.11-.19.27-.35.49-.49s.48-.21.81-.21.6.07.81.2c.2.13.35.31.45.55.17-.25.38-.44.63-.56.25-.12.53-.18.82-.18.52,0,.89.15,1.1.46.21.31.32.73.32,1.25v2.67h-.95v-2.41c0-.22-.02-.42-.05-.6-.04-.18-.11-.33-.23-.44-.12-.11-.3-.16-.54-.16-.29,0-.52.11-.69.33-.17.22-.25.55-.25.98v2.3h-.95v-2.41c0-.22-.02-.42-.05-.6s-.11-.33-.23-.44c-.12-.11-.3-.16-.54-.16-.29,0-.52.11-.69.33-.17.22-.25.55-.25.98v2.3h-.95Z"/>
      <path class="cls-4" d="M75.82,202.42c-.27,0-.54-.04-.79-.13-.26-.09-.49-.22-.69-.41-.21-.18-.37-.42-.49-.7-.12-.29-.18-.62-.18-1.01s.06-.72.18-1.01c.12-.28.29-.52.49-.7.21-.18.44-.32.69-.41.26-.09.52-.13.79-.13s.53.04.78.13c.26.09.49.22.69.41.21.18.37.42.49.7.12.28.18.62.18,1.01s-.06.73-.18,1.01c-.12.29-.29.52-.49.7-.21.18-.44.32-.69.41s-.52.13-.78.13ZM75.82,201.64c.2,0,.39-.05.57-.15.18-.1.32-.26.42-.47.11-.22.16-.5.16-.85s-.06-.63-.16-.85c-.11-.21-.25-.37-.42-.46s-.36-.14-.56-.14-.39.05-.57.14-.32.25-.43.46-.16.5-.16.85.05.64.16.85c.11.22.25.37.43.47s.37.15.57.15Z"/>
      <path class="cls-4" d="M78.86,202.32v-4.3h.93v.78c.11-.25.26-.45.46-.58.2-.14.45-.21.74-.22h.1s.07,0,.11,0v.97c-.14-.02-.27-.03-.39-.03-.33,0-.57.09-.74.26-.17.18-.25.48-.25.9v2.22h-.95Z"/>
      <path class="cls-4" d="M83.59,202.32v-4.3h.95v.62c.11-.19.28-.35.5-.49.22-.14.51-.21.86-.21.53,0,.91.15,1.12.46.21.31.32.73.32,1.25v2.67h-.95v-2.41c0-.22-.02-.42-.05-.6-.04-.18-.11-.33-.23-.44-.12-.11-.3-.16-.56-.16-.33,0-.57.11-.75.33-.17.22-.26.55-.26.99v2.29h-.95Z"/>
      <path class="cls-4" d="M90.34,202.42c-.27,0-.54-.04-.79-.13-.26-.09-.49-.22-.69-.41-.21-.18-.37-.42-.49-.7-.12-.29-.18-.62-.18-1.01s.06-.72.18-1.01c.12-.28.29-.52.49-.7.21-.18.44-.32.69-.41.26-.09.52-.13.79-.13s.53.04.78.13c.26.09.49.22.69.41.21.18.37.42.49.7.12.28.18.62.18,1.01s-.06.73-.18,1.01c-.12.29-.29.52-.49.7-.21.18-.44.32-.69.41s-.52.13-.78.13ZM90.34,201.64c.2,0,.39-.05.57-.15.18-.1.32-.26.42-.47.11-.22.16-.5.16-.85s-.06-.63-.16-.85c-.11-.21-.25-.37-.42-.46s-.36-.14-.56-.14-.39.05-.57.14-.32.25-.43.46-.16.5-.16.85.05.64.16.85c.11.22.25.37.43.47s.37.15.57.15Z"/>
      <path class="cls-4" d="M93.37,202.32v-4.3h.95v.62c.11-.19.28-.35.5-.49.22-.14.51-.21.86-.21.53,0,.91.15,1.12.46.21.31.32.73.32,1.25v2.67h-.95v-2.41c0-.22-.02-.42-.05-.6-.04-.18-.11-.33-.23-.44-.12-.11-.3-.16-.56-.16-.33,0-.57.11-.75.33-.17.22-.26.55-.26.99v2.29h-.95Z"/>
      <path class="cls-4" d="M98.05,200.57v-.88h2.73v.88h-2.73Z"/>
      <path class="cls-4" d="M104.74,202.32v-.62c-.13.23-.32.41-.56.54-.24.13-.51.19-.82.19-.34,0-.65-.09-.94-.27-.28-.18-.51-.44-.68-.77-.17-.34-.25-.74-.25-1.21s.08-.87.25-1.2c.17-.33.39-.59.68-.77.28-.18.59-.27.94-.27.3,0,.58.06.82.19.24.13.43.3.56.53v-2.14h.95v5.8h-.95ZM103.64,201.65c.2,0,.39-.05.56-.15.17-.1.31-.26.42-.48.11-.22.16-.5.16-.84s-.05-.63-.16-.84c-.11-.22-.25-.37-.42-.47-.17-.1-.36-.15-.56-.15-.33,0-.6.13-.81.38-.21.25-.32.61-.32,1.08s.1.83.32,1.09c.21.26.48.38.81.38Z"/>
      <path class="cls-4" d="M106.84,197.46v-.94h.95v.94h-.95ZM106.84,202.32v-4.3h.95v4.3h-.95Z"/>
      <path class="cls-4" d="M108.94,202.32v-4.3h.95v.62c.11-.19.27-.35.49-.49s.48-.21.81-.21.6.07.81.2c.2.13.35.31.45.55.17-.25.38-.44.63-.56.25-.12.53-.18.82-.18.52,0,.89.15,1.1.46.21.31.32.73.32,1.25v2.67h-.95v-2.41c0-.22-.02-.42-.05-.6-.04-.18-.11-.33-.23-.44-.12-.11-.3-.16-.54-.16-.29,0-.52.11-.69.33-.17.22-.25.55-.25.98v2.3h-.95v-2.41c0-.22-.02-.42-.05-.6s-.11-.33-.23-.44c-.12-.11-.3-.16-.54-.16-.29,0-.52.11-.69.33-.17.22-.25.55-.25.98v2.3h-.95Z"/>
      <path class="cls-4" d="M116.62,203.72h-.85c.28-.44.51-.97.71-1.59.19-.62.29-1.29.29-2.01s-.1-1.4-.29-2.02c-.19-.62-.43-1.15-.71-1.58h.85c.17.23.33.52.51.88s.32.77.44,1.23c.12.46.18.96.18,1.49s-.06,1.02-.18,1.48c-.12.46-.26.87-.44,1.23-.17.36-.34.66-.51.89Z"/>
    </g>
    <g>
      <path class="cls-4" d="M138.4,193.05c-.79,0-1.45-.18-1.97-.55-.52-.37-.91-.89-1.16-1.57s-.38-1.47-.38-2.39.13-1.72.38-2.39.64-1.19,1.16-1.56,1.18-.55,1.97-.55,1.45.18,1.97.55.91.89,1.16,1.56c.26.67.38,1.47.38,2.39s-.13,1.72-.38,2.39c-.26.68-.64,1.2-1.16,1.57-.52.37-1.18.55-1.97.55ZM138.4,191.93c.62,0,1.11-.28,1.48-.83s.55-1.41.55-2.56-.18-1.99-.55-2.54c-.37-.55-.86-.83-1.48-.83s-1.11.28-1.48.83c-.37.55-.55,1.4-.55,2.54s.18,2.01.55,2.56c.37.56.86.83,1.48.83Z"/>
      <path class="cls-4" d="M143.09,190.27v-1.32h4.09v1.32h-4.09Z"/>
      <path class="cls-4" d="M149.4,192.89v-6.44h-2v-1.01c.44-.02.81-.06,1.11-.14.3-.08.55-.2.76-.38s.38-.42.53-.73h1.03v8.7h-1.43Z"/>
      <path class="cls-4" d="M155.89,193.05c-.79,0-1.45-.18-1.97-.55-.52-.37-.91-.89-1.16-1.57s-.38-1.47-.38-2.39.13-1.72.38-2.39.64-1.19,1.16-1.56,1.18-.55,1.97-.55,1.45.18,1.97.55.91.89,1.16,1.56c.26.67.38,1.47.38,2.39s-.13,1.72-.38,2.39c-.26.68-.64,1.2-1.16,1.57-.52.37-1.18.55-1.97.55ZM155.89,191.93c.62,0,1.11-.28,1.48-.83s.55-1.41.55-2.56-.18-1.99-.55-2.54c-.37-.55-.86-.83-1.48-.83s-1.11.28-1.48.83c-.37.55-.55,1.4-.55,2.54s.18,2.01.55,2.56c.37.56.86.83,1.48.83Z"/>
      <path class="cls-4" d="M162.85,192.89l-2.96-8.7h1.67l2.26,7.06,2.23-7.06h1.58l-2.95,8.7h-1.82Z"/>
      <path class="cls-4" d="M171.17,192.89v-8.7h1.54v8.7h-1.54Z"/>
      <path class="cls-4" d="M174.49,192.89v-6.46h1.43v.92c.17-.28.42-.52.76-.73s.77-.31,1.3-.31c.8,0,1.36.23,1.67.7.32.46.47,1.09.47,1.87v4.01h-1.43v-3.61c0-.33-.03-.63-.08-.9-.05-.27-.17-.49-.34-.65-.18-.16-.46-.25-.84-.25-.49,0-.86.17-1.12.5-.26.33-.39.83-.39,1.48v3.43h-1.43Z"/>
      <path class="cls-4" d="M181.78,194.99v-8.56h1.43v.96c.21-.34.49-.61.85-.8.36-.19.76-.28,1.22-.28.52,0,.99.13,1.41.4.42.27.76.65,1.01,1.15.25.5.38,1.1.38,1.81s-.13,1.31-.38,1.81-.59.89-1.01,1.16-.89.4-1.41.4c-.46,0-.86-.1-1.22-.29-.36-.19-.64-.46-.85-.8v3.04h-1.43ZM184.85,191.89c.5,0,.9-.19,1.22-.58s.47-.93.47-1.63-.16-1.25-.47-1.63-.72-.57-1.22-.57c-.3,0-.57.07-.83.22-.26.15-.47.38-.63.71-.16.32-.24.75-.24,1.27s.08.94.24,1.27c.16.32.37.56.63.71.26.15.54.23.83.23Z"/>
      <path class="cls-4" d="M193.43,192.89v-.91c-.18.31-.43.57-.73.77-.3.2-.72.3-1.24.3-.79,0-1.35-.23-1.66-.7-.32-.46-.47-1.09-.47-1.88v-4.03h1.43v3.65c0,.32.03.62.08.89.05.27.16.49.34.65.17.16.44.25.81.25.97,0,1.45-.65,1.45-1.94v-3.49h1.44v6.46h-1.44Z"/>
      <path class="cls-4" d="M199.69,192.89h-.97c-.46,0-.81-.04-1.06-.13s-.43-.25-.53-.5-.16-.6-.16-1.06v-3.68h-1.02v-1.08h1.02v-1.68h1.43v1.68h1.3v1.08h-1.3v3.47c0,.32.04.53.13.64.09.11.29.16.61.16h.55v1.1Z"/>
    </g>
    <g>
      <path class="cls-4" d="M265.5,108.56v-1.19c.94-.68,1.76-1.32,2.48-1.91.72-.6,1.28-1.16,1.69-1.69.41-.53.61-1.05.61-1.54,0-.43-.13-.77-.4-1.02-.27-.25-.63-.37-1.07-.37-.28,0-.55.06-.81.17-.26.11-.47.3-.64.57-.16.27-.25.64-.26,1.12h-1.45c0-.62.13-1.16.4-1.6.27-.44.64-.79,1.12-1.03s1.04-.36,1.68-.36c.56,0,1.06.09,1.49.28.44.19.78.46,1.03.81.25.35.38.78.38,1.3,0,.64-.19,1.25-.58,1.84s-.91,1.16-1.57,1.72c-.66.56-1.4,1.11-2.23,1.66h4.54v1.25h-6.42Z"/>
      <path class="cls-4" d="M276.96,108.56v-2.03h-4.28v-1.22l4.33-5.45h1.39v5.36h1.45v1.31h-1.45v2.03h-1.44ZM274.25,105.22h2.71v-3.46l-2.71,3.46Z"/>
      <path class="cls-4" d="M282.83,108.56l-2.96-8.7h1.67l2.26,7.06,2.23-7.06h1.58l-2.95,8.7h-1.82Z"/>
      <path class="cls-4" d="M291.14,108.56v-8.7h2.96c.73,0,1.37.07,1.93.22.56.14,1,.41,1.32.8.32.39.48.95.48,1.69,0,.55-.09,1.01-.28,1.36-.18.36-.44.63-.77.83s-.73.34-1.18.41-.96.11-1.5.11h-1.43v3.28h-1.54ZM292.68,103.96h1.51c.38,0,.73-.03,1.04-.09.31-.06.56-.19.74-.39.18-.2.27-.51.27-.92s-.09-.71-.27-.91c-.18-.2-.43-.33-.74-.4-.31-.06-.66-.1-1.04-.1h-1.51v2.81Z"/>
      <path class="cls-4" d="M300.48,108.56l-2.12-8.7h1.62l1.49,6.8,1.45-6.8h1.69l1.56,6.84,1.4-6.84h1.58l-2.1,8.7h-1.76l-1.54-6.77-1.52,6.77h-1.75Z"/>
      <path class="cls-4" d="M310.38,108.56v-8.7h2.51l2,6.86,2.03-6.86h2.48v8.7h-1.51v-7.36l-2.23,7.36h-1.54l-2.23-7.34v7.34h-1.51Z"/>
      <path class="cls-4" d="M271.93,123.11c-.86,0-1.6-.19-2.24-.58-.64-.38-1.13-.91-1.48-1.59-.35-.68-.53-1.46-.53-2.35s.18-1.67.53-2.35c.35-.68.85-1.2,1.48-1.58.64-.38,1.38-.57,2.24-.57s1.6.19,2.24.57c.64.38,1.13.91,1.48,1.58.35.68.53,1.46.53,2.35s-.18,1.67-.53,2.35c-.35.68-.85,1.21-1.48,1.59-.64.38-1.38.58-2.24.58ZM271.93,121.83c.49,0,.93-.12,1.33-.37s.72-.61.95-1.09c.24-.48.35-1.07.35-1.76s-.12-1.28-.35-1.76c-.24-.48-.55-.84-.95-1.09s-.84-.37-1.33-.37-.93.12-1.33.37-.72.61-.96,1.09c-.24.48-.36,1.07-.36,1.76s.12,1.28.36,1.76c.24.48.56.84.96,1.09s.84.37,1.33.37Z"/>
      <path class="cls-4" d="M281.58,122.96v-.91c-.18.31-.43.57-.73.77-.3.2-.72.3-1.24.3-.79,0-1.35-.23-1.66-.7-.32-.46-.47-1.09-.47-1.88v-4.03h1.43v3.65c0,.32.03.62.08.89.05.27.16.49.34.65s.44.25.81.25c.97,0,1.45-.65,1.45-1.94v-3.49h1.44v6.46h-1.44Z"/>
      <path class="cls-4" d="M287.84,122.96h-.97c-.46,0-.81-.04-1.06-.13s-.43-.25-.53-.5c-.1-.24-.16-.6-.16-1.06v-3.68h-1.02v-1.08h1.02v-1.68h1.43v1.68h1.3v1.08h-1.3v3.47c0,.32.04.53.13.64.09.11.29.16.61.16h.55v1.1Z"/>
      <path class="cls-4" d="M289.12,125.06v-8.56h1.43v.96c.21-.34.49-.61.85-.8.36-.19.76-.28,1.22-.28.52,0,.99.13,1.41.4.42.27.76.65,1.01,1.15.25.5.38,1.1.38,1.81s-.13,1.31-.38,1.81-.59.89-1.01,1.16-.89.4-1.41.4c-.46,0-.86-.1-1.22-.29-.36-.19-.64-.46-.85-.8v3.04h-1.43ZM292.19,121.95c.5,0,.9-.19,1.22-.58.32-.38.47-.93.47-1.63s-.16-1.25-.47-1.63c-.32-.38-.72-.57-1.22-.57-.3,0-.57.07-.83.22-.26.15-.47.38-.63.71-.16.32-.24.75-.24,1.27s.08.94.24,1.27c.16.32.37.56.63.71.26.15.54.23.83.23Z"/>
      <path class="cls-4" d="M300.77,122.96v-.91c-.18.31-.43.57-.73.77-.3.2-.72.3-1.24.3-.79,0-1.35-.23-1.66-.7-.32-.46-.47-1.09-.47-1.88v-4.03h1.43v3.65c0,.32.03.62.08.89.05.27.16.49.34.65.17.16.44.25.81.25.97,0,1.45-.65,1.45-1.94v-3.49h1.44v6.46h-1.44Z"/>
      <path class="cls-4" d="M307.03,122.96h-.97c-.46,0-.81-.04-1.06-.13s-.43-.25-.53-.5c-.1-.24-.16-.6-.16-1.06v-3.68h-1.02v-1.08h1.02v-1.68h1.43v1.68h1.3v1.08h-1.3v3.47c0,.32.04.53.13.64.09.11.29.16.61.16h.55v1.1Z"/>
      <path class="cls-4" d="M309.92,122.96l3.24-8.7h1.74l3.28,8.7h-1.66l-.62-1.75h-3.77l-.61,1.75h-1.6ZM312.59,119.92h2.86l-1.44-4.07-1.42,4.07Z"/>
    </g>
    <circle class="cls-4" cx="88.05" cy="66.74" r="6.06"/>
    <circle class="cls-4" cx="168.11" cy="66.74" r="6.06"/>
    <g>
      <path class="cls-4" d="M258.44,261.09v-7.25h4.95v1.12h-3.67v1.84h3.45v1.12h-3.45v3.17h-1.28Z"/>
      <path class="cls-4" d="M264.41,261.09v-7.25h1.19v7.25h-1.19Z"/>
      <path class="cls-4" d="M270.81,259.48h1.16c-.17.53-.47.95-.92,1.27s-.98.47-1.59.47c-.57,0-1.07-.12-1.48-.36-.41-.24-.73-.57-.95-1-.22-.43-.33-.92-.33-1.47s.12-1.06.37-1.48c.24-.42.57-.75.98-.98.41-.23.86-.34,1.36-.34.54,0,1.01.13,1.4.38.39.25.69.6.91,1.03s.32.92.32,1.47v.12s0,.09,0,.14h-4.1c.04.37.14.66.29.88.15.22.34.38.56.48.22.1.44.15.67.15.37,0,.66-.07.88-.21.22-.14.38-.32.49-.55ZM269.41,256.56c-.21,0-.42.04-.62.12-.2.08-.38.21-.53.41-.15.19-.26.46-.31.8h2.86c-.03-.39-.17-.71-.42-.96s-.57-.37-.98-.37Z"/>
      <path class="cls-4" d="M272.18,261.09l2.01-2.74-1.9-2.64h1.38l1.22,1.7,1.24-1.7h1.29l-1.89,2.58,2.03,2.8h-1.38l-1.35-1.86-1.34,1.86h-1.31Z"/>
      <path class="cls-4" d="M285.88,261.09l-.05-.87c-.23.35-.54.6-.94.76-.39.16-.83.24-1.33.24-.7,0-1.3-.16-1.8-.47s-.88-.76-1.15-1.33-.4-1.22-.4-1.97.15-1.42.44-1.98c.29-.56.7-.99,1.22-1.3s1.13-.46,1.83-.46c.51,0,.99.09,1.42.27.43.18.79.44,1.08.78s.49.76.59,1.25h-1.25c-.11-.35-.31-.64-.62-.88s-.73-.35-1.26-.35c-.39,0-.75.1-1.08.3s-.58.5-.77.89c-.19.39-.29.88-.29,1.47s.09,1.05.27,1.46c.18.4.43.71.76.92.32.21.69.32,1.11.32.23,0,.45-.03.68-.08.23-.05.43-.14.62-.26.19-.12.34-.29.46-.5.12-.21.17-.48.17-.8v-.17h-1.86v-1.08h3.1v3.83h-.99Z"/>
      <path class="cls-4" d="M288.23,261.09v-5.38h1.16v.97c.13-.31.33-.56.58-.73.25-.17.56-.26.92-.27h.12s.09,0,.13,0v1.21c-.18-.03-.34-.04-.49-.04-.41,0-.71.11-.92.33-.21.22-.31.6-.31,1.13v2.77h-1.19Z"/>
      <path class="cls-4" d="M296.47,261.09h-1.2c-.04-.26-.06-.5-.06-.71-.36.56-.97.84-1.83.84-.33,0-.64-.06-.92-.18-.28-.12-.51-.3-.67-.54-.17-.23-.25-.51-.25-.84,0-.43.15-.78.46-1.03.3-.25.73-.44,1.27-.58.54-.13,1.18-.23,1.9-.3v-.12c0-.42-.11-.72-.32-.89-.21-.17-.47-.26-.79-.26s-.59.08-.79.24c-.2.16-.31.4-.33.7h-1.17c.03-.37.15-.7.34-.97.2-.28.46-.49.8-.65.34-.15.72-.23,1.15-.23.75,0,1.32.18,1.7.54.38.36.57.92.57,1.71v1.21c0,.42.01.8.04,1.15.03.35.06.65.11.91ZM295.2,258.84v-.26c-.49.05-.91.11-1.27.18-.36.07-.64.17-.84.3-.2.13-.29.31-.29.54s.08.41.26.54c.17.14.39.21.67.21.26,0,.5-.04.72-.13s.4-.25.54-.46.21-.52.21-.91Z"/>
      <path class="cls-4" d="M297.3,261.09v-.99l3.01-3.4h-2.81v-.99h4.27v.99l-3.01,3.4h3.09v.99h-4.55Z"/>
      <path class="cls-4" d="M306.59,259.48h1.16c-.17.53-.47.95-.92,1.27-.45.32-.98.47-1.59.47-.57,0-1.07-.12-1.48-.36-.41-.24-.73-.57-.95-1-.22-.43-.33-.92-.33-1.47s.12-1.06.37-1.48c.24-.42.57-.75.98-.98.41-.23.87-.34,1.37-.34.54,0,1,.13,1.39.38.39.25.69.6.91,1.03.21.43.32.92.32,1.47v.12s0,.09,0,.14h-4.1c.04.37.14.66.29.88.15.22.34.38.56.48.22.1.44.15.67.15.37,0,.66-.07.88-.21.22-.14.38-.32.49-.55ZM305.19,256.56c-.21,0-.42.04-.62.12-.2.08-.38.21-.54.41s-.26.46-.31.8h2.86c-.03-.39-.17-.71-.42-.96s-.57-.37-.97-.37Z"/>
      <path class="cls-4" d="M311.27,261.09v-7.25h1.28v2.96h3.49v-2.96h1.28v7.25h-1.28v-3.17h-3.49v3.17h-1.28Z"/>
      <path class="cls-4" d="M322.08,261.22c-.71,0-1.33-.16-1.87-.48-.53-.32-.94-.76-1.24-1.33-.29-.56-.44-1.21-.44-1.96s.15-1.39.44-1.96c.29-.56.71-1,1.24-1.32.53-.32,1.15-.47,1.87-.47s1.33.16,1.87.47c.53.32.94.76,1.23,1.32.29.56.44,1.21.44,1.96s-.15,1.39-.44,1.96c-.29.56-.71,1-1.23,1.33-.53.32-1.15.48-1.87.48ZM322.08,260.15c.41,0,.78-.1,1.11-.31.33-.21.6-.51.8-.91.2-.4.29-.89.29-1.47s-.1-1.07-.29-1.47c-.2-.4-.46-.7-.8-.91-.33-.2-.7-.3-1.11-.3s-.78.1-1.11.3-.6.5-.8.91c-.2.4-.3.89-.3,1.47s.1,1.07.3,1.47c.2.4.47.7.8.91s.7.31,1.11.31Z"/>
      <path class="cls-4" d="M267.01,273.09v-5.37h-1.67v-.84c.37-.01.67-.05.92-.12s.46-.17.64-.31c.17-.15.32-.35.44-.61h.86v7.25h-1.19Z"/>
      <path class="cls-4" d="M271.26,273.09l2.01-2.74-1.9-2.64h1.38l1.22,1.7,1.24-1.7h1.29l-1.89,2.58,2.03,2.8h-1.38l-1.35-1.86-1.34,1.86h-1.31Z"/>
      <path class="cls-4" d="M280.7,273.09v-5.37h-1.67v-.84c.37-.01.67-.05.92-.12s.46-.17.64-.31c.17-.15.32-.35.44-.61h.86v7.25h-1.19Z"/>
      <path class="cls-4" d="M284.37,267.91h-1.2c.05-.47.19-.86.42-1.19.24-.33.55-.58.95-.75.39-.17.84-.26,1.34-.26.43,0,.83.06,1.2.19.37.13.68.33.91.6.23.27.35.63.35,1.08,0,.37-.1.71-.3,1-.2.29-.47.52-.81.67.47.16.81.41,1,.74.19.33.29.68.29,1.04,0,.49-.13.9-.38,1.23-.25.33-.59.57-1,.73-.41.16-.86.24-1.34.24-.8,0-1.44-.21-1.91-.64s-.74-.99-.81-1.68h1.2c.05.44.22.78.49,1.03.27.24.62.37,1.05.37s.79-.11,1.06-.33c.27-.22.4-.53.4-.93,0-.29-.08-.53-.25-.71-.17-.18-.39-.31-.67-.39s-.6-.12-.96-.12h-.28v-1.03h.24c.57,0,1.01-.09,1.32-.26.31-.17.46-.45.46-.84,0-.35-.13-.61-.38-.78-.26-.17-.56-.26-.9-.26-.42,0-.76.11-1.01.33-.26.22-.41.53-.46.93Z"/>
      <path class="cls-4" d="M289.58,273.09v-1.39h1.42v1.39h-1.42Z"/>
      <path class="cls-4" d="M292.78,273.09v-5.37h-1.67v-.84c.37-.01.67-.05.92-.12s.46-.17.63-.31c.17-.15.32-.35.44-.61h.86v7.25h-1.19Z"/>
      <path class="cls-4" d="M295.31,268.7l.66-1.47h-.59v-1.39h1.42v1.48l-.76,1.38h-.73Z"/>
      <path class="cls-4" d="M302.16,274.84h-1.06c-.21-.29-.42-.67-.63-1.12s-.4-.96-.54-1.54c-.15-.57-.22-1.19-.22-1.85s.07-1.29.22-1.86c.15-.57.33-1.08.54-1.53.22-.45.43-.82.63-1.11h1.06c-.35.55-.64,1.21-.88,1.98-.24.77-.36,1.61-.36,2.52s.12,1.74.36,2.51c.24.77.53,1.44.88,1.99Z"/>
      <path class="cls-4" d="M305.85,273.09v-1.69h-3.57v-1.02l3.61-4.54h1.16v4.47h1.21v1.09h-1.21v1.69h-1.2ZM303.59,270.31h2.26v-2.88l-2.26,2.88Z"/>
      <path class="cls-4" d="M309.34,273.09v-7.25h2.09l1.67,5.72,1.69-5.72h2.07v7.25h-1.26v-6.13l-1.86,6.13h-1.28l-1.86-6.12v6.12h-1.26Z"/>
      <path class="cls-4" d="M318.96,274.84h-1.06c.35-.55.64-1.22.88-1.99.24-.77.37-1.61.37-2.51s-.12-1.75-.37-2.52c-.24-.77-.54-1.43-.88-1.98h1.06c.21.29.42.66.63,1.11.22.45.4.96.54,1.53.15.57.22,1.19.22,1.86s-.07,1.28-.22,1.85c-.15.57-.33,1.08-.54,1.54s-.43.82-.63,1.12Z"/>
      <path class="cls-4" d="M268.54,285.09v-7.25h2.09l1.67,5.72,1.69-5.72h2.07v7.25h-1.26v-6.13l-1.86,6.13h-1.28l-1.86-6.12v6.12h-1.26Z"/>
      <path class="cls-4" d="M282.14,285.09h-1.2c-.04-.26-.06-.5-.06-.71-.36.56-.97.84-1.83.84-.33,0-.64-.06-.92-.18-.28-.12-.51-.3-.68-.54s-.25-.51-.25-.84c0-.43.15-.78.46-1.03s.73-.44,1.27-.58c.54-.13,1.18-.23,1.9-.3v-.12c0-.42-.11-.72-.32-.89-.21-.17-.47-.26-.79-.26s-.59.08-.79.24c-.2.16-.31.4-.33.7h-1.17c.03-.37.15-.7.34-.97.2-.28.46-.49.8-.65.34-.15.72-.23,1.15-.23.75,0,1.32.18,1.7.54.38.36.57.92.57,1.71v1.21c0,.42.01.8.04,1.15.03.35.06.65.11.91ZM280.87,282.84v-.26c-.49.05-.91.11-1.27.18-.36.07-.64.17-.84.3-.2.13-.29.31-.29.54s.08.41.26.54c.17.14.4.21.68.21.26,0,.5-.04.72-.13s.4-.25.54-.46.21-.52.21-.91Z"/>
      <path class="cls-4" d="M282.68,285.09l2.01-2.74-1.9-2.64h1.38l1.22,1.7,1.24-1.7h1.29l-1.89,2.58,2.03,2.8h-1.38l-1.35-1.86-1.34,1.86h-1.31Z"/>
      <path class="cls-4" d="M293.17,280.66l.9.19c.29.06.58.14.87.23.29.09.56.22.81.37s.45.35.61.59.23.55.23.92-.08.69-.24.97c-.16.28-.38.52-.65.71-.27.19-.58.33-.92.43s-.7.14-1.06.14c-.89,0-1.6-.22-2.14-.65-.54-.43-.87-1.02-.98-1.77h1.27c.09.45.3.79.62,1.02s.74.34,1.25.34c.44,0,.8-.09,1.09-.28.29-.19.43-.44.43-.77s-.14-.57-.42-.74c-.28-.17-.63-.3-1.07-.39l-.9-.18c-.35-.08-.69-.2-1-.35-.32-.15-.58-.36-.78-.63s-.3-.6-.3-1.01c0-.36.08-.67.25-.94.16-.27.38-.49.65-.66.27-.17.57-.3.89-.38.32-.08.65-.12.97-.12.45,0,.88.07,1.28.21.4.14.74.36,1.02.67s.47.71.56,1.2h-1.26c-.11-.37-.32-.63-.63-.79s-.66-.24-1.02-.24c-.2,0-.41.03-.62.09-.21.06-.4.16-.54.3-.15.14-.23.33-.23.56,0,.26.1.46.29.61.2.15.45.26.75.33Z"/>
      <path class="cls-4" d="M297.66,286.84v-7.13h1.19v.8c.17-.29.41-.51.71-.67.3-.16.63-.24,1.01-.24.43,0,.83.11,1.17.34.35.22.63.54.84.96.21.42.32.92.32,1.5s-.11,1.09-.32,1.51-.49.74-.84.96-.74.33-1.17.33c-.38,0-.72-.08-1.01-.24-.3-.16-.53-.38-.71-.67v2.53h-1.19ZM300.22,284.25c.41,0,.75-.16,1.02-.48.26-.32.39-.77.39-1.36s-.13-1.04-.39-1.36c-.26-.32-.6-.47-1.02-.47-.25,0-.48.06-.69.18-.22.12-.39.32-.53.59-.13.27-.2.62-.2,1.06s.07.79.2,1.05c.13.27.31.47.53.59.22.13.45.19.69.19Z"/>
      <path class="cls-4" d="M306.37,285.22c-.34,0-.67-.05-.99-.17-.32-.11-.61-.28-.87-.51-.26-.23-.46-.52-.62-.88s-.23-.78-.23-1.27.08-.91.23-1.26.36-.64.62-.88c.26-.23.54-.4.87-.51s.65-.17.99-.17.66.05.98.17c.32.11.61.28.87.51.26.23.46.52.62.88s.23.77.23,1.26-.08.91-.23,1.27-.36.65-.62.88c-.26.23-.54.4-.87.51-.32.11-.65.17-.98.17ZM306.37,284.24c.25,0,.49-.06.71-.19.22-.12.4-.32.53-.59.13-.27.2-.62.2-1.07s-.07-.79-.21-1.06-.31-.46-.53-.58c-.22-.12-.45-.18-.71-.18s-.49.06-.71.18c-.22.12-.4.31-.54.58s-.21.62-.21,1.06.07.8.2,1.07c.13.27.31.47.54.59.22.12.46.19.71.19Z"/>
      <path class="cls-4" d="M312.52,285.22c-.34,0-.67-.05-.99-.17-.32-.11-.61-.28-.86-.51-.26-.23-.46-.52-.62-.88s-.23-.78-.23-1.27.08-.91.23-1.26.36-.64.62-.88c.26-.23.54-.4.86-.51.32-.11.65-.17.99-.17s.66.05.98.17c.32.11.61.28.86.51.26.23.46.52.62.88s.23.77.23,1.26-.08.91-.23,1.27-.36.65-.62.88c-.26.23-.54.4-.86.51-.32.11-.65.17-.98.17ZM312.52,284.24c.25,0,.49-.06.71-.19.22-.12.4-.32.53-.59.13-.27.2-.62.2-1.07s-.07-.79-.21-1.06-.31-.46-.53-.58-.45-.18-.71-.18-.49.06-.71.18-.4.31-.54.58-.21.62-.21,1.06.07.8.2,1.07c.13.27.31.47.54.59.22.12.46.19.71.19Z"/>
      <path class="cls-4" d="M316.31,285.09v-7.25h1.19v7.25h-1.19Z"/>
    </g>
    <g>
      <path class="cls-4" d="M342.45,108.56v-1.19c.94-.68,1.76-1.32,2.48-1.91.72-.6,1.28-1.16,1.69-1.69.41-.53.61-1.05.61-1.54,0-.43-.13-.77-.4-1.02-.27-.25-.63-.37-1.07-.37-.28,0-.55.06-.81.17-.26.11-.47.3-.64.57-.16.27-.25.64-.26,1.12h-1.45c0-.62.13-1.16.4-1.6.27-.44.64-.79,1.12-1.03.48-.24,1.04-.36,1.68-.36.56,0,1.06.09,1.49.28.44.19.78.46,1.03.81.25.35.38.78.38,1.3,0,.64-.19,1.25-.58,1.84-.39.59-.91,1.16-1.57,1.72-.66.56-1.4,1.11-2.23,1.66h4.54v1.25h-6.42Z"/>
      <path class="cls-4" d="M353.91,108.56v-2.03h-4.28v-1.22l4.33-5.45h1.39v5.36h1.45v1.31h-1.45v2.03h-1.44ZM351.2,105.22h2.71v-3.46l-2.71,3.46Z"/>
      <path class="cls-4" d="M359.78,108.56l-2.96-8.7h1.67l2.26,7.06,2.23-7.06h1.58l-2.95,8.7h-1.82Z"/>
      <path class="cls-4" d="M368.09,108.56v-8.7h2.96c.73,0,1.37.07,1.93.22.56.14,1,.41,1.32.8.32.39.48.95.48,1.69,0,.55-.09,1.01-.28,1.36-.18.36-.44.63-.77.83s-.73.34-1.18.41-.96.11-1.5.11h-1.43v3.28h-1.54ZM369.63,103.96h1.51c.38,0,.73-.03,1.04-.09.31-.06.56-.19.74-.39.18-.2.27-.51.27-.92s-.09-.71-.27-.91c-.18-.2-.43-.33-.74-.4-.31-.06-.66-.1-1.04-.1h-1.51v2.81Z"/>
      <path class="cls-4" d="M377.43,108.56l-2.12-8.7h1.62l1.49,6.8,1.45-6.8h1.69l1.56,6.84,1.4-6.84h1.58l-2.1,8.7h-1.76l-1.54-6.77-1.52,6.77h-1.75Z"/>
      <path class="cls-4" d="M387.33,108.56v-8.7h2.51l2,6.86,2.03-6.86h2.48v8.7h-1.51v-7.36l-2.23,7.36h-1.54l-2.23-7.34v7.34h-1.51Z"/>
      <path class="cls-4" d="M348.73,123.11c-.86,0-1.6-.19-2.24-.58-.64-.38-1.13-.91-1.48-1.59-.35-.68-.53-1.46-.53-2.35s.18-1.67.53-2.35c.35-.68.85-1.2,1.48-1.58.64-.38,1.38-.57,2.24-.57s1.6.19,2.24.57,1.13.91,1.48,1.58c.35.68.53,1.46.53,2.35s-.18,1.67-.53,2.35c-.35.68-.85,1.21-1.48,1.59s-1.38.58-2.24.58ZM348.73,121.83c.49,0,.93-.12,1.33-.37.4-.25.72-.61.95-1.09.24-.48.35-1.07.35-1.76s-.12-1.28-.35-1.76c-.24-.48-.55-.84-.95-1.09-.4-.24-.84-.37-1.33-.37s-.93.12-1.33.37c-.4.24-.72.61-.96,1.09-.24.48-.36,1.07-.36,1.76s.12,1.28.36,1.76c.24.48.56.84.96,1.09.4.25.84.37,1.33.37Z"/>
      <path class="cls-4" d="M358.38,122.96v-.91c-.18.31-.43.57-.73.77-.3.2-.72.3-1.24.3-.79,0-1.35-.23-1.66-.7-.32-.46-.47-1.09-.47-1.88v-4.03h1.43v3.65c0,.32.03.62.08.89.05.27.16.49.34.65.17.16.44.25.81.25.97,0,1.45-.65,1.45-1.94v-3.49h1.44v6.46h-1.44Z"/>
      <path class="cls-4" d="M364.64,122.96h-.97c-.46,0-.81-.04-1.06-.13s-.43-.25-.53-.5c-.1-.24-.16-.6-.16-1.06v-3.68h-1.02v-1.08h1.02v-1.68h1.43v1.68h1.3v1.08h-1.3v3.47c0,.32.04.53.13.64.09.11.29.16.61.16h.55v1.1Z"/>
      <path class="cls-4" d="M365.92,125.06v-8.56h1.43v.96c.21-.34.49-.61.85-.8.36-.19.76-.28,1.22-.28.52,0,.99.13,1.41.4.42.27.76.65,1.01,1.15.25.5.38,1.1.38,1.81s-.13,1.31-.38,1.81-.59.89-1.01,1.16-.89.4-1.41.4c-.46,0-.86-.1-1.22-.29-.36-.19-.64-.46-.85-.8v3.04h-1.43ZM368.99,121.95c.5,0,.9-.19,1.22-.58.32-.38.47-.93.47-1.63s-.16-1.25-.47-1.63c-.32-.38-.72-.57-1.22-.57-.3,0-.57.07-.83.22-.26.15-.47.38-.63.71-.16.32-.24.75-.24,1.27s.08.94.24,1.27.37.56.63.71c.26.15.54.23.83.23Z"/>
      <path class="cls-4" d="M377.57,122.96v-.91c-.18.31-.43.57-.73.77-.3.2-.72.3-1.24.3-.79,0-1.35-.23-1.66-.7s-.47-1.09-.47-1.88v-4.03h1.43v3.65c0,.32.03.62.08.89.05.27.16.49.34.65s.44.25.81.25c.97,0,1.45-.65,1.45-1.94v-3.49h1.44v6.46h-1.44Z"/>
      <path class="cls-4" d="M383.83,122.96h-.97c-.46,0-.81-.04-1.06-.13s-.43-.25-.53-.5c-.1-.24-.16-.6-.16-1.06v-3.68h-1.02v-1.08h1.02v-1.68h1.43v1.68h1.3v1.08h-1.3v3.47c0,.32.04.53.13.64.09.11.29.16.61.16h.55v1.1Z"/>
      <path class="cls-4" d="M387.95,122.96v-8.7h3.38c.58,0,1.1.06,1.58.18.48.12.86.34,1.15.65.28.32.43.77.43,1.35,0,.41-.09.78-.26,1.11-.17.33-.41.59-.73.77.41.16.73.4.98.73.24.33.37.76.37,1.3,0,.62-.14,1.13-.43,1.51s-.67.66-1.16.83-1.05.26-1.69.26h-3.62ZM389.48,117.88h1.99c.45,0,.8-.1,1.06-.29.26-.19.38-.5.38-.91,0-.38-.13-.66-.39-.85-.26-.19-.61-.28-1.05-.28h-1.99v2.33ZM389.48,121.66h2.11c.54,0,.95-.12,1.23-.35.28-.23.41-.56.41-.97,0-.85-.56-1.27-1.69-1.27h-2.06v2.59Z"/>
    </g>
    <g>
      <path class="cls-4" d="M422.93,107.89v-1.19c.94-.68,1.76-1.32,2.48-1.91.72-.6,1.28-1.16,1.69-1.69.41-.53.61-1.05.61-1.54,0-.43-.13-.77-.4-1.02-.27-.25-.63-.37-1.07-.37-.28,0-.55.06-.81.17-.26.11-.47.3-.64.57-.16.27-.25.64-.26,1.12h-1.45c0-.62.13-1.16.4-1.6.27-.44.64-.79,1.12-1.03.48-.24,1.04-.36,1.68-.36.56,0,1.06.09,1.49.28.44.19.78.46,1.03.81.25.35.38.78.38,1.3,0,.64-.19,1.25-.58,1.84-.39.59-.91,1.16-1.57,1.72-.66.56-1.4,1.11-2.23,1.66h4.54v1.25h-6.42Z"/>
      <path class="cls-4" d="M434.39,107.89v-2.03h-4.28v-1.22l4.33-5.45h1.39v5.36h1.45v1.31h-1.45v2.03h-1.44ZM431.67,104.56h2.71v-3.46l-2.71,3.46Z"/>
      <path class="cls-4" d="M440.25,107.89l-2.96-8.7h1.67l2.26,7.06,2.23-7.06h1.58l-2.95,8.7h-1.82Z"/>
      <path class="cls-4" d="M448.57,107.89v-8.7h2.96c.73,0,1.37.07,1.93.22.56.14,1,.41,1.32.8.32.39.48.95.48,1.69,0,.55-.09,1.01-.28,1.36-.18.36-.44.63-.77.83s-.73.34-1.18.41-.96.11-1.5.11h-1.43v3.28h-1.54ZM450.11,103.3h1.51c.38,0,.73-.03,1.04-.09.31-.06.56-.19.74-.39.18-.2.27-.51.27-.92s-.09-.71-.27-.91c-.18-.2-.43-.33-.74-.4-.31-.06-.66-.1-1.04-.1h-1.51v2.81Z"/>
      <path class="cls-4" d="M457.91,107.89l-2.12-8.7h1.62l1.49,6.8,1.45-6.8h1.69l1.56,6.84,1.4-6.84h1.58l-2.1,8.7h-1.76l-1.54-6.77-1.52,6.77h-1.75Z"/>
      <path class="cls-4" d="M467.81,107.89v-8.7h2.51l2,6.86,2.03-6.86h2.48v8.7h-1.51v-7.36l-2.23,7.36h-1.54l-2.23-7.34v7.34h-1.51Z"/>
      <path class="cls-4" d="M428.92,122.45c-.86,0-1.6-.19-2.24-.58-.64-.38-1.13-.91-1.48-1.59-.35-.68-.53-1.46-.53-2.35s.18-1.67.53-2.35c.35-.68.85-1.2,1.48-1.58.64-.38,1.38-.57,2.24-.57s1.6.19,2.24.57,1.13.91,1.48,1.58c.35.68.53,1.46.53,2.35s-.18,1.67-.53,2.35c-.35.68-.85,1.21-1.48,1.59s-1.38.58-2.24.58ZM428.92,121.17c.49,0,.93-.12,1.33-.37.4-.25.72-.61.95-1.09.24-.48.35-1.07.35-1.76s-.12-1.28-.35-1.76c-.24-.48-.55-.84-.95-1.09-.4-.24-.84-.37-1.33-.37s-.93.12-1.33.37c-.4.24-.72.61-.96,1.09-.24.48-.36,1.07-.36,1.76s.12,1.28.36,1.76c.24.48.56.84.96,1.09.4.25.84.37,1.33.37Z"/>
      <path class="cls-4" d="M438.57,122.29v-.91c-.18.31-.43.57-.73.77-.3.2-.72.3-1.24.3-.79,0-1.35-.23-1.66-.7-.32-.46-.47-1.09-.47-1.88v-4.03h1.43v3.65c0,.32.03.62.08.89.05.27.16.49.34.65.17.16.44.25.81.25.97,0,1.45-.65,1.45-1.94v-3.49h1.44v6.46h-1.44Z"/>
      <path class="cls-4" d="M444.83,122.29h-.97c-.46,0-.81-.04-1.06-.13s-.43-.25-.53-.5c-.1-.24-.16-.6-.16-1.06v-3.68h-1.02v-1.08h1.02v-1.68h1.43v1.68h1.3v1.08h-1.3v3.47c0,.32.04.53.13.64.09.11.29.16.61.16h.55v1.1Z"/>
      <path class="cls-4" d="M446.1,124.39v-8.56h1.43v.96c.21-.34.49-.61.85-.8.36-.19.76-.28,1.22-.28.52,0,.99.13,1.41.4.42.27.76.65,1.01,1.15.25.5.38,1.1.38,1.81s-.13,1.31-.38,1.81-.59.89-1.01,1.16-.89.4-1.41.4c-.46,0-.86-.1-1.22-.29-.36-.19-.64-.46-.85-.8v3.04h-1.43ZM449.18,121.29c.5,0,.9-.19,1.22-.58.32-.38.47-.93.47-1.63s-.16-1.25-.47-1.63c-.32-.38-.72-.57-1.22-.57-.3,0-.57.07-.83.22-.26.15-.47.38-.63.71-.16.32-.24.75-.24,1.27s.08.94.24,1.27.37.56.63.71c.26.15.54.23.83.23Z"/>
      <path class="cls-4" d="M457.76,122.29v-.91c-.18.31-.43.57-.73.77-.3.2-.72.3-1.24.3-.79,0-1.35-.23-1.66-.7s-.47-1.09-.47-1.88v-4.03h1.43v3.65c0,.32.03.62.08.89.05.27.16.49.34.65s.44.25.81.25c.97,0,1.45-.65,1.45-1.94v-3.49h1.44v6.46h-1.44Z"/>
      <path class="cls-4" d="M464.02,122.29h-.97c-.46,0-.81-.04-1.06-.13s-.43-.25-.53-.5c-.1-.24-.16-.6-.16-1.06v-3.68h-1.02v-1.08h1.02v-1.68h1.43v1.68h1.3v1.08h-1.3v3.47c0,.32.04.53.13.64.09.11.29.16.61.16h.55v1.1Z"/>
      <path class="cls-4" d="M474.21,119.34h1.5c-.12.65-.36,1.2-.73,1.67s-.82.82-1.36,1.07-1.15.37-1.82.37c-.86,0-1.59-.19-2.21-.56-.62-.38-1.09-.9-1.41-1.58-.32-.68-.49-1.47-.49-2.38s.17-1.69.52-2.36c.34-.67.83-1.19,1.46-1.57.63-.37,1.37-.56,2.21-.56.65,0,1.24.13,1.76.38.53.25.97.61,1.32,1.07.35.46.58,1.02.7,1.66h-1.51c-.13-.56-.39-1-.8-1.33-.4-.33-.91-.49-1.53-.49-.47,0-.9.12-1.28.37-.38.25-.69.61-.91,1.09-.22.48-.34,1.06-.34,1.75s.11,1.27.33,1.76c.22.48.52.85.91,1.1s.83.38,1.31.38c.6,0,1.11-.15,1.54-.46.42-.31.7-.76.83-1.36Z"/>
    </g>
    <rect class="cls-1" width="548.52" height="341.38" rx="11.05" ry="11.05"/>
    <line class="cls-2" x1="293.6" y1="234.92" x2="293.6" y2="174.32"/>
    <circle class="cls-4" cx="293.6" cy="238.82" r="6.06"/>
    <line class="cls-2" x1="369.9" y1="234.92" x2="369.9" y2="174.32"/>
    <circle class="cls-4" cx="369.9" cy="238.82" r="6.06"/>
    <line class="cls-2" x1="450.97" y1="234.92" x2="450.97" y2="174.32"/>
    <circle class="cls-4" cx="450.97" cy="238.82" r="6.06"/>
    <g>
      <path class="cls-4" d="M335.5,261.09v-7.25h4.95v1.12h-3.67v1.84h3.45v1.12h-3.45v3.17h-1.28Z"/>
      <path class="cls-4" d="M341.47,261.09v-7.25h1.19v7.25h-1.19Z"/>
      <path class="cls-4" d="M347.87,259.48h1.16c-.17.53-.47.95-.92,1.27-.45.32-.98.47-1.59.47-.57,0-1.07-.12-1.48-.36-.41-.24-.73-.57-.95-1-.22-.43-.33-.92-.33-1.47s.12-1.06.37-1.48.57-.75.98-.98c.41-.23.86-.34,1.36-.34.54,0,1.01.13,1.4.38.39.25.69.6.91,1.03.21.43.32.92.32,1.47v.12s0,.09,0,.14h-4.1c.04.37.14.66.29.88.15.22.34.38.56.48s.44.15.67.15c.37,0,.66-.07.88-.21.22-.14.38-.32.49-.55ZM346.47,256.56c-.21,0-.42.04-.62.12-.2.08-.38.21-.53.41-.15.19-.26.46-.31.8h2.86c-.03-.39-.17-.71-.42-.96s-.58-.37-.98-.37Z"/>
      <path class="cls-4" d="M349.24,261.09l2.01-2.74-1.9-2.64h1.38l1.22,1.7,1.24-1.7h1.29l-1.89,2.58,2.03,2.8h-1.38l-1.35-1.86-1.34,1.86h-1.31Z"/>
      <path class="cls-4" d="M362.94,261.09l-.05-.87c-.23.35-.54.6-.94.76-.39.16-.83.24-1.33.24-.7,0-1.3-.16-1.8-.47s-.88-.76-1.15-1.33-.4-1.22-.4-1.97.15-1.42.44-1.98c.29-.56.7-.99,1.22-1.3s1.13-.46,1.83-.46c.51,0,.99.09,1.42.27.43.18.79.44,1.08.78s.49.76.59,1.25h-1.25c-.11-.35-.31-.64-.62-.88s-.73-.35-1.26-.35c-.39,0-.75.1-1.08.3s-.58.5-.77.89c-.19.39-.29.88-.29,1.47s.09,1.05.27,1.46c.18.4.43.71.76.92.32.21.69.32,1.11.32.23,0,.45-.03.68-.08.23-.05.43-.14.62-.26.19-.12.34-.29.46-.5.12-.21.17-.48.17-.8v-.17h-1.86v-1.08h3.1v3.83h-.99Z"/>
      <path class="cls-4" d="M365.29,261.09v-5.38h1.16v.97c.13-.31.33-.56.58-.73.25-.17.56-.26.92-.27h.12s.09,0,.13,0v1.21c-.18-.03-.34-.04-.49-.04-.41,0-.71.11-.92.33-.21.22-.31.6-.31,1.13v2.77h-1.19Z"/>
      <path class="cls-4" d="M373.53,261.09h-1.2c-.04-.26-.06-.5-.06-.71-.36.56-.97.84-1.83.84-.33,0-.64-.06-.92-.18-.28-.12-.51-.3-.67-.54-.17-.23-.25-.51-.25-.84,0-.43.15-.78.46-1.03.3-.25.73-.44,1.27-.58.54-.13,1.18-.23,1.9-.3v-.12c0-.42-.11-.72-.32-.89-.21-.17-.47-.26-.79-.26s-.59.08-.79.24c-.2.16-.31.4-.33.7h-1.17c.03-.37.15-.7.34-.97.2-.28.46-.49.8-.65.34-.15.72-.23,1.15-.23.75,0,1.32.18,1.7.54.38.36.57.92.57,1.71v1.21c0,.42.01.8.04,1.15.03.35.06.65.11.91ZM372.26,258.84v-.26c-.49.05-.91.11-1.27.18-.36.07-.64.17-.84.3-.2.13-.29.31-.29.54s.08.41.26.54c.17.14.39.21.67.21.26,0,.5-.04.72-.13s.4-.25.54-.46.21-.52.21-.91Z"/>
      <path class="cls-4" d="M374.36,261.09v-.99l3.01-3.4h-2.81v-.99h4.27v.99l-3.01,3.4h3.09v.99h-4.55Z"/>
      <path class="cls-4" d="M383.65,259.48h1.16c-.17.53-.47.95-.92,1.27-.45.32-.98.47-1.59.47-.57,0-1.07-.12-1.48-.36-.41-.24-.73-.57-.95-1-.22-.43-.33-.92-.33-1.47s.12-1.06.37-1.48c.24-.42.57-.75.98-.98.41-.23.87-.34,1.37-.34.54,0,1,.13,1.39.38.39.25.69.6.91,1.03.21.43.32.92.32,1.47v.12s0,.09,0,.14h-4.1c.04.37.14.66.29.88.15.22.34.38.56.48.22.1.44.15.67.15.37,0,.66-.07.88-.21.22-.14.38-.32.49-.55ZM382.25,256.56c-.21,0-.42.04-.62.12-.2.08-.38.21-.54.41s-.26.46-.31.8h2.86c-.03-.39-.17-.71-.42-.96s-.57-.37-.97-.37Z"/>
      <path class="cls-4" d="M388.33,261.09v-7.25h1.28v2.96h3.49v-2.96h1.28v7.25h-1.28v-3.17h-3.49v3.17h-1.28Z"/>
      <path class="cls-4" d="M399.14,261.22c-.71,0-1.33-.16-1.87-.48-.53-.32-.94-.76-1.24-1.33-.29-.56-.44-1.21-.44-1.96s.15-1.39.44-1.96c.29-.56.71-1,1.24-1.32.53-.32,1.15-.47,1.87-.47s1.33.16,1.87.47c.53.32.94.76,1.23,1.32.29.56.44,1.21.44,1.96s-.15,1.39-.44,1.96c-.29.56-.71,1-1.23,1.33-.53.32-1.15.48-1.87.48ZM399.14,260.15c.41,0,.78-.1,1.11-.31.33-.21.6-.51.8-.91.2-.4.29-.89.29-1.47s-.1-1.07-.29-1.47c-.2-.4-.46-.7-.8-.91-.33-.2-.7-.3-1.11-.3s-.78.1-1.11.3-.6.5-.8.91c-.2.4-.3.89-.3,1.47s.1,1.07.3,1.47c.2.4.47.7.8.91s.7.31,1.11.31Z"/>
      <path class="cls-4" d="M344.07,273.09v-5.37h-1.67v-.84c.37-.01.67-.05.92-.12s.46-.17.63-.31c.17-.15.32-.35.44-.61h.86v7.25h-1.19Z"/>
      <path class="cls-4" d="M348.32,273.09l2.01-2.74-1.9-2.64h1.38l1.22,1.7,1.24-1.7h1.29l-1.89,2.58,2.03,2.8h-1.38l-1.35-1.86-1.34,1.86h-1.31Z"/>
      <path class="cls-4" d="M357.76,273.09v-5.37h-1.67v-.84c.37-.01.67-.05.92-.12s.46-.17.64-.31c.17-.15.32-.35.44-.61h.86v7.25h-1.19Z"/>
      <path class="cls-4" d="M361.43,267.91h-1.2c.05-.47.19-.86.42-1.19.24-.33.55-.58.95-.75.39-.17.84-.26,1.34-.26.43,0,.83.06,1.2.19.37.13.68.33.91.6.23.27.35.63.35,1.08,0,.37-.1.71-.3,1-.2.29-.47.52-.81.67.47.16.81.41,1,.74.19.33.29.68.29,1.04,0,.49-.13.9-.38,1.23-.25.33-.59.57-1,.73-.41.16-.86.24-1.34.24-.8,0-1.44-.21-1.91-.64s-.74-.99-.81-1.68h1.2c.05.44.22.78.49,1.03.27.24.62.37,1.05.37s.79-.11,1.06-.33c.27-.22.4-.53.4-.93,0-.29-.08-.53-.25-.71-.17-.18-.39-.31-.67-.39s-.6-.12-.96-.12h-.28v-1.03h.24c.57,0,1.01-.09,1.32-.26.31-.17.46-.45.46-.84,0-.35-.13-.61-.38-.78-.26-.17-.56-.26-.9-.26-.42,0-.76.11-1.01.33-.26.22-.41.53-.46.93Z"/>
      <path class="cls-4" d="M366.64,273.09v-1.39h1.42v1.39h-1.42Z"/>
      <path class="cls-4" d="M369.84,273.09v-5.37h-1.67v-.84c.37-.01.67-.05.92-.12s.46-.17.63-.31c.17-.15.32-.35.44-.61h.86v7.25h-1.19Z"/>
      <path class="cls-4" d="M372.37,268.7l.66-1.47h-.59v-1.39h1.42v1.48l-.76,1.38h-.73Z"/>
      <path class="cls-4" d="M379.22,274.84h-1.06c-.21-.29-.42-.67-.63-1.12s-.4-.96-.54-1.54c-.15-.57-.22-1.19-.22-1.85s.07-1.29.22-1.86c.15-.57.33-1.08.54-1.53.22-.45.43-.82.63-1.11h1.06c-.35.55-.64,1.21-.88,1.98-.24.77-.36,1.61-.36,2.52s.12,1.74.36,2.51c.24.77.53,1.44.88,1.99Z"/>
      <path class="cls-4" d="M382.91,273.09v-1.69h-3.57v-1.02l3.61-4.54h1.16v4.47h1.21v1.09h-1.21v1.69h-1.2ZM380.65,270.31h2.26v-2.88l-2.26,2.88Z"/>
      <path class="cls-4" d="M386.4,273.09v-7.25h2.09l1.67,5.72,1.69-5.72h2.07v7.25h-1.26v-6.13l-1.86,6.13h-1.28l-1.86-6.12v6.12h-1.26Z"/>
      <path class="cls-4" d="M396.02,274.84h-1.06c.35-.55.64-1.22.88-1.99.24-.77.37-1.61.37-2.51s-.12-1.75-.37-2.52c-.24-.77-.54-1.43-.88-1.98h1.06c.21.29.42.66.63,1.11.22.45.4.96.54,1.53.15.57.22,1.19.22,1.86s-.07,1.28-.22,1.85c-.15.57-.33,1.08-.54,1.54s-.43.82-.63,1.12Z"/>
      <path class="cls-4" d="M345.61,285.09v-7.25h2.09l1.67,5.72,1.69-5.72h2.07v7.25h-1.26v-6.13l-1.86,6.13h-1.28l-1.86-6.12v6.12h-1.26Z"/>
      <path class="cls-4" d="M359.2,285.09h-1.2c-.04-.26-.06-.5-.06-.71-.36.56-.97.84-1.83.84-.33,0-.64-.06-.92-.18-.28-.12-.51-.3-.67-.54-.17-.23-.25-.51-.25-.84,0-.43.15-.78.46-1.03.3-.25.73-.44,1.27-.58.54-.13,1.18-.23,1.9-.3v-.12c0-.42-.11-.72-.32-.89-.21-.17-.47-.26-.79-.26s-.59.08-.79.24c-.2.16-.31.4-.33.7h-1.17c.03-.37.15-.7.34-.97.2-.28.46-.49.8-.65.34-.15.72-.23,1.15-.23.75,0,1.32.18,1.7.54.38.36.57.92.57,1.71v1.21c0,.42.01.8.04,1.15.03.35.06.65.11.91ZM357.94,282.84v-.26c-.49.05-.91.11-1.27.18-.36.07-.64.17-.84.3-.2.13-.29.31-.29.54s.08.41.26.54c.17.14.39.21.67.21.26,0,.5-.04.72-.13s.4-.25.54-.46.21-.52.21-.91Z"/>
      <path class="cls-4" d="M359.75,285.09l2.01-2.74-1.9-2.64h1.38l1.22,1.7,1.24-1.7h1.29l-1.89,2.58,2.03,2.8h-1.38l-1.35-1.86-1.34,1.86h-1.31Z"/>
      <path class="cls-4" d="M370.24,280.66l.9.19c.29.06.58.14.87.23.29.09.56.22.81.37s.45.35.61.59.23.55.23.92-.08.69-.24.97c-.16.28-.38.52-.65.71-.27.19-.58.33-.92.43s-.7.14-1.06.14c-.89,0-1.6-.22-2.14-.65-.54-.43-.87-1.02-.98-1.77h1.27c.09.45.3.79.62,1.02s.74.34,1.25.34c.44,0,.8-.09,1.09-.28.29-.19.43-.44.43-.77s-.14-.57-.42-.74c-.28-.17-.63-.3-1.07-.39l-.9-.18c-.35-.08-.69-.2-1-.35-.32-.15-.58-.36-.78-.63s-.3-.6-.3-1.01c0-.36.08-.67.25-.94.16-.27.38-.49.65-.66.27-.17.57-.3.89-.38.32-.08.65-.12.97-.12.45,0,.88.07,1.28.21.4.14.74.36,1.02.67s.47.71.56,1.2h-1.26c-.11-.37-.32-.63-.63-.79s-.66-.24-1.02-.24c-.2,0-.41.03-.62.09-.21.06-.4.16-.54.3-.15.14-.23.33-.23.56,0,.26.1.46.29.61.2.15.45.26.75.33Z"/>
      <path class="cls-4" d="M374.73,286.84v-7.13h1.19v.8c.17-.29.41-.51.71-.67.3-.16.63-.24,1.01-.24.43,0,.83.11,1.17.34.35.22.63.54.84.96.21.42.32.92.32,1.5s-.11,1.09-.32,1.51-.49.74-.84.96-.74.33-1.17.33c-.38,0-.72-.08-1.01-.24-.3-.16-.53-.38-.71-.67v2.53h-1.19ZM377.28,284.25c.41,0,.75-.16,1.02-.48.26-.32.39-.77.39-1.36s-.13-1.04-.39-1.36c-.26-.32-.6-.47-1.02-.47-.25,0-.48.06-.69.18-.22.12-.39.32-.53.59-.13.27-.2.62-.2,1.06s.07.79.2,1.05c.13.27.31.47.53.59.22.13.45.19.69.19Z"/>
      <path class="cls-4" d="M383.44,285.22c-.34,0-.67-.05-.99-.17-.32-.11-.61-.28-.87-.51-.26-.23-.46-.52-.62-.88s-.23-.78-.23-1.27.08-.91.23-1.26.36-.64.62-.88c.26-.23.54-.4.87-.51s.65-.17.99-.17.66.05.98.17c.32.11.61.28.87.51.26.23.46.52.62.88s.23.77.23,1.26-.08.91-.23,1.27-.36.65-.62.88c-.26.23-.54.4-.87.51-.32.11-.65.17-.98.17ZM383.44,284.24c.25,0,.49-.06.71-.19.22-.12.4-.32.53-.59.13-.27.2-.62.2-1.07s-.07-.79-.21-1.06-.31-.46-.53-.58c-.22-.12-.45-.18-.71-.18s-.49.06-.71.18c-.22.12-.4.31-.54.58s-.21.62-.21,1.06.07.8.2,1.07c.13.27.31.47.54.59.22.12.46.19.71.19Z"/>
      <path class="cls-4" d="M389.58,285.22c-.34,0-.67-.05-.99-.17-.32-.11-.61-.28-.86-.51-.26-.23-.46-.52-.62-.88s-.23-.78-.23-1.27.08-.91.23-1.26.36-.64.62-.88c.26-.23.54-.4.86-.51.32-.11.65-.17.99-.17s.66.05.98.17c.32.11.61.28.86.51.26.23.46.52.62.88s.23.77.23,1.26-.08.91-.23,1.27-.36.65-.62.88c-.26.23-.54.4-.86.51-.32.11-.65.17-.98.17ZM389.58,284.24c.25,0,.49-.06.71-.19.22-.12.4-.32.53-.59.13-.27.2-.62.2-1.07s-.07-.79-.21-1.06-.31-.46-.53-.58-.45-.18-.71-.18-.49.06-.71.18-.4.31-.54.58-.21.62-.21,1.06.07.8.2,1.07c.13.27.31.47.54.59.22.12.46.19.71.19Z"/>
      <path class="cls-4" d="M393.37,285.09v-7.25h1.19v7.25h-1.19Z"/>
    </g>
    <g>
      <path class="cls-4" d="M417.57,261.09v-7.25h4.95v1.12h-3.67v1.84h3.45v1.12h-3.45v3.17h-1.28Z"/>
      <path class="cls-4" d="M423.54,261.09v-7.25h1.19v7.25h-1.19Z"/>
      <path class="cls-4" d="M429.94,259.48h1.16c-.17.53-.47.95-.92,1.27-.45.32-.98.47-1.59.47-.57,0-1.07-.12-1.48-.36-.41-.24-.73-.57-.95-1-.22-.43-.33-.92-.33-1.47s.12-1.06.37-1.48.57-.75.98-.98c.41-.23.86-.34,1.36-.34.54,0,1.01.13,1.4.38.39.25.69.6.91,1.03.21.43.32.92.32,1.47v.12s0,.09,0,.14h-4.1c.04.37.14.66.29.88.15.22.34.38.56.48s.44.15.67.15c.37,0,.66-.07.88-.21.22-.14.38-.32.49-.55ZM428.54,256.56c-.21,0-.42.04-.62.12-.2.08-.38.21-.53.41-.15.19-.26.46-.31.8h2.86c-.03-.39-.17-.71-.42-.96s-.58-.37-.98-.37Z"/>
      <path class="cls-4" d="M431.31,261.09l2.01-2.74-1.9-2.64h1.38l1.22,1.7,1.24-1.7h1.29l-1.89,2.58,2.03,2.8h-1.38l-1.35-1.86-1.34,1.86h-1.31Z"/>
      <path class="cls-4" d="M445.01,261.09l-.05-.87c-.23.35-.54.6-.94.76-.39.16-.83.24-1.33.24-.7,0-1.3-.16-1.8-.47s-.88-.76-1.15-1.33-.4-1.22-.4-1.97.15-1.42.44-1.98c.29-.56.7-.99,1.22-1.3s1.13-.46,1.83-.46c.51,0,.99.09,1.42.27.43.18.79.44,1.08.78s.49.76.59,1.25h-1.25c-.11-.35-.31-.64-.62-.88s-.73-.35-1.26-.35c-.39,0-.75.1-1.08.3s-.58.5-.77.89c-.19.39-.29.88-.29,1.47s.09,1.05.27,1.46c.18.4.43.71.76.92.32.21.69.32,1.11.32.23,0,.45-.03.68-.08.23-.05.43-.14.62-.26.19-.12.34-.29.46-.5.12-.21.17-.48.17-.8v-.17h-1.86v-1.08h3.1v3.83h-.99Z"/>
      <path class="cls-4" d="M447.36,261.09v-5.38h1.16v.97c.13-.31.33-.56.58-.73.25-.17.56-.26.92-.27h.12s.09,0,.13,0v1.21c-.18-.03-.34-.04-.49-.04-.41,0-.71.11-.92.33-.21.22-.31.6-.31,1.13v2.77h-1.19Z"/>
      <path class="cls-4" d="M455.6,261.09h-1.2c-.04-.26-.06-.5-.06-.71-.36.56-.97.84-1.83.84-.33,0-.64-.06-.92-.18-.28-.12-.51-.3-.67-.54-.17-.23-.25-.51-.25-.84,0-.43.15-.78.46-1.03.3-.25.73-.44,1.27-.58.54-.13,1.18-.23,1.9-.3v-.12c0-.42-.11-.72-.32-.89-.21-.17-.47-.26-.79-.26s-.59.08-.79.24c-.2.16-.31.4-.33.7h-1.17c.03-.37.15-.7.34-.97.2-.28.46-.49.8-.65.34-.15.72-.23,1.15-.23.75,0,1.32.18,1.7.54.38.36.57.92.57,1.71v1.21c0,.42.01.8.04,1.15.03.35.06.65.11.91ZM454.33,258.84v-.26c-.49.05-.91.11-1.27.18-.36.07-.64.17-.84.3-.2.13-.29.31-.29.54s.08.41.26.54c.17.14.39.21.67.21.26,0,.5-.04.72-.13s.4-.25.54-.46.21-.52.21-.91Z"/>
      <path class="cls-4" d="M456.43,261.09v-.99l3.01-3.4h-2.81v-.99h4.27v.99l-3.01,3.4h3.09v.99h-4.55Z"/>
      <path class="cls-4" d="M465.72,259.48h1.16c-.17.53-.47.95-.92,1.27-.45.32-.98.47-1.59.47-.57,0-1.07-.12-1.48-.36-.41-.24-.73-.57-.95-1-.22-.43-.33-.92-.33-1.47s.12-1.06.37-1.48c.24-.42.57-.75.98-.98.41-.23.87-.34,1.37-.34.54,0,1,.13,1.39.38.39.25.69.6.91,1.03.21.43.32.92.32,1.47v.12s0,.09,0,.14h-4.1c.04.37.14.66.29.88.15.22.34.38.56.48.22.1.44.15.67.15.37,0,.66-.07.88-.21.22-.14.38-.32.49-.55ZM464.32,256.56c-.21,0-.42.04-.62.12-.2.08-.38.21-.54.41s-.26.46-.31.8h2.86c-.03-.39-.17-.71-.42-.96s-.57-.37-.97-.37Z"/>
      <path class="cls-4" d="M470.4,261.09v-7.25h1.28v2.96h3.49v-2.96h1.28v7.25h-1.28v-3.17h-3.49v3.17h-1.28Z"/>
      <path class="cls-4" d="M481.21,261.22c-.71,0-1.33-.16-1.87-.48-.53-.32-.94-.76-1.24-1.33-.29-.56-.44-1.21-.44-1.96s.15-1.39.44-1.96c.29-.56.71-1,1.24-1.32.53-.32,1.15-.47,1.87-.47s1.33.16,1.87.47c.53.32.94.76,1.23,1.32.29.56.44,1.21.44,1.96s-.15,1.39-.44,1.96c-.29.56-.71,1-1.23,1.33-.53.32-1.15.48-1.87.48ZM481.21,260.15c.41,0,.78-.1,1.11-.31.33-.21.6-.51.8-.91.2-.4.29-.89.29-1.47s-.1-1.07-.29-1.47c-.2-.4-.46-.7-.8-.91-.33-.2-.7-.3-1.11-.3s-.78.1-1.11.3-.6.5-.8.91c-.2.4-.3.89-.3,1.47s.1,1.07.3,1.47c.2.4.47.7.8.91s.7.31,1.11.31Z"/>
      <path class="cls-4" d="M426.14,273.09v-5.37h-1.67v-.84c.37-.01.67-.05.92-.12s.46-.17.63-.31c.17-.15.32-.35.44-.61h.86v7.25h-1.19Z"/>
      <path class="cls-4" d="M430.39,273.09l2.01-2.74-1.9-2.64h1.38l1.22,1.7,1.24-1.7h1.29l-1.89,2.58,2.03,2.8h-1.38l-1.35-1.86-1.34,1.86h-1.31Z"/>
      <path class="cls-4" d="M439.83,273.09v-5.37h-1.67v-.84c.37-.01.67-.05.92-.12s.46-.17.64-.31c.17-.15.32-.35.44-.61h.86v7.25h-1.19Z"/>
      <path class="cls-4" d="M443.5,267.91h-1.2c.05-.47.19-.86.42-1.19.24-.33.55-.58.95-.75.39-.17.84-.26,1.34-.26.43,0,.83.06,1.2.19.37.13.68.33.91.6.23.27.35.63.35,1.08,0,.37-.1.71-.3,1-.2.29-.47.52-.81.67.47.16.81.41,1,.74.19.33.29.68.29,1.04,0,.49-.13.9-.38,1.23-.25.33-.59.57-1,.73-.41.16-.86.24-1.34.24-.8,0-1.44-.21-1.91-.64s-.74-.99-.81-1.68h1.2c.05.44.22.78.49,1.03.27.24.62.37,1.05.37s.79-.11,1.06-.33c.27-.22.4-.53.4-.93,0-.29-.08-.53-.25-.71-.17-.18-.39-.31-.67-.39s-.6-.12-.96-.12h-.28v-1.03h.24c.57,0,1.01-.09,1.32-.26.31-.17.46-.45.46-.84,0-.35-.13-.61-.38-.78-.26-.17-.56-.26-.9-.26-.42,0-.76.11-1.01.33-.26.22-.41.53-.46.93Z"/>
      <path class="cls-4" d="M448.71,273.09v-1.39h1.42v1.39h-1.42Z"/>
      <path class="cls-4" d="M451.91,273.09v-5.37h-1.67v-.84c.37-.01.67-.05.92-.12s.46-.17.63-.31c.17-.15.32-.35.44-.61h.86v7.25h-1.19Z"/>
      <path class="cls-4" d="M454.44,268.7l.66-1.47h-.59v-1.39h1.42v1.48l-.76,1.38h-.73Z"/>
      <path class="cls-4" d="M461.29,274.84h-1.06c-.21-.29-.42-.67-.63-1.12s-.4-.96-.54-1.54c-.15-.57-.22-1.19-.22-1.85s.07-1.29.22-1.86c.15-.57.33-1.08.54-1.53.22-.45.43-.82.63-1.11h1.06c-.35.55-.64,1.21-.88,1.98-.24.77-.36,1.61-.36,2.52s.12,1.74.36,2.51c.24.77.53,1.44.88,1.99Z"/>
      <path class="cls-4" d="M464.98,273.09v-1.69h-3.57v-1.02l3.61-4.54h1.16v4.47h1.21v1.09h-1.21v1.69h-1.2ZM462.72,270.31h2.26v-2.88l-2.26,2.88Z"/>
      <path class="cls-4" d="M468.47,273.09v-7.25h2.09l1.67,5.72,1.69-5.72h2.07v7.25h-1.26v-6.13l-1.86,6.13h-1.28l-1.86-6.12v6.12h-1.26Z"/>
      <path class="cls-4" d="M478.09,274.84h-1.06c.35-.55.64-1.22.88-1.99.24-.77.37-1.61.37-2.51s-.12-1.75-.37-2.52c-.24-.77-.54-1.43-.88-1.98h1.06c.21.29.42.66.63,1.11.22.45.4.96.54,1.53.15.57.22,1.19.22,1.86s-.07,1.28-.22,1.85c-.15.57-.33,1.08-.54,1.54s-.43.82-.63,1.12Z"/>
      <path class="cls-4" d="M427.67,285.09v-7.25h2.09l1.67,5.72,1.69-5.72h2.07v7.25h-1.26v-6.13l-1.86,6.13h-1.28l-1.86-6.12v6.12h-1.26Z"/>
      <path class="cls-4" d="M441.27,285.09h-1.2c-.04-.26-.06-.5-.06-.71-.36.56-.97.84-1.83.84-.33,0-.64-.06-.92-.18-.28-.12-.51-.3-.67-.54-.17-.23-.25-.51-.25-.84,0-.43.15-.78.46-1.03.3-.25.73-.44,1.27-.58.54-.13,1.18-.23,1.9-.3v-.12c0-.42-.11-.72-.32-.89-.21-.17-.47-.26-.79-.26s-.59.08-.79.24c-.2.16-.31.4-.33.7h-1.17c.03-.37.15-.7.34-.97.2-.28.46-.49.8-.65.34-.15.72-.23,1.15-.23.75,0,1.32.18,1.7.54.38.36.57.92.57,1.71v1.21c0,.42.01.8.04,1.15.03.35.06.65.11.91ZM440,282.84v-.26c-.49.05-.91.11-1.27.18-.36.07-.64.17-.84.3-.2.13-.29.31-.29.54s.08.41.26.54c.17.14.39.21.67.21.26,0,.5-.04.72-.13s.4-.25.54-.46.21-.52.21-.91Z"/>
      <path class="cls-4" d="M441.81,285.09l2.01-2.74-1.9-2.64h1.38l1.22,1.7,1.24-1.7h1.29l-1.89,2.58,2.03,2.8h-1.38l-1.35-1.86-1.34,1.86h-1.31Z"/>
      <path class="cls-4" d="M452.3,280.66l.9.19c.29.06.58.14.87.23.29.09.56.22.81.37s.45.35.61.59.23.55.23.92-.08.69-.24.97c-.16.28-.38.52-.65.71-.27.19-.58.33-.92.43s-.7.14-1.06.14c-.89,0-1.6-.22-2.14-.65-.54-.43-.87-1.02-.98-1.77h1.27c.09.45.3.79.62,1.02s.74.34,1.25.34c.44,0,.8-.09,1.09-.28.29-.19.43-.44.43-.77s-.14-.57-.42-.74c-.28-.17-.63-.3-1.07-.39l-.9-.18c-.35-.08-.69-.2-1-.35-.32-.15-.58-.36-.78-.63s-.3-.6-.3-1.01c0-.36.08-.67.25-.94.16-.27.38-.49.65-.66.27-.17.57-.3.89-.38.32-.08.65-.12.97-.12.45,0,.88.07,1.28.21.4.14.74.36,1.02.67s.47.71.56,1.2h-1.26c-.11-.37-.32-.63-.63-.79s-.66-.24-1.02-.24c-.2,0-.41.03-.62.09-.21.06-.4.16-.54.3-.15.14-.23.33-.23.56,0,.26.1.46.29.61.2.15.45.26.75.33Z"/>
      <path class="cls-4" d="M456.79,286.84v-7.13h1.19v.8c.17-.29.41-.51.71-.67.3-.16.63-.24,1.01-.24.43,0,.83.11,1.17.34.35.22.63.54.84.96.21.42.32.92.32,1.5s-.11,1.09-.32,1.51-.49.74-.84.96-.74.33-1.17.33c-.38,0-.72-.08-1.01-.24-.3-.16-.53-.38-.71-.67v2.53h-1.19ZM459.35,284.25c.41,0,.75-.16,1.02-.48.26-.32.39-.77.39-1.36s-.13-1.04-.39-1.36c-.26-.32-.6-.47-1.02-.47-.25,0-.48.06-.69.18-.22.12-.39.32-.53.59-.13.27-.2.62-.2,1.06s.07.79.2,1.05c.13.27.31.47.53.59.22.13.45.19.69.19Z"/>
      <path class="cls-4" d="M465.5,285.22c-.34,0-.67-.05-.99-.17-.32-.11-.61-.28-.87-.51-.26-.23-.46-.52-.62-.88s-.23-.78-.23-1.27.08-.91.23-1.26.36-.64.62-.88c.26-.23.54-.4.87-.51s.65-.17.99-.17.66.05.98.17c.32.11.61.28.87.51.26.23.46.52.62.88s.23.77.23,1.26-.08.91-.23,1.27-.36.65-.62.88c-.26.23-.54.4-.87.51-.32.11-.65.17-.98.17ZM465.5,284.24c.25,0,.49-.06.71-.19.22-.12.4-.32.53-.59.13-.27.2-.62.2-1.07s-.07-.79-.21-1.06-.31-.46-.53-.58c-.22-.12-.45-.18-.71-.18s-.49.06-.71.18c-.22.12-.4.31-.54.58s-.21.62-.21,1.06.07.8.2,1.07c.13.27.31.47.54.59.22.12.46.19.71.19Z"/>
      <path class="cls-4" d="M471.65,285.22c-.34,0-.67-.05-.99-.17-.32-.11-.61-.28-.86-.51-.26-.23-.46-.52-.62-.88s-.23-.78-.23-1.27.08-.91.23-1.26.36-.64.62-.88c.26-.23.54-.4.86-.51.32-.11.65-.17.99-.17s.66.05.98.17c.32.11.61.28.86.51.26.23.46.52.62.88s.23.77.23,1.26-.08.91-.23,1.27-.36.65-.62.88c-.26.23-.54.4-.86.51-.32.11-.65.17-.98.17ZM471.65,284.24c.25,0,.49-.06.71-.19.22-.12.4-.32.53-.59.13-.27.2-.62.2-1.07s-.07-.79-.21-1.06-.31-.46-.53-.58-.45-.18-.71-.18-.49.06-.71.18-.4.31-.54.58-.21.62-.21,1.06.07.8.2,1.07c.13.27.31.47.54.59.22.12.46.19.71.19Z"/>
      <path class="cls-4" d="M475.44,285.09v-7.25h1.19v7.25h-1.19Z"/>
    </g>
  </g>
</svg>