<?xml version="1.0" encoding="UTF-8"?>
<svg id="Logo" xmlns="http://www.w3.org/2000/svg" viewBox="0 0 1004.64 204">
  <defs>
    <style>
      .cls-1 {
        fill: #ef4643;
      }

      .cls-2 {
        fill: #002a41;
      }
    </style>
  </defs>
  <g>
    <path class="cls-1" d="M201.24,203.3c-41.13-13.78-49.71-163.55-88.29-188.14-.4-.26-.85.26-.56.63,26.16,33.48,27.47,188.21,60.18,188.21h28.54c.41,0,.51-.57.12-.7Z"/>
    <path class="cls-1" d="M203.02,0H.98C.44,0,0,.44,0,.98v170.55c0,.55.72.76,1,.29C34.45,115.71,54.35,9.63,102,9.63s67.55,106.08,101,162.18c.28.47,1,.26,1-.29V.98c0-.54-.44-.98-.98-.98Z"/>
    <path class="cls-1" d="M102,11.83c-22.06,0-11.93,178.95-31.77,191.5-.32.2-.19.68.18.68h63.17c.37,0,.5-.48.18-.68-19.84-12.55-9.71-191.5-31.77-191.5Z"/>
    <path class="cls-1" d="M91.05,15.16C52.47,39.74,43.89,189.52,2.76,203.3c-.39.13-.3.7.12.7h28.54c32.72,0,34.02-154.72,60.18-188.21.3-.38-.15-.89-.56-.63Z"/>
  </g>
  <path class="cls-2" d="M310.14,34.55h14.72l60.23,135.76h-18.55l-17.4-39.58h-63.29l-17.4,39.58h-18.36l60.04-135.76ZM342.07,114.67l-24.67-56.03-24.67,56.03h49.33Z"/>
  <path class="cls-2" d="M437.94,172.23c-29.07,0-49.91-22.37-49.91-49.72s20.84-49.72,49.91-49.72c24.09,0,42.83,14.91,48.19,35.56h-17.59c-4.21-12.05-15.68-20.46-30.59-20.46-19.89,0-33.27,15.3-33.27,34.61s13.38,34.61,33.27,34.61c14.91,0,26.39-8.41,30.59-20.46h17.59c-5.35,20.65-24.09,35.57-48.19,35.57Z"/>
  <path class="cls-2" d="M547.18,172.23c-29.07,0-49.91-22.37-49.91-49.72s20.84-49.72,49.91-49.72c24.09,0,42.83,14.91,48.19,35.56h-17.59c-4.21-12.05-15.68-20.46-30.59-20.46-19.89,0-33.27,15.3-33.27,34.61s13.38,34.61,33.27,34.61c14.91,0,26.39-8.41,30.59-20.46h17.59c-5.35,20.65-24.09,35.57-48.19,35.57Z"/>
  <path class="cls-2" d="M613.05,26.9h16.44v143.41h-16.44V26.9Z"/>
  <path class="cls-2" d="M695.39,72.8c14.34,0,27.34,7.46,33.65,16.64v-14.72h16.44v95.61h-16.44v-14.72c-6.31,9.18-19.31,16.64-33.65,16.64-26.77,0-46.85-22.37-46.85-49.72s20.08-49.72,46.85-49.72ZM697.87,87.9c-19.31,0-32.7,15.3-32.7,34.61s13.38,34.61,32.7,34.61,32.51-15.3,32.51-34.61-13.19-34.61-32.51-34.61Z"/>
  <path class="cls-2" d="M779.33,49.09c-6.5,0-11.86-5.16-11.86-11.66s5.35-11.66,11.86-11.66,11.47,5.35,11.47,11.66-4.97,11.66-11.47,11.66ZM770.91,74.71h16.44v95.61h-16.44v-95.61Z"/>
  <path class="cls-2" d="M812.67,74.71h16.44v14.72c5.55-10.14,16.06-16.64,28.87-16.64,14.34,0,24.67,7.84,29.45,20.46,5.16-12.62,17.21-20.46,31.36-20.46,20.84,0,33.46,15.49,33.46,38.82v58.7h-16.45v-56.22c0-15.49-6.5-26.2-18.93-26.2-15.49,0-26.2,13.38-26.2,34.99v47.42h-16.44v-56.22c0-15.49-6.31-26.2-18.74-26.2-15.49,0-26.39,13.38-26.39,34.99v47.42h-16.44v-95.61Z"/>
  <path class="cls-2" d="M969.42,76.31h-6.44v-3.5h16.56v3.5h-6.47v18.69h-3.66v-18.69Z"/>
  <path class="cls-2" d="M986.07,79.06v15.94h-3.66v-22.19h3.34l7.75,10.5,7.78-10.5h3.34v22.19h-3.69v-15.91l-7.41,10.06-7.47-10.1Z"/>
</svg>