<?xml version="1.0" encoding="UTF-8"?>
<svg id="Logo" xmlns="http://www.w3.org/2000/svg" viewBox="0 0 997.33 202.52">
  <defs>
    <style>
      .cls-1 {
        fill: #ef4643;
      }

      .cls-2 {
        fill: #e9eff4;
      }
    </style>
  </defs>
  <g>
    <path class="cls-1" d="M199.78,201.82c-40.83-13.68-49.35-162.36-87.64-186.77-.4-.26-.84.25-.55.63,25.97,33.24,27.27,186.84,59.74,186.84h28.33c.41,0,.5-.57.12-.7Z"/>
    <path class="cls-1" d="M201.55,0H.97C.43,0,0,.43,0,.97v169.31c0,.54.72.75,1,.28C34.2,114.87,53.96,9.56,101.26,9.56s67.06,105.31,100.26,161.01c.28.47,1,.26,1-.28V.97c0-.54-.43-.97-.97-.97Z"/>
    <path class="cls-1" d="M101.26,11.74c-21.9,0-11.84,177.65-31.54,190.11-.31.2-.19.67.18.67h62.71c.37,0,.49-.47.18-.67-19.7-12.46-9.64-190.11-31.54-190.11Z"/>
    <path class="cls-1" d="M90.38,15.05C52.09,39.46,43.57,188.14,2.74,201.82c-.39.13-.29.7.12.7h28.33c32.48,0,33.77-153.6,59.74-186.84.29-.38-.15-.89-.55-.63Z"/>
  </g>
  <path class="cls-2" d="M307.88,34.3h14.62l59.8,134.78h-18.41l-17.27-39.29h-62.83l-17.27,39.29h-18.22l59.61-134.78ZM339.58,113.84l-24.49-55.62-24.49,55.62h48.97Z"/>
  <path class="cls-2" d="M434.76,170.98c-28.85,0-49.54-22.21-49.54-49.36s20.69-49.35,49.54-49.35c23.92,0,42.52,14.81,47.84,35.31h-17.46c-4.18-11.96-15.57-20.31-30.37-20.31-19.74,0-33.03,15.19-33.03,34.36s13.29,34.36,33.03,34.36c14.81,0,26.2-8.35,30.37-20.31h17.46c-5.32,20.5-23.92,35.31-47.84,35.31Z"/>
  <path class="cls-2" d="M543.2,170.98c-28.85,0-49.54-22.21-49.54-49.36s20.69-49.35,49.54-49.35c23.92,0,42.52,14.81,47.84,35.31h-17.46c-4.18-11.96-15.57-20.31-30.37-20.31-19.74,0-33.03,15.19-33.03,34.36s13.29,34.36,33.03,34.36c14.81,0,26.2-8.35,30.37-20.31h17.46c-5.32,20.5-23.92,35.31-47.84,35.31Z"/>
  <path class="cls-2" d="M608.59,26.71h16.32v142.37h-16.32V26.71Z"/>
  <path class="cls-2" d="M690.33,72.27c14.24,0,27.15,7.4,33.41,16.51v-14.62h16.32v94.91h-16.32v-14.62c-6.26,9.11-19.17,16.51-33.41,16.51-26.58,0-46.51-22.21-46.51-49.36s19.93-49.35,46.51-49.35ZM692.8,87.26c-19.17,0-32.46,15.19-32.46,34.36s13.29,34.36,32.46,34.36,32.27-15.19,32.27-34.36-13.1-34.36-32.27-34.36Z"/>
  <path class="cls-2" d="M773.66,48.73c-6.45,0-11.77-5.12-11.77-11.58s5.32-11.58,11.77-11.58,11.39,5.32,11.39,11.58-4.94,11.58-11.39,11.58ZM765.31,74.17h16.32v94.91h-16.32v-94.91Z"/>
  <path class="cls-2" d="M806.76,74.17h16.32v14.62c5.51-10.06,15.95-16.51,28.66-16.51,14.24,0,24.49,7.78,29.23,20.31,5.13-12.53,17.08-20.31,31.13-20.31,20.69,0,33.22,15.37,33.22,38.53v58.28h-16.33v-55.81c0-15.37-6.45-26.01-18.79-26.01-15.38,0-26.01,13.29-26.01,34.74v47.08h-16.32v-55.81c0-15.37-6.26-26.01-18.6-26.01-15.38,0-26.2,13.29-26.2,34.74v47.08h-16.32v-94.91Z"/>
  <g>
    <path class="cls-2" d="M962.38,75.75h-6.39v-3.47h16.44v3.47h-6.42v18.55h-3.63v-18.55Z"/>
    <path class="cls-2" d="M978.9,78.48v15.82h-3.63v-22.03h3.32l7.69,10.42,7.73-10.42h3.32v22.03h-3.66v-15.79l-7.35,9.99-7.41-10.02Z"/>
  </g>
</svg>