<?xml version="1.0" encoding="UTF-8"?>
<svg id="Layer_2" data-name="Layer 2" xmlns="http://www.w3.org/2000/svg" viewBox="0 0 318.22 68.35">
  <defs>
    <style>
      .cls-1 {
        fill: #005777;
      }

      .cls-2 {
        fill: #ef4643;
      }

      .cls-2, .cls-3, .cls-4 {
        fill-rule: evenodd;
      }

      .cls-5 {
        isolation: isolate;
      }

      .cls-3 {
        fill: #4c99b6;
      }

      .cls-4 {
        fill: #e9eff4;
      }
    </style>
  </defs>
  <g id="Layer_1-2" data-name="Layer 1">
    <g id="Layer_1-3" data-name="Layer_1">
      <g id="_1656977188512" data-name=" 1656977188512">
        <g>
          <path class="cls-3" d="M145.83,47.9c2.17,0,3.94,1.76,3.94,3.94s-1.76,3.94-3.94,3.94-3.94-1.76-3.94-3.94,1.76-3.94,3.94-3.94ZM145.83,43.47c4.62,0,8.36,3.74,8.36,8.36s-3.74,8.36-8.36,8.36-8.36-3.74-8.36-8.36,3.74-8.36,8.36-8.36h0ZM199.35,47.9c2.17,0,3.94,1.76,3.94,3.94s-1.76,3.94-3.94,3.94-3.94-1.76-3.94-3.94,1.76-3.94,3.94-3.94ZM199.35,43.47c4.62,0,8.36,3.74,8.36,8.36s-3.74,8.36-8.36,8.36-8.36-3.74-8.36-8.36,3.74-8.36,8.36-8.36ZM187.55,36.57h19.91l-6.8-13.43h-13.11v13.43ZM129.33,44.41h-1.32c-1.75-.03-3.2,1.23-3.2,2.85v3.71h9.55c.43-5.95,5.41-10.65,11.48-10.65s11.05,4.7,11.47,10.66h30.56c.44-5.96,5.41-10.66,11.48-10.66s11.23,4.88,11.49,11h5.33c1.11,0,2.03-.91,2.03-2.02v-2.96c0-1.11-.91-2.03-2.03-2.03h-2.6v-5.17s-9.03-17.04-9.03-17.04c-.87-1.64-2.77-3.09-4.63-3.09h-16.72v25.17s-3.19,0-3.19,0V8.8h-50.69v35.61s0,0,0,0Z"/>
          <path class="cls-4" d="M104.67,47.9c2.17,0,3.94,1.76,3.94,3.94s-1.76,3.94-3.94,3.94-3.94-1.76-3.94-3.94,1.76-3.94,3.94-3.94ZM104.67,43.47c4.62,0,8.36,3.74,8.36,8.36s-3.74,8.36-8.36,8.36-8.36-3.74-8.36-8.36,3.74-8.36,8.36-8.36ZM158.18,47.9c2.17,0,3.94,1.76,3.94,3.94s-1.76,3.94-3.94,3.94-3.94-1.76-3.94-3.94,1.76-3.94,3.94-3.94ZM158.18,43.47c4.62,0,8.36,3.74,8.36,8.36s-3.74,8.36-8.36,8.36-8.36-3.74-8.36-8.36,3.74-8.36,8.36-8.36ZM146.38,36.57h19.91l-6.8-13.43h-13.11v13.43h0ZM88.17,44.41h-1.32c-1.75-.03-3.2,1.23-3.2,2.85v3.71h9.55c.43-5.95,5.41-10.65,11.48-10.65s11.05,4.7,11.47,10.66h30.56c.44-5.96,5.41-10.66,11.48-10.66s11.23,4.88,11.49,11h5.33c1.11,0,2.03-.91,2.03-2.02v-2.96c0-1.11-.91-2.03-2.03-2.03h-2.6v-5.17s-9.03-17.04-9.03-17.04c-.87-1.64-2.77-3.09-4.63-3.09h-16.72v25.17s-3.19,0-3.19,0V8.8h-50.69v35.61s0,0,0,0Z"/>
          <path class="cls-3" d="M92.37,21.95h31.48c1.02,0,1.86.84,1.86,1.86h0c0,1.02-.84,1.86-1.86,1.86h-31.48c-1.02,0-1.86-.84-1.86-1.86h0c0-1.02.84-1.86,1.86-1.86ZM99.08,15.33h25.29c1.02,0,1.86.84,1.86,1.86h0c0,1.02-.84,1.86-1.86,1.86h-25.29c-1.02,0-1.86-.84-1.86-1.86h0c0-1.02.84-1.86,1.86-1.86ZM103.83,8.72h20.16c1.02,0,1.86.84,1.86,1.86h0c0,1.02-.84,1.86-1.86,1.86h-20.16c-1.02,0-1.86-.84-1.86-1.86h0c0-1.02.84-1.86,1.86-1.86Z"/>
          <path class="cls-2" d="M63.6,47.9c2.17,0,3.94,1.76,3.94,3.94s-1.76,3.94-3.94,3.94-3.94-1.76-3.94-3.94,1.76-3.94,3.94-3.94ZM63.6,43.47c4.62,0,8.36,3.74,8.36,8.36s-3.74,8.36-8.36,8.36-8.36-3.74-8.36-8.36,3.74-8.36,8.36-8.36ZM117.11,47.9c2.17,0,3.94,1.76,3.94,3.94s-1.76,3.94-3.94,3.94-3.94-1.76-3.94-3.94,1.76-3.94,3.94-3.94ZM117.11,43.47c4.62,0,8.36,3.74,8.36,8.36s-3.74,8.36-8.36,8.36-8.36-3.74-8.36-8.36,3.74-8.36,8.36-8.36ZM105.31,36.57h19.91l-6.8-13.43h-13.11v13.43h0ZM47.09,44.41h-1.32c-1.75-.03-3.2,1.23-3.2,2.85v3.71h9.55c.43-5.95,5.41-10.65,11.48-10.65s11.05,4.7,11.47,10.66h30.56c.44-5.96,5.41-10.66,11.48-10.66s11.23,4.88,11.49,11h5.33c1.11,0,2.03-.91,2.03-2.02v-2.96c0-1.11-.91-2.03-2.03-2.03h-2.6v-5.17s-9.03-17.04-9.03-17.04c-.87-1.64-2.77-3.09-4.63-3.09h-16.72v25.17s-3.19,0-3.19,0V8.8h-50.69v35.61s0,0,0,0Z"/>
          <path class="cls-4" d="M51.3,21.95h31.48c1.02,0,1.86.84,1.86,1.86h0c0,1.02-.84,1.86-1.86,1.86h-31.48c-1.02,0-1.86-.84-1.86-1.86h0c0-1.02.84-1.86,1.86-1.86ZM58,15.33h25.29c1.02,0,1.86.84,1.86,1.86h0c0,1.02-.84,1.86-1.86,1.86h-25.29c-1.02,0-1.86-.84-1.86-1.86h0c0-1.02.84-1.86,1.86-1.86ZM62.76,8.72h20.16c1.02,0,1.86.84,1.86,1.86h0c0,1.02-.84,1.86-1.86,1.86h-20.16c-1.02,0-1.86-.84-1.86-1.86h0c0-1.02.84-1.86,1.86-1.86Z"/>
          <path class="cls-2" d="M10.04,21.95h31.48c1.02,0,1.86.84,1.86,1.86h0c0,1.02-.84,1.86-1.86,1.86H10.04c-1.02,0-1.86-.84-1.86-1.86h0c0-1.02.84-1.86,1.86-1.86ZM16.75,15.33h25.29c1.02,0,1.86.84,1.86,1.86h0c0,1.02-.84,1.86-1.86,1.86h-25.29c-1.02,0-1.86-.84-1.86-1.86h0c0-1.02.84-1.86,1.86-1.86ZM21.5,8.72h20.16c1.02,0,1.86.84,1.86,1.86h0c0,1.02-.84,1.86-1.86,1.86h-20.16c-1.02,0-1.86-.84-1.86-1.86h0c0-1.02.84-1.86,1.86-1.86Z"/>
          <path class="cls-3" d="M99.08,15.33v3.73c-1.02,0-1.86-.84-1.86-1.86h0c0-1.02.84-1.86,1.86-1.86Z"/>
          <path class="cls-3" d="M92.37,21.95h7.02l-.09,3.73h-6.93c-1.02,0-1.86-.84-1.86-1.86h0c0-1.02.84-1.86,1.86-1.86Z"/>
        </g>
        <path class="cls-1" d="M8.18,0h301.86c2.25,0,4.3.92,5.78,2.4,1.48,1.48,2.4,3.53,2.4,5.78v51.99c0,2.25-.92,4.3-2.4,5.78-1.48,1.48-3.53,2.4-5.78,2.4H8.18c-2.25,0-4.3-.92-5.78-2.4-1.48-1.48-2.4-3.53-2.4-5.78V8.18C0,5.93.92,3.88,2.4,2.4,3.88.92,5.93,0,8.18,0ZM310.04,2.26H8.18c-1.63,0-3.1.67-4.18,1.74-1.07,1.07-1.74,2.55-1.74,4.18v51.99c0,1.63.67,3.1,1.74,4.18s2.55,1.74,4.18,1.74h301.86c1.63,0,3.1-.67,4.18-1.74,1.07-1.07,1.74-2.55,1.74-4.18V8.18c0-1.63-.67-3.1-1.74-4.18-1.07-1.07-2.55-1.74-4.18-1.74Z"/>
        <g class="cls-5">
          <path class="cls-1" d="M239.18,30.06c-2,0-3.75-.45-5.24-1.34-1.49-.9-2.65-2.13-3.47-3.71-.83-1.58-1.24-3.4-1.24-5.48s.41-3.9,1.24-5.48c.82-1.58,1.98-2.81,3.47-3.7,1.49-.89,3.24-1.33,5.24-1.33s3.75.44,5.24,1.33c1.49.89,2.65,2.12,3.47,3.7.82,1.58,1.24,3.4,1.24,5.48,0,1.51-.22,2.9-.67,4.16-.45,1.26-1.09,2.36-1.91,3.29l2.39,2.46-2.05,1.99-2.56-2.66c-1.5.86-3.21,1.29-5.14,1.29ZM239.18,27.06c1.03,0,1.97-.22,2.81-.67l-2.42-2.52,2.05-1.96,2.44,2.52c.41-.6.73-1.31.96-2.13s.34-1.75.34-2.77c0-1.62-.28-3-.83-4.12-.55-1.12-1.3-1.97-2.23-2.54-.94-.57-1.98-.85-3.12-.85s-2.18.28-3.12.85c-.94.57-1.69,1.41-2.25,2.54-.56,1.12-.84,2.49-.84,4.12s.28,3,.84,4.12c.56,1.12,1.31,1.97,2.25,2.55.94.58,1.98.87,3.12.87Z"/>
          <path class="cls-1" d="M261.77,29.7v-2.13c-.43.73-1,1.33-1.71,1.79-.71.47-1.68.7-2.89.7-1.85,0-3.15-.54-3.89-1.62s-1.11-2.55-1.11-4.4v-9.41h3.34v8.51c0,.75.06,1.44.18,2.07.12.64.38,1.14.79,1.53.4.38,1.04.57,1.9.57,2.27,0,3.4-1.51,3.4-4.54v-8.15h3.37v15.07h-3.37Z"/>
          <path class="cls-1" d="M269.16,12.7v-3.31h3.34v3.31h-3.34ZM269.16,29.7v-15.07h3.34v15.07h-3.34Z"/>
          <path class="cls-1" d="M286.72,24.54h3.29c-.22,1.16-.69,2.15-1.39,2.97-.7.82-1.55,1.45-2.54,1.89-.99.44-2.05.66-3.17.66-1.52,0-2.82-.34-3.91-1.01-1.09-.67-1.92-1.61-2.51-2.8-.59-1.19-.88-2.57-.88-4.12s.31-2.88.93-4.06c.62-1.18,1.49-2.1,2.61-2.77,1.12-.67,2.43-1.01,3.93-1.01,1.16,0,2.21.23,3.16.7.95.47,1.74,1.12,2.37,1.95.64.83,1.05,1.8,1.24,2.9h-3.26c-.19-.88-.6-1.56-1.24-2.04-.64-.49-1.39-.73-2.28-.73-.67,0-1.32.18-1.92.53-.61.35-1.1.9-1.48,1.64-.38.74-.56,1.7-.56,2.9s.19,2.2.56,2.97.87,1.33,1.48,1.68c.61.35,1.25.53,1.92.53.99,0,1.81-.27,2.44-.81s1.04-1.19,1.21-1.96Z"/>
          <path class="cls-1" d="M292.87,29.7V9.39h3.34v11.62l5.7-6.39h4.04l-5.62,6.08,6.27,8.99h-3.99l-4.55-6.55-1.85,1.99v4.57h-3.34Z"/>
        </g>
        <g class="cls-5">
          <path class="cls-1" d="M239.68,45.22l2.52.53c.8.17,1.62.38,2.44.64.82.26,1.58.61,2.28,1.04s1.26.99,1.69,1.67c.43.68.64,1.55.64,2.59s-.22,1.93-.67,2.72c-.45.78-1.05,1.44-1.81,1.97-.76.53-1.62.93-2.58,1.2s-1.96.41-2.98.41c-2.48,0-4.48-.61-5.99-1.82-1.51-1.21-2.43-2.87-2.75-4.96h3.56c.26,1.27.85,2.22,1.75,2.86s2.08.95,3.51.95c1.23,0,2.25-.26,3.05-.78.8-.52,1.21-1.24,1.21-2.16s-.39-1.61-1.16-2.09c-.78-.48-1.77-.83-2.98-1.08l-2.52-.5c-.99-.22-1.93-.55-2.81-.98-.89-.43-1.61-1.02-2.17-1.76-.56-.75-.84-1.69-.84-2.83,0-1.01.23-1.88.69-2.63.46-.75,1.06-1.36,1.82-1.83.76-.48,1.59-.83,2.49-1.06.91-.23,1.82-.35,2.73-.35,1.27,0,2.46.2,3.59.59,1.12.39,2.08,1.02,2.87,1.88.79.86,1.31,1.98,1.55,3.36h-3.53c-.3-1.03-.89-1.76-1.78-2.2s-1.84-.66-2.87-.66c-.56,0-1.14.08-1.74.25s-1.11.45-1.53.84c-.42.39-.63.92-.63,1.57,0,.73.28,1.3.83,1.71.55.41,1.26.72,2.11.92Z"/>
          <path class="cls-1" d="M252.25,57.63v-20.31h3.33v7.39c.39-.65.98-1.22,1.76-1.71.79-.48,1.79-.73,3.03-.73,1.87,0,3.17.54,3.91,1.62.74,1.08,1.11,2.54,1.11,4.37v9.36h-3.33v-8.43c0-.76-.06-1.47-.18-2.1s-.39-1.14-.8-1.53c-.41-.38-1.06-.57-1.96-.57-1.14,0-2.01.39-2.62,1.16-.61.78-.91,1.93-.91,3.46v8.01h-3.33Z"/>
          <path class="cls-1" d="M269.25,40.63v-3.31h3.33v3.31h-3.33ZM269.25,57.63v-15.07h3.33v15.07h-3.33Z"/>
          <path class="cls-1" d="M276.62,62.53v-19.97h3.33v2.24c.49-.8,1.14-1.42,1.97-1.86s1.78-.66,2.84-.66c1.21,0,2.31.31,3.29.94s1.76,1.52,2.35,2.69c.59,1.17.88,2.57.88,4.22s-.29,3.05-.88,4.23c-.59,1.18-1.37,2.08-2.35,2.7s-2.08.94-3.29.94c-1.06,0-2.01-.22-2.84-.67-.83-.45-1.49-1.07-1.97-1.88v7.09h-3.33ZM283.79,55.27c1.16,0,2.11-.45,2.84-1.34.74-.9,1.11-2.17,1.11-3.81s-.37-2.91-1.11-3.79c-.74-.89-1.69-1.33-2.84-1.33-.69,0-1.34.17-1.95.52s-1.1.9-1.47,1.65-.56,1.74-.56,2.96.19,2.2.56,2.96c.37.76.86,1.31,1.47,1.67.61.36,1.25.53,1.95.53Z"/>
        </g>
      </g>
    </g>
  </g>
</svg>